<svg id="Layer_1" data-name="Layer 1" xmlns="http://www.w3.org/2000/svg" xmlns:xlink="http://www.w3.org/1999/xlink" viewBox="0 0 4500 2500"><defs><style>.cls-1{fill:none;}.cls-2{fill:#aed3f0;}.cls-3{fill:#c3dcf3;}.cls-10,.cls-11,.cls-12,.cls-13,.cls-14,.cls-15,.cls-16,.cls-17,.cls-18,.cls-19,.cls-20,.cls-21,.cls-22,.cls-23,.cls-25,.cls-3,.cls-30,.cls-31,.cls-32,.cls-33,.cls-34,.cls-35,.cls-36,.cls-37,.cls-38,.cls-39,.cls-40,.cls-42,.cls-43,.cls-44,.cls-45,.cls-46,.cls-47,.cls-50,.cls-51,.cls-52,.cls-53,.cls-54,.cls-55,.cls-56,.cls-57,.cls-58,.cls-59,.cls-70,.cls-71,.cls-73{fill-rule:evenodd;}.cls-4{clip-path:url(#clip-path);}.cls-5{fill:#348579;}.cls-6{fill:#2a6c62;}.cls-7{fill:#255f56;}.cls-8{fill:#2a6b2a;}.cls-9{fill:#44ae9e;}.cls-10{fill:#dfecf9;}.cls-11{fill:url(#linear-gradient);}.cls-12{fill:url(#linear-gradient-2);}.cls-13,.cls-25,.cls-30,.cls-37{fill:#fff;}.cls-14{fill-opacity:0.22;}.cls-15{fill:url(#linear-gradient-3);}.cls-16,.cls-32,.cls-41{fill:#4067b1;}.cls-17{fill:#33528d;}.cls-18,.cls-26{fill:#2d4584;}.cls-19{fill:#e8f6ff;}.cls-20{fill:#9ad8ff;}.cls-21{fill:#edf8ff;}.cls-22,.cls-27{fill:#c9a40a;}.cls-23,.cls-28{fill:#f7da61;}.cls-24,.cls-43{fill:#ec6198;}.cls-25{fill-opacity:0.5;}.cls-29{fill:url(#linear-gradient-4);}.cls-30{fill-opacity:0.71;}.cls-31{fill-opacity:0.2;}.cls-32,.cls-33,.cls-34{fill-opacity:0.96;}.cls-33{fill:#0d6198;}.cls-34{fill:#37548c;}.cls-35{fill:#d0edff;}.cls-36{fill:#a5ddff;}.cls-37{fill-opacity:0.38;}.cls-38{fill-opacity:0.23;}.cls-39{fill-opacity:0.17;}.cls-40{fill:#bee6ff;}.cls-42{fill:#f085af;}.cls-44{fill:#e52b75;}.cls-45{fill:#ffdfec;}.cls-46,.cls-48{fill:#fffbfd;}.cls-47{fill:#f9f2d4;}.cls-49{fill:#987e14;}.cls-50{fill:url(#linear-gradient-5);}.cls-51{fill:url(#linear-gradient-6);}.cls-52{fill:url(#linear-gradient-7);}.cls-53{fill:url(#linear-gradient-8);}.cls-54{fill:url(#linear-gradient-9);}.cls-55{fill:url(#linear-gradient-10);}.cls-56{fill:url(#linear-gradient-11);}.cls-57{fill:url(#linear-gradient-12);}.cls-58{fill:url(#linear-gradient-13);}.cls-59{fill:url(#linear-gradient-14);}.cls-60{fill:#05837c;}.cls-61{fill:url(#linear-gradient-15);}.cls-62{fill:#9be6e1;}.cls-63{fill:#069991;}.cls-64{fill:url(#linear-gradient-16);}.cls-65{fill:#f2ffe3;}.cls-66{fill:#ebd063;}.cls-67{fill:#cfcac1;}.cls-68{fill:#d3a75d;}.cls-69,.cls-70{fill:#045c58;}.cls-71{fill-opacity:0.29;}.cls-72,.cls-73{fill:#04615c;}</style><clipPath id="clip-path"><rect class="cls-1" width="4500" height="2499.99"/></clipPath><linearGradient id="linear-gradient" x1="1290.64" y1="1791.02" x2="1291.83" y2="1791.02" gradientTransform="matrix(63.95, -879.71, -879.71, -63.95, 1496588.87, 1251827.86)" gradientUnits="userSpaceOnUse"><stop offset="0" stop-opacity="0"/><stop offset="1"/></linearGradient><linearGradient id="linear-gradient-2" x1="1290.64" y1="1791.44" x2="1291.83" y2="1791.44" xlink:href="#linear-gradient"/><linearGradient id="linear-gradient-3" x1="1291.18" y1="1790.92" x2="1292.37" y2="1790.92" gradientTransform="matrix(-239.06, -647.89, -647.89, 239.06, 1473181.53, 410567.47)" xlink:href="#linear-gradient"/><linearGradient id="linear-gradient-4" x1="1290.62" y1="1792.35" x2="1291.81" y2="1792.35" gradientTransform="matrix(241.19, -446.24, -446.24, -241.19, 492026.91, 1008878.94)" gradientUnits="userSpaceOnUse"><stop offset="0" stop-color="#fff" stop-opacity="0"/><stop offset="1" stop-color="#fff"/></linearGradient><linearGradient id="linear-gradient-5" x1="1294.9" y1="1776.36" x2="1296.09" y2="1776.26" gradientTransform="matrix(36.96, -75.19, 66.46, 26.81, -161551.14, 50970.48)" xlink:href="#linear-gradient-4"/><linearGradient id="linear-gradient-6" x1="1294.87" y1="1776.19" x2="1296.06" y2="1776.09" gradientTransform="matrix(36.96, -75.19, 66.46, 26.81, -161621, 50956.91)" xlink:href="#linear-gradient-4"/><linearGradient id="linear-gradient-7" x1="1294.85" y1="1776.01" x2="1296.03" y2="1775.91" gradientTransform="matrix(36.96, -75.19, 66.46, 26.81, -161690.86, 50943.34)" xlink:href="#linear-gradient-4"/><linearGradient id="linear-gradient-8" x1="1294.81" y1="1775.84" x2="1296" y2="1775.73" gradientTransform="matrix(36.96, -75.19, 66.46, 26.81, -161761.62, 50930.46)" xlink:href="#linear-gradient-4"/><linearGradient id="linear-gradient-9" x1="1294.78" y1="1775.66" x2="1295.97" y2="1775.56" gradientTransform="matrix(36.96, -75.19, 66.46, 26.81, -161832.24, 50917.6)" xlink:href="#linear-gradient-4"/><linearGradient id="linear-gradient-10" x1="1294.76" y1="1775.49" x2="1295.94" y2="1775.39" gradientTransform="matrix(36.96, -75.19, 66.46, 26.81, -161900.99, 50904.09)" xlink:href="#linear-gradient-4"/><linearGradient id="linear-gradient-11" x1="1294.73" y1="1775.31" x2="1295.91" y2="1775.21" gradientTransform="matrix(36.96, -75.19, 66.46, 26.81, -161971.06, 50891.02)" xlink:href="#linear-gradient-4"/><linearGradient id="linear-gradient-12" x1="1294.7" y1="1775.14" x2="1295.88" y2="1775.04" gradientTransform="matrix(36.96, -75.19, 66.46, 26.81, -162040.36, 50878.26)" xlink:href="#linear-gradient-4"/><linearGradient id="linear-gradient-13" x1="1294.66" y1="1774.97" x2="1295.85" y2="1774.86" gradientTransform="matrix(36.96, -75.19, 66.46, 26.81, -162110.88, 50865.29)" xlink:href="#linear-gradient-4"/><linearGradient id="linear-gradient-14" x1="1294.64" y1="1774.79" x2="1295.82" y2="1774.69" gradientTransform="matrix(36.96, -75.19, 66.46, 26.81, -162180.92, 50851.65)" xlink:href="#linear-gradient-4"/><linearGradient id="linear-gradient-15" x1="1289.44" y1="1787.5" x2="1290.63" y2="1787.66" gradientTransform="matrix(-173.07, 388.04, 506.44, 132.61, -681425.64, -735085.71)" gradientUnits="userSpaceOnUse"><stop offset="0" stop-color="#05837c"/><stop offset="1" stop-color="#003a37"/></linearGradient><linearGradient id="linear-gradient-16" x1="1287.26" y1="1790.22" x2="1288.44" y2="1789.93" gradientTransform="matrix(472.41, 177.36, 231.48, -361.96, -1021529.02, 422035.26)" gradientUnits="userSpaceOnUse"><stop offset="0" stop-color="#069991"/><stop offset="1" stop-color="#004c48"/></linearGradient></defs><g id="c41"><rect class="cls-2" width="4500" height="2499.99"/><path class="cls-3" d="M0,1461.14V2500H4500V2391.45c-111.12,21.84-225.41,25.61-334.55,9.39-522.39-77.6-1085.75-336-1577.75-525.79-627.81-242.16-1424.33-438.52-2098.19-461.7C334.05,1408,164.68,1423.35,0,1461.14ZM4500,916V0H88.9c6.8,13.68,12,23.57,14.88,28.31C267,301.37,573.59,493.39,870.69,585.58c1090,338.22,2231.84,22.19,3333,247.1A2135.84,2135.84,0,0,1,4500,916Z"/><rect class="cls-1" width="4500" height="2499.99"/><g class="cls-4"><path class="cls-5" d="M3417.81,1154.78s109.51,411.33,30.23,682.84c32.68,7.06,50.69,0,50.69,0s46.88-521.07-80.92-682.84"/><path class="cls-5" d="M3619.57,1367.26s-100.63,307.45-98.34,461.18c-20.58,57.36-52.95,0-52.95,0s30.46-309.75,151.29-461.18"/><path class="cls-6" d="M3619.57,1482S3558,1738,3567.68,1863.51c-12.87,47.86-40.69,2.58-40.69,2.58s7.49-254.53,92.58-384.11"/><path class="cls-5" d="M3637.39,1813.52s108-127.34,183.44-150.28c18.3-19.5,0-18.35,0-18.35s-166.95,86-211.55,174.37c9.14,22.94,28.11-5.74,28.11-5.74"/><path class="cls-6" d="M3646.29,1669.23s-62,65.85-68.09,191.16c-27.25,5.91-31.51-13.14-31.51-13.14s55.73-209,142.64-216.58c-27.45,18.8-43,38.56-43,38.56"/><path class="cls-5" d="M3480.77,1778.72s-9.1-124.8-115.09-213.57c-52.26-43.78-40.43-77.19-83.46-89s-105.64-48.41-122.59-65.42-271.52-76.68-336.73-53.13c73,18.31,143.41,123.73,179.92,126.35s83.54,44.84,135.7,81.48,92.84,14.07,126.75,31.08,157.8,83.78,215.5,182.17"/><path class="cls-7" d="M3416.16,1678.87c-15.86-20.57-32.71-40.35-49.88-59.71a373.27,373.27,0,0,0-27.13-27.54,290.68,290.68,0,0,0-30.66-23.19,313.06,313.06,0,0,0-33.44-19.09c-11.54-5.78-23.42-11.37-34.6-18.39-11.24-6.79-21.68-15.35-31.41-23.56-9.93-7.75-21.08-14.29-32.38-20.39-45.65-24-94.09-42.89-142.06-62.4L2890,1367.26c48.76,17.66,97.77,34.64,146.28,53s97,37,143.41,61c11.53,6.13,22.92,12.66,33.51,20.81,10.19,8.41,19.93,16.27,30.82,23.1,10.74,6.9,22.33,12.48,33.91,18.41a316.06,316.06,0,0,1,33.92,19.76c10.78,7.45,21.42,15,31,24.24a378,378,0,0,1,26.58,28.81c16.88,19.85,32,41.07,46.79,62.42"/><path class="cls-8" d="M3294.78,1499.64a262.87,262.87,0,0,1,37.17,45.77,160.55,160.55,0,0,1,13.78,26.31,96.06,96.06,0,0,1,7.33,29l.14,1.82-1.8.28c-9.9,1.5-19.81,2.85-29.78,3.77a268.7,268.7,0,0,1-30,1.22,182,182,0,0,1-29.93-2.91c-9.73-2.13-19.75-4.82-27.76-10.91,8.36,5.53,18.38,7.51,28.09,9a184.32,184.32,0,0,0,29.61,1.76c9.89-.22,19.79-.74,29.66-1.76s19.67-2.52,29.47-4.1l-1.66,2.1c-1.29-19.19-10-37.28-19.73-54a276,276,0,0,0-16.24-24.38,292.91,292.91,0,0,0-18.33-23"/><path class="cls-7" d="M3231,1467.05c11.54,11,21.06,24.06,29.52,37.64a262.66,262.66,0,0,1,21.09,43.15l.85,2.17-2.3.44a223.52,223.52,0,0,1-58,3.84c-19.3-1.55-38.78-5.39-56-14.39,17.86,7.37,37.09,10.33,56.15,11.2a242.55,242.55,0,0,0,28.66-.52c9.55-.79,19-2.32,28.41-4l-1.46,2.62a304.7,304.7,0,0,0-20-43c-7.86-13.74-16.59-27.07-27-39.13"/><path class="cls-7" d="M3111.33,1395a294.21,294.21,0,0,1,36.73,38.68c11.05,14,20.77,29.3,26.92,46.41l.81,2.25-2.41.32q-26.18,3.46-52.53,4.79c-17.56.81-35.14,1.13-52.69.31,17.53-.93,35-2,52.49-3.49q26.17-2,52.21-5.51l-1.59,2.57c-5.59-16.56-15.25-31.56-25.55-45.85a416,416,0,0,0-34.39-40.48"/><path class="cls-7" d="M3005.37,1381a263.11,263.11,0,0,1,39.28,22.86,132.52,132.52,0,0,1,17.72,14.53c5.38,5.43,10.68,11.4,13.29,19.26l.5,1.52-1.44.73c-7.71,3.84-15.8,5.47-23.85,6.9s-16.15,2.38-24.25,3.14a463.17,463.17,0,0,1-48.69,1.48c16.16-1.4,32.31-2.78,48.34-4.79,8-1,16-2.06,23.93-3.54s15.79-3.36,22.73-6.59l-.93,2.25c-2.08-6.7-7-12.61-12.1-17.89a178,178,0,0,0-16.91-14.74,395.69,395.69,0,0,0-37.62-25.12"/><path class="cls-9" d="M3449.1,1189.23S3404.76,1019.15,3290,993s-151.27-70.65-224.3-94.19-143.45,34-143.45,34,87.37,1.32,171.48,62.15S3335,1167.64,3449.1,1189.23"/><path class="cls-5" d="M3449.1,1189.23s-54-110.62-168.78-136.79-141.2-90.7-214.23-114.25-143.84-5.39-143.84-5.39,87.37,1.32,171.48,62.15S3335,1167.64,3449.1,1189.23"/><path class="cls-5" d="M3785.56,1675.91s36.51-74.56,101.72-117.74,113.46-33.36,151.28-54,133-41.54,177.36-27.15,119.57,15.69,149.77,103.35c-29.8-18.32-78,5.23-130.21,23.55s-113.66-18.32-159.85,0-87.93,62.8-137.49,65.42-152.58,6.53-152.58,6.53"/><path class="cls-9" d="M3633.63,1675.91s-5.87-100.08,78.25-149.13,164.31-84.39,197.57-141.3,142.8-84.38,248.43-37.28c-78.24-3.93-178,70.64-283.64,164.84s-240.61,162.87-240.61,162.87"/><path class="cls-5" d="M3633.63,1675.91s-5.87-100.08,78.25-149.13S3878.3,1490,3911.55,1433s140.7-131.94,246.33-84.84c-78.24-3.93-178,70.64-283.64,164.84s-240.61,162.87-240.61,162.87"/><path class="cls-9" d="M3561.74,1675.91s13.39-233,112.34-278.53,92.16-138.69,198.28-188.66,189.92-131.73,324.82-117.44c-120.67,40.23-154,96.69-204.48,164.19S3883,1355,3861.35,1381.33s-88.08,114.46-129.14,128.32-147.1,108.8-170.47,166.26"/><path class="cls-5" d="M3561.74,1675.91s43.12-201.14,142.07-246.7,85.79-137,191.91-187,166.56-165.22,301.46-150.93c-120.67,40.23-154,96.69-204.48,164.19S3883,1355,3861.35,1381.33s-88.08,114.46-129.14,128.32-147.1,108.8-170.47,166.26"/><path class="cls-9" d="M3417.81,1686.28s-95.86-125.35-208.66-112.17-88.67,85.27-198.23,55.59-281.68,77.61-297.33,161.34c96.51-75.88,164.32-89,310.38-68s307.77-52.54,393.84-36.73"/><path class="cls-5" d="M3417.81,1686.28s-91.4-68.8-204.19-55.62-90.58,60-200.13,30.29-284.25,46.36-299.9,130.09c96.51-75.88,164.32-89,310.38-68s307.77-52.54,393.84-36.73"/><path class="cls-6" d="M3448,1837.62s24-119.31-101.77-187c56-2.29,120.5,67.69,139.15,169.79,7.22,47-37.38,17.21-37.38,17.21"/><path class="cls-9" d="M3417.81,1403.79s-88.68-112.51-54.77-280,44.33-162.22,88.68-238.11,75.63-170.07,166.92-177.92,78.25-62.8,166.92-20.93c-46.95-2.62-138.23,41.21-138.23,107.93s-19.56,113.82-45,143.26-15.65,98.11-43,145.21-72.38,178.58-101.72,216.86-21.51,116.76-19.56,122.65-20.21-19-20.21-19"/><path class="cls-9" d="M3621.25,1356.64s-49.56-204-10.43-329.64,99.1-138.67,159.1-206.71S3879.46,781,3879.46,781s-33.9,47.1-39.12,177.93-60.83,226.73-143.45,295.68-75.64,102-75.64,102"/><path class="cls-9" d="M3404.77,1453.64S3342.17,1239,3217,1189.23s-133-28.78-221.7-34-195.62,36.63-245.18,75.88c130.42-39.25,266.05,23.24,352.12,73.11s302.55,149.43,302.55,149.43"/><path class="cls-5" d="M3404.77,1453.64s-93.9-142.21-219.09-191.92-114.39-90-203.06-95.22-183,25.35-232.52,64.6c130.42-39.25,266.05,23.24,352.12,73.11s302.55,149.43,302.55,149.43"/><path class="cls-5" d="M3601.91,1363.91c19.21-49.45,36.21-100.74,45.65-152.86,1.22-6.51,2.07-13,2.88-19.58,1-6.58,1.58-13.67,3-20.42a163.64,163.64,0,0,1,12.34-39.87c11.8-25.48,29.21-46,37.56-70.93,4.57-12.16,6.84-25.39,10.6-38.55,3.49-13.1,7.58-26,11.87-38.82A684,684,0,0,1,3756,907.71c11.66-24.34,24.9-48,41.09-69.66,16.17-21.37,35.64-41.42,60.35-52.43-24.38,11.73-43.06,32.13-58.5,53.79-15.44,21.89-27.9,45.76-38.78,70.23A677.09,677.09,0,0,0,3732.29,985c-3.88,12.82-7.56,25.71-10.64,38.71-1.69,6.49-2.9,13-4.4,19.56l-2.34,10.06-3,9.93c-8.26,26.77-25.73,48.85-35.74,72.57a151.09,151.09,0,0,0-10.4,37.37c-1.13,6.47-1.49,12.84-2.28,19.59s-1.35,13.69-2.41,20.44c-3.87,27.1-10.25,53.56-17.38,79.75-7.29,26.2-15.42,51.92-24.79,77.63Z"/><path class="cls-5" d="M3610.43,1089.62q9.57,33,19.94,65.59c3.59,10.83,7.07,21.68,11,32.37s8.11,21.35,13.72,30.85l-3.27-.64q14-10.07,28.24-19.76c9.55-6.38,19.06-12.83,28.93-18.73,19.59-12,39.69-23.28,60.8-32.32-10.24,5.16-20.11,11-29.88,17s-19.48,12-29,18.32c-19.12,12.58-38,25.55-56.38,39.21l-2,1.51-1.24-2.15c-5.89-10.27-9.86-21.06-13.75-31.86s-7.33-21.74-10.42-32.77q-9.49-33-16.59-66.61"/><path class="cls-5" d="M3656.17,984.85c1.77,22.81,4.75,45.49,8.38,68,3.86,22.47,8.37,44.85,15.17,66.54l-3.11-1.35a722.27,722.27,0,0,0,67.84-37.64c11-6.85,21.75-14,32-21.91s20.67-15.89,27.61-27c-6.28,11.52-16.37,20.34-26.15,28.83-10.07,8.29-20.67,15.9-31.48,23.17s-22,13.92-33.33,20.36-22.78,12.63-34.56,18.21l-2.37,1.13-.73-2.48a439.62,439.62,0,0,1-14.21-67.37,553.35,553.35,0,0,1-5.07-68.5"/><path class="cls-5" d="M3709.53,903a508.9,508.9,0,0,0,.38,59.24c1.57,19.59,4,39.28,10.45,57.68l-3.21-1.21a322.56,322.56,0,0,0,27.56-17.79q13.26-9.72,25.73-20.52t24.32-22.29c7.93-7.65,15.69-15.5,23-23.75a381.33,381.33,0,0,1-44.93,48.79,329.43,329.43,0,0,1-25.64,21.19,258.61,258.61,0,0,1-27.87,18.29L3717,1024l-.83-2.56c-6.28-19.17-8.92-39.12-9.58-59a357.25,357.25,0,0,1,3-59.42"/><path class="cls-5" d="M3758.32,843.36a165.06,165.06,0,0,0-3.27,32.38c.22,10.76,1.44,21.54,5.31,31.39l-2.4-1.36a101.8,101.8,0,0,0,19.32-6.35,192.72,192.72,0,0,0,18.53-9.25c12.25-6.51,24.05-13.93,35.89-21.38a260.45,260.45,0,0,1-34,24.71,189.06,189.06,0,0,1-18.69,9.88c-6.44,2.93-13.11,5.56-20.34,6.71l-1.81.27-.58-1.64a81.61,81.61,0,0,1-4.43-33.06,114.85,114.85,0,0,1,6.46-32.3"/><path class="cls-5" d="M3431.9,1429.58a39,39,0,0,1-5.18-6.43c-1.4-2-2.45-4-3.66-6.05a101.6,101.6,0,0,1-5.45-12.35,151,151,0,0,1-6.9-25.2,269.16,269.16,0,0,1-4.09-50.69c.14-33.67,4.85-66.77,11.28-99.29,6.66-32.39,13.8-64.9,26.44-96.08,6.22-15.52,13.88-30.34,20.75-45a248.79,248.79,0,0,0,16.45-45.44A695.69,695.69,0,0,1,3508.7,948a740.43,740.43,0,0,1,39.42-90.67c15.26-29.19,32.7-57.38,53.69-82.81,21-25.25,45.9-48,75.77-61.9-29.55,14.54-53.8,37.75-74.06,63.29-20.27,25.73-36.95,54.11-51.46,83.43a736.4,736.4,0,0,0-37.1,90.85,669.66,669.66,0,0,0-24.73,95,258.84,258.84,0,0,1-15.72,47.58c-6.63,15.27-13.66,29.89-19.23,45-11.19,30.19-17.51,62.39-23.47,94.41-5.64,32-9.52,64.45-9,96.58a253.71,253.71,0,0,0,4.79,47.36,135.63,135.63,0,0,0,6.53,22.15,85.36,85.36,0,0,0,4.69,10.08c1,1.47,1.82,3.09,2.8,4.43a31.33,31.33,0,0,0,2.5,3.17Z"/><path class="cls-5" d="M3386.85,1062.86q10,37.47,20.82,74.64c3.8,12.33,7.4,24.71,11.57,36.89s8.58,24.42,14.93,35.07l-3.29-.57c16.7-12.56,33.16-25.39,49.68-38.19l24.65-19.33c8.24-6.41,16.46-12.87,24.4-19.68-14.89,14.72-30.77,28.4-46.86,41.77s-32.59,26.22-49.11,39.07l-2,1.58-1.25-2.16c-6.78-11.63-10.83-24-15-36.24-4-12.32-7.71-24.73-11-37.26q-10-37.5-17.45-75.59"/><path class="cls-5" d="M3430.39,975.89c2.26,22.76,5.7,45.38,9.8,67.81,4.33,22.38,9.31,44.66,16.56,66.2l-3.13-1.29a718.12,718.12,0,0,0,67-39.06c10.83-7.07,21.46-14.49,31.55-22.58s20.33-16.32,27-27.56c-6,11.65-15.94,20.68-25.53,29.37-9.9,8.5-20.34,16.34-31,23.84S3501,1087,3489.8,1093.67s-22.5,13.11-34.16,18.93l-2.35,1.18-.77-2.46a437.92,437.92,0,0,1-15.62-67,552.75,552.75,0,0,1-6.51-68.38"/><path class="cls-5" d="M3482,893a506,506,0,0,0,1.63,59.22c2,19.56,4.81,39.19,11.64,57.45l-3.22-1.15a325.79,325.79,0,0,0,27.17-18.36q13-10,25.29-21.05t23.85-22.81c7.77-7.8,15.37-15.81,22.52-24.23A381.52,381.52,0,0,1,3547,971.75a330.23,330.23,0,0,1-25.2,21.73,257.5,257.5,0,0,1-27.48,18.87l-2.34,1.38-.89-2.53c-6.68-19-9.73-38.93-10.8-58.78A356.7,356.7,0,0,1,3482,893"/><path class="cls-5" d="M3529.55,832.28a165,165,0,0,0-2.58,32.44c.43,10.76,1.88,21.51,6,31.27l-2.41-1.31a100.65,100.65,0,0,0,19.17-6.76A194.15,194.15,0,0,0,3568,878.3c12.11-6.78,23.75-14.45,35.43-22.14A261.28,261.28,0,0,1,3570,881.58a185.64,185.64,0,0,1-18.48,10.27c-6.38,3.07-13,5.84-20.2,7.13l-1.79.33-.63-1.64a81.81,81.81,0,0,1-5.12-33,115.07,115.07,0,0,1,5.78-32.43"/><path class="cls-5" d="M3562.48,1357.84s87.29-88.65,111.55-29.73-77.6,195.15-244.92,223.13-133.36,118-133.36,118-80.84-58.38-2.84-211.63,216.22-163,269.57-99.75"/><path class="cls-7" d="M3564.4,1362.43a27.69,27.69,0,0,0-10.07.58,67.07,67.07,0,0,0-11.07,3.4,129.87,129.87,0,0,0-21,11.37c-13.51,8.87-25.84,19.74-37.48,31.25-6,5.61-11.35,11.8-17.13,17.72a182.81,182.81,0,0,1-18.43,17.22c-13.09,10.55-27.5,19.19-42.26,26.76-29.33,15.26-61,26.64-85.3,49.1a117.22,117.22,0,0,0-28.32,39.88c-6.65,15.1-10.68,31.31-13,47.69,1.93-16.43,5.59-32.76,11.93-48.15a119.13,119.13,0,0,1,27.81-41.11c24.25-23.45,56.09-35.72,84.71-51.5,14.44-7.83,28.32-16.62,40.76-27.13,12.48-10.35,22.55-23.36,34.34-35.38,11.59-12,23.93-23.4,37.87-33a137,137,0,0,1,22.24-12.64,75,75,0,0,1,12.49-4.15c4.53-1,8.5-1.8,14.48-.69Z"/><path class="cls-7" d="M3283.37,1500.06c6.22-3.39,13-5.56,19.8-7.58a189,189,0,0,1,20.83-4.28,240.22,240.22,0,0,1,42.47-1.91l3.18.1-1.18,3c-5.43,13.71-10.4,27.58-15.21,41.54s-9.34,28-13.47,42.2c2.22-14.66,6-29.05,10.06-43.3s9.12-28.23,14.39-42.1l2,3.11c-7-.34-13.95-.54-20.94-.39s-13.94.61-20.9,1.19c-13.87,1.4-27.78,3.63-41,8.42"/><path class="cls-7" d="M3329.68,1426.91a519.9,519.9,0,0,1,64.11-4.14,315.59,315.59,0,0,1,32.21,1.58c10.7,1.18,21.54,2.55,31.89,6.66l1.51.6-.11,1.59c-.61,9.13-1.45,18.25-2.76,27.3a212.52,212.52,0,0,1-5.6,26.89,173,173,0,0,1-9.12,25.87c-3.92,8.24-8.34,16.37-14.35,23.22,5.47-7.27,9.21-15.62,12.46-24a190.41,190.41,0,0,0,7.8-25.89c2.08-8.78,3.46-17.71,4.79-26.63,1.17-8.94,1.87-18,2.35-27l1.41,2.19c-9.69-3.57-20.24-5.34-30.72-6.57s-21.17-1.79-31.82-2.1c-21.29-.69-42.67-.39-64.05.42"/><path class="cls-7" d="M3414.6,1348.9c9-1.05,18.2,0,27.24.94a243.22,243.22,0,0,1,26.91,4.88c17.84,4,35.07,10.43,51.73,18l.69.31.34.7a169.5,169.5,0,0,1,11.75,30.41,160.41,160.41,0,0,1,5.8,32.07c1.54,21.65-.88,43.74-8.68,63.86a139.44,139.44,0,0,0,5.5-31.61,161.24,161.24,0,0,0-.54-31.91,165.52,165.52,0,0,0-6.19-31.21c-2.83-10.25-7.22-19.95-11.6-29.61l1,1a311.71,311.71,0,0,0-50.65-18.8c-8.68-2.49-17.52-4.41-26.41-6.07s-17.89-3.33-26.93-3"/><path class="cls-7" d="M3551.49,1355.4a125.09,125.09,0,0,1,28,12.19,100.57,100.57,0,0,1,23.74,19,67.71,67.71,0,0,1,14.69,26.41c3.25,9.72,2.58,20.07,1.64,30,.56-10,.82-20.24-2.74-29.66a66.07,66.07,0,0,0-15.26-25.19,97.94,97.94,0,0,0-23.74-17.54,121.62,121.62,0,0,0-27.4-10.73Z"/><path class="cls-6" d="M3780.81,1675.91c19.45-16.2,39.18-32.2,60.15-46.54,10.47-7.18,21.12-14.14,32.31-20.35s23.21-11,35.19-15.25a294.93,294.93,0,0,1,36.91-10.17c12.46-2.67,24.88-4.79,36.87-8.11a228.52,228.52,0,0,0,35.05-12.84c11.68-5.47,24.08-9.29,36.38-12.51,49.49-12.29,100.38-17.48,151.15-16.76,25.37.52,50.79,2.41,75.73,7.28s49.5,12.33,71.65,24.68c-22.59-11.52-47.29-17.92-72.12-21.91a485.21,485.21,0,0,0-75.29-5.37,682.78,682.78,0,0,0-75.36,4.78,538,538,0,0,0-74.13,13.57c-12.11,3.28-24,7-35.2,12.37A204.14,204.14,0,0,1,3984,1582c-12.42,3.32-25,5.34-37.29,7.87a289.53,289.53,0,0,0-36.27,9.64c-11.84,4.14-23.57,8.6-34.65,14.26s-21.94,12.24-32.56,19c-21.14,13.76-42.12,28-62.38,43.16"/><path class="cls-6" d="M3945.48,1535.69c-8.24,5.32-16.13,11.13-23.78,17.23a278.93,278.93,0,0,0-22.14,19.16c-13.82,13.52-27,28.61-33.38,46.77l-1-2.46c9,4.14,18.08,8.21,27.32,11.83s18.64,6.78,28.11,9.64a183.85,183.85,0,0,0,29,6.24c9.75,1.18,19.94,2,29.47-1.13-9.34,3.73-19.72,3.63-29.66,3.07a182.28,182.28,0,0,1-29.61-5.2,270,270,0,0,1-28.61-9.22c-9.37-3.55-18.56-7.51-27.7-11.61l-1.65-.75.61-1.72a95.83,95.83,0,0,1,14.79-26,160.26,160.26,0,0,1,20.28-21.68,262.26,262.26,0,0,1,48-34.15"/><path class="cls-6" d="M4015.62,1521.36c-13.24,8.84-25.2,19.35-36.43,30.48a308.05,308.05,0,0,0-30.7,36.12l-.7-2.9c8.64,4.13,17.34,8.13,26.31,11.44a244.26,244.26,0,0,0,27.49,8.18c18.6,4.27,37.93,6.56,57.1,4.26-19,4.06-38.77,2.53-57.77-1.13a224.72,224.72,0,0,1-54.88-19.24l-2.09-1,1.39-1.86a261.89,261.89,0,0,1,31.81-35.93c11.77-10.82,24.4-20.83,38.47-28.37"/><path class="cls-6" d="M4150.12,1484a414.47,414.47,0,0,0-43.91,29.79c-13.72,11-27,22.89-36.82,37.35l-.85-2.9q24.14,10.32,48.85,19.3c16.42,6.11,33,11.83,49.66,17.42-17.14-3.92-34-8.94-50.7-14.41s-33.16-11.79-49.35-18.7l-2.23-.94,1.37-2c10.48-14.84,23.93-27,38.29-37.52a293.6,293.6,0,0,1,45.69-27.43"/><path class="cls-6" d="M4256,1498.9A392.81,392.81,0,0,0,4213,1513a174.49,174.49,0,0,0-20.21,9.68c-6.36,3.71-12.64,8.09-16.42,14l-.31-2.43c5.84,5,13,8.86,20.16,12.44s14.64,6.75,22.11,9.81c14.92,6.25,30.12,11.89,45.33,17.57a458.62,458.62,0,0,1-46.54-14.47q-11.41-4.35-22.54-9.52c-7.37-3.53-14.73-7.26-21.14-13l-1.2-1.09.89-1.33c4.6-6.87,11.3-11.22,17.93-15a134.89,134.89,0,0,1,20.94-9.26,263.33,263.33,0,0,1,43.94-11.5"/><path class="cls-9" d="M3590,1732.17s20.86-70.65,87.37-36.62,79.54,194.93-33.91,312.67c-5.22-60.18-14.34-90.27-65.2-147.83S3543,1742.64,3590,1732.17"/><path class="cls-5" d="M3591.05,1728.33a97.76,97.76,0,0,1,34.23,16.18c10.14,7.59,18.69,17.67,23.7,29.46s6.54,24.76,5.49,37.27a124.54,124.54,0,0,0,1.57,36.26c4.32,23.94,15.69,46.78,16.69,71.89a86.33,86.33,0,0,1-6.55,36.34,146.89,146.89,0,0,1-18.68,31.81,145.92,145.92,0,0,0,17.88-32.12,84.85,84.85,0,0,0,5.64-35.94c-1.51-24.58-13.3-46.9-18.33-71.3a128.06,128.06,0,0,1-2.47-37.25c.81-12-.84-24.16-5.7-35-9.69-21.89-32-36.17-54.68-41.62Z"/><path class="cls-5" d="M3698.17,1930.12c-3.58-8-8.78-15.15-14.38-21.8a158.11,158.11,0,0,0-18.65-18.22l2.29-.53c-8.64,19-18.17,37.79-30.28,54.87q14.71-27.68,27.59-56.08l.82-1.8,1.47,1.28a126.26,126.26,0,0,1,18.46,19.09c5.34,7,10.14,14.7,12.68,23.19"/><path class="cls-5" d="M3712.6,1872.27c-9.25-9.56-18.83-18.79-28.81-27.49-5-4.31-10.09-8.57-15.47-12.36s-11-7.37-17-9.43l1.63-.45c-4.12,4.85-8.12,9.8-11.91,14.92s-7.34,10.41-10.67,15.82a144.6,144.6,0,0,0-9.07,16.8,73.25,73.25,0,0,0-6.18,18.07c.62-6.41,2.59-12.62,4.84-18.65a142.18,142.18,0,0,1,8.41-17.4,217.65,217.65,0,0,1,22.27-31.53l.66-.79,1,.34c6.58,2.29,12.21,6.12,17.65,10a161,161,0,0,1,15.42,12.85,286.33,286.33,0,0,1,27.24,29.26"/><path class="cls-5" d="M3706.55,1801.68c-4-4.09-8.92-7-13.72-10s-9.81-5.67-14.95-8.05a179.3,179.3,0,0,0-31.81-11.48l.92-.07c-13.65,6.29-26.63,14.24-37.74,24.49a133.06,133.06,0,0,0-15.66,16.35,114.55,114.55,0,0,0-12.85,18.77c6.21-14,15.72-26.4,26.78-37a132.83,132.83,0,0,1,18.07-14.26,126.64,126.64,0,0,1,20.26-11l.45-.21.47.13a152.19,152.19,0,0,1,32,12.41,128.86,128.86,0,0,1,14.71,8.85c4.6,3.36,9.38,6.68,13,11.08"/><path class="cls-5" d="M3703.81,1736.52c-12-10.84-28.39-15.48-44.11-15.43-15.92-.09-31.46,4.83-45.66,11.81a78.45,78.45,0,0,0-19.66,13.1,81.43,81.43,0,0,0-15.63,17.75,91.09,91.09,0,0,0-15.21,44.8,82.6,82.6,0,0,1,13-46.25,84.85,84.85,0,0,1,15.86-18.56c6-5.64,13.1-9.85,20.41-13.35,14.54-7.07,30.59-11.9,46.93-11.27,16.14.24,32.64,6,44.08,17.4"/><path class="cls-10" d="M-261.25,1910.52l4905.67-450.68,209,1151.33-4995.2,75.61Z"/><path class="cls-10" d="M-261.25,1910.52l4905.67-450.68,209,1151.33-4995.2,75.61Z"/><path class="cls-11" d="M3222,1613.67c-6.82,73.17,91.78,151.59,151.09,175.39,20,8,43.44,15.58,62,26.57.37.21,5.54,2.9,6,2.5,6.53-6-41.32-139.87-41.32-139.87s14.38,13.73,19.06,17.2c12.1,9,24.55,18,38.79,22.28,64.5,19.52,138.1,37.44,206,29,25-3.1,48.51,5.6,73.18,2.14.74-.11,7.93-.52,7.77-2.53-.91-11-49.61-36.18-58.72-43.17-27.09-20.81-122.6-92.32-137.27-129-1.29-3.24,6.72,1.87,10,3.06a219.76,219.76,0,0,0,21.63,6.24,269,269,0,0,0,64.84,7.83c72.29.16,180.26,43.8,248.43,18.06,8-3-13.42-14.63-14.65-15.18-10-4.52-19.77-9.26-29.87-13.48-31.45-13.17-63.88-30.64-98.8-30.74"/><path class="cls-12" d="M3149.64,1626.4c-52.17,1-112.86,101-134.28,139.93-6.44,11.7-11.76,24.13-17.65,36.11-2.14,4.32-10.84,10.51-6.63,12.84,4.65,2.59,99.62-17.33,107.82-19.72,64.39-18.78,271.19-116.09,282-195"/><path class="cls-13" d="M-111.43,1948.28,4693.21,1496l10.51-50-4855,444.26Z"/><path class="cls-14" d="M3488.58,1796.84l861.77,192.74,108.07-94.41,96.7-50.28L4166.2,1761.2Z"/><path class="cls-15" d="M3488.58,1796.84,4426,2069.91l55.15-172.66,183.64-37.54L4166.2,1761.2Z"/><path class="cls-16" d="M2334.09,1951.43l-627.46,53.69s-13.78-9.62-27.78-19.36a41,41,0,0,1-13.15-52c32.19-64.11,101.94-203.07,101.94-203.07l544.88-38.34s-60.08,127.64-86.59,183.93a25.74,25.74,0,0,0,15,35.37l82.82,28Z"/><path class="cls-17" d="M2274,1774.16l-603.89,171.15a71.46,71.46,0,0,1,7.57-35.42c34.84-69.42,89.94-179.17,89.94-179.17l544.88-38.34Z"/><path class="cls-18" d="M1786.69,1739.92l-94.36,196.64a14.76,14.76,0,0,1-1.32,2.32,62.4,62.4,0,0,0-7.46,19.09c-1,5.23-1.55,11.25,1.47,16.62,3.68,6.56,11.74,11.16,25.13,14.44l603.55-51.4a21.22,21.22,0,0,1,3.56,42.3l-606.8,51.68a21.09,21.09,0,0,1-6.29-.39c-31.64-6.89-47.75-21.12-56-35.75-8.36-14.86-9-31.34-6.13-45.82a108.93,108.93,0,0,1,12.62-32.47s93.9-195.68,93.9-195.68a21.17,21.17,0,1,1,38.13,18.42Z"/><path class="cls-18" d="M659.62,539.42c-6.21-29.35,39.84-88.58,69.76-91.14L2738.86,308.87c29.92-2.56,75.7,31.25,81.92,60.6l272,1256.69c6.21,29.35-46.14,75.62-76.07,78.18L1036.82,1885.61c-13.1,1.12-31.26,1.78-54.26-6.81-24.72-9.21-42.57-25.42-46.06-41.94Z"/><path class="cls-19" d="M695.64,499.69c-6.18-29.15,13.09-54.9,43-57.46L2756.31,269.59c29.92-2.56,59.22,19,65.4,48.18L3093,1598.07c6.18,29.17-13.09,54.91-43,57.47L1032.29,1828.18c-29.91,2.56-59.21-19-65.39-48.19Z"/><path class="cls-20" d="M2645.88,584.75c-4.76-22.61-27.14-39.49-49.91-37.66l-1461,117c-22.78,1.82-37.39,21.66-32.63,44.27l161.19,764.84c4.76,22.61,27.11,39.49,49.89,37.66l1461-117c22.77-1.83,37.41-21.67,32.64-44.27Z"/><path class="cls-21" d="M2267.72,1231l-325.85,26.08L1975,1414.45l325.84-26.09Zm-679.64,54.41-325.86,26.08,33.15,157.33,325.86-26.09Zm339.82-27.21L1602,1284.33l33.16,157.32,325.85-26.08Zm805.45-64.48-451.66,36.16,33.16,157.32,451.65-36.15Zm-502.17-136.11-325.85,26.08,33.16,157.33L2264.33,1215Zm-679.65,54.41-325.85,26.08,33.15,157.33,325.86-26.09Zm339.82-27.21-325.85,26.09,33.16,157.32,325.85-26.08Zm805.46-64.48-451.66,36.16,33.16,157.32L2730,1177.7ZM2194.64,884.26l-325.85,26.08L1902,1067.67l325.84-26.09ZM1515,938.67l-325.85,26.08,33.15,157.33L1548.15,1096Zm339.82-27.21L1529,937.55l33.16,157.32L1888,1068.79ZM2660.27,847l-451.66,36.16,33.16,157.32,451.65-36.15ZM1478.45,765.27,1152.6,791.36l33.15,157.33,325.86-26.09Zm679.65-54.4L1832.25,737l33.15,157.33,325.85-26.09Zm-339.83,27.2-325.85,26.09,33.16,157.32,325.85-26.08Zm805.46-64.48-451.66,36.16,33.16,157.32,451.65-36.16Z"/><path class="cls-21" d="M2610.81,609.72c-2-9.34-11.26-16.31-20.63-15.56l-1436.31,115c-9.43.76-15.46,9-13.49,18.3l7.14,33.86c2,9.35,11.19,16.32,20.63,15.57l1436.3-115c9.37-.75,15.47-9,13.5-18.3Z"/><path class="cls-22" d="M1265.71,1447l462-374.16,188.1,181.59,257.54-392.23,260.88,173.29,698.18-469.64-34.93-50.63L3092,486.68l252.35-21.75,6.06,27.13L3236.64,714l-44.26-62.1-740.59,444.2L2183.11,936.85l-269.87,369.86L1728,1104.7,1270.14,1467Z"/><path class="cls-23" d="M1259.77,1418.74l462-374.17,188.09,181.6,257.55-392.23,260.88,173.29,698.18-469.64L3091.51,487l253-23.13L3230.7,685.72l-44.26-62.1-740.6,444.21L2177.17,908.62,1907.3,1278.48l-185.28-202-457.82,362.3Z"/><ellipse class="cls-24" cx="1259.42" cy="1457.61" rx="28.25" ry="28.34"/><ellipse class="cls-24" cx="1731.63" cy="1093.75" rx="28.25" ry="28.34"/><ellipse class="cls-24" cx="1921.36" cy="1280.72" rx="28.25" ry="28.34"/><ellipse class="cls-24" cx="2177.35" cy="899.65" rx="36.79" ry="36.91"/><ellipse class="cls-24" cx="2446.97" cy="1061.78" rx="40.23" ry="40.36"/><path class="cls-25" d="M1294.23,394.7,738.64,442.24c-29.91,2.56-49.13,28.51-42.9,57.92l28.4,134q78.47,54.72,156.22,110.41c451.76,323.43,882,669.73,1353.34,965.46q19.23,12.07,38.85,24.84l780.08-66.75c29.91-2.56,49.14-28.51,42.9-57.92l-16.76-79.11c-129.32-83.71-249.89-169.94-298.4-202.17C2293,1005.05,1806.49,677.52,1294.23,394.7Zm347.89-29.77c121.79,57,239.2,123.65,359.76,183.11,330.52,163,658.53,333.46,978.17,517.11l-63.37-299.09q-9-5.91-17.95-11.78c-113.39-74.23-229.07-145-344.77-215.51-86.37-52.63-175-102.44-262.42-153.46-38.61-22.54-77.51-44.41-116.57-66Z"/><path class="cls-16" d="M924.34,1628.62l34.17,161.28c6.24,29.42,35.7,51.22,65.75,48.65l2027.05-173.44c30.05-2.58,49.39-28.55,43.15-58l-34.17-161.28Z"/><ellipse class="cls-26" cx="1163.35" cy="1706.27" rx="46.35" ry="54.37" transform="translate(-754.73 940.94) rotate(-33.96)"/><path class="cls-27" d="M3516.26,209.8q35.07-7.86,61.89-2.84c39,5,108,35.89,108,35.89s-9.19,27.85-13,39.48l-82.17,34q-12.83-24.1-24.47-32.83a43.48,43.48,0,0,0-23.47-8.65l45.13,109.73q60.46-3.94,87.24,1.9c36.26,8.12,39.23,55.59,76.56,66.13,39.52,11.16,28.81,63.76-15.29,127.29q-19.74,25-50,44.2L3730,656.55l-13.65,39.7-78.24,32.39-29.34-71.33Q3561,669,3530.54,664.57q-66.79-10.37-98-89l15.75-38.35,68.61,3.43q19,33.77,31.82,42.68t33.08,8.35l-49.71-120.87-3.16.41q-66.18,8.89-102.32-9.2t-52.52-57.91q-10.8-26.26-10.1-51.67a118,118,0,0,1,11.5-48.05q13.93-29.24,38-48.11a186.74,186.74,0,0,1,23.94-15.67L3414,183.73l15.55-39.06,62.7,6.67Zm104.61,254.34,38.91,94.59a50.45,50.45,0,0,0,7.9-8.76q14.33-21.13,1.21-53.05-10-24.29-34.23-30.78A77.82,77.82,0,0,0,3620.87,464.14ZM3463.71,304.67A47.12,47.12,0,0,0,3450,322q-8,18,1,39.75,9.77,23.72,35.13,29.41a74.72,74.72,0,0,0,13.84,1.53Z"/><path class="cls-28" d="M3530.45,170.73q35.07-7.84,61.89-2.84,65.23,8.37,95,75.37l-82.17,34q-12.83-24.1-24.47-32.83a43.45,43.45,0,0,0-23.46-8.65l45.13,109.73q60.45-3.94,87.23,1.9,54.39,12.18,76.57,66.13,29.26,71.16-15.3,127.29-19.74,25-50,44.2l29.68,72.15-78.25,32.38L3623,618.24q-47.73,11.75-78.22,7.26-66.78-10.35-98-89l84.36-34.92q19,33.76,31.81,42.68t33.09,8.35l-49.72-120.87-3.16.41q-66.18,8.9-102.32-9.2t-52.52-57.91q-10.8-26.26-10.1-51.67a118,118,0,0,1,11.5-48q13.93-29.24,38-48.11a188.54,188.54,0,0,1,23.94-15.67l-23.41-56.91,78.25-32.39Zm104.62,254.34,38.9,94.6a50,50,0,0,0,7.9-8.77q14.34-21.13,1.21-53-10-24.28-34.23-30.78A77.55,77.55,0,0,0,3635.07,425.07ZM3477.91,265.6a47.13,47.13,0,0,0-13.76,17.32q-7.93,18,1,39.75,9.75,23.71,35.13,29.41a75.3,75.3,0,0,0,13.83,1.54Z"/><path class="cls-29" d="M3723.23,360.78q28.38,17.42,42.91,52.77,29.27,71.18-15.29,127.29-19.76,25-50,44.2l29.68,72.15-78.25,32.39-29.34-71.33a316.53,316.53,0,0,1-37.12,7c5.27-9.55,10.35-19.2,15.14-29,18.81-38.66,37-78.22,56.28-117.22L3674,519.67a50.76,50.76,0,0,0,7.89-8.77q14.34-21.13,1.22-53a57.83,57.83,0,0,0-8-13.93C3690,415.46,3705.77,387.55,3723.23,360.78ZM3498.17,515.22c-11.1,19-22.1,38-33.2,57a197,197,0,0,1-18.27-35.69Zm87.1-211.2,17.07,41.5,7.38-.45c-16.58,21.74-32.62,43.87-47.74,66.62q-7.47,11.24-14.71,22.59l-1-2.51-3.15.41q-29.28,3.94-52.7,2.59C3520.52,389.67,3552.78,345.59,3585.27,304Zm-57.56-139.94,2.73,6.66q35.08-7.86,61.89-2.84a120.66,120.66,0,0,1,29.09,7.31q-3.74,5.28-7.57,10.5-20,27.25-39.31,54.86a44.36,44.36,0,0,0-17.33-4.77l7.68,18.66q-29.08,42.07-56.6,85L3477.9,265.6a47.29,47.29,0,0,0-13.76,17.33q-7.93,18,1,39.74,9.75,23.71,35.13,29.41-23.89,37.73-46.58,76.2a94.56,94.56,0,0,1-12.92-5.3q-36.15-18.08-52.52-57.9c-1-2.47-2-4.92-2.81-7.37A1798.68,1798.68,0,0,1,3527.71,164.08Zm137.1,42.5a150.73,150.73,0,0,1,22.51,36.68l-80.2,33.2q15.11-18.79,30.13-36.72C3646.37,228.84,3655.54,217.73,3664.81,206.58Z"/><path class="cls-30" d="M3582.37,172.06s39.87-7.17,43.47-76.54c0,0,.88,76.48,41.82,71.42,0,0-39.35,10.88-42.12,72.38C3625.54,239.32,3616,168.93,3582.37,172.06Z"/><path class="cls-30" d="M3638.07,110.81s20.59-3.71,22.45-39.53c0,0,.45,39.49,21.59,36.88,0,0-20.32,5.62-21.75,37.37C3660.36,145.53,3655.46,109.19,3638.07,110.81Z"/><path class="cls-30" d="M3428.47,539.48s21.13-3.8,23-40.57c0,0,.47,40.54,22.17,37.86,0,0-20.86,5.76-22.33,38.36C3451.35,575.13,3446.32,537.82,3428.47,539.48Z"/><path class="cls-31" d="M3506,2170.49c-4.24-2.36-6.87-6.82-6.57-11.17s3.41-27.65,7.9-28.31c166.55-24.41,1000-126.59,1064.82-136.09a12.41,12.41,0,0,1,7.77,1.51l347.7,193.38c4.24,2.36,6.87,6.82,6.57,11.17a9,9,0,0,1-8,8.34L3861.46,2365.38a12.35,12.35,0,0,1-7.77-1.51Z"/><path class="cls-32" d="M3510.29,2143.39c-4.24-2.36-6.88-6.82-6.57-11.17a8.93,8.93,0,0,1,8-8.33l1064.76-156.07a12.33,12.33,0,0,1,7.76,1.51l347.7,193.38c4.24,2.36,6.88,6.82,6.57,11.17a9,9,0,0,1-8,8.34L3865.76,2338.28a12.35,12.35,0,0,1-7.77-1.51Z"/><path class="cls-33" d="M3504.87,2128.32a13.18,13.18,0,0,0,5.91,6.76c81,45,315,175.2,347.68,193.35a12.3,12.3,0,0,0,7.81,1.53L4931,2173.9a9.27,9.27,0,0,0,6.78-4.43,10.84,10.84,0,0,1,.68,4.42,9,9,0,0,1-8,8.33L3865.74,2338.29a12.32,12.32,0,0,1-7.8-1.54c-32.67-18.15-266.67-148.32-347.66-193.35-4.26-2.39-6.91-6.85-6.61-11.2A8.79,8.79,0,0,1,3504.87,2128.32Z"/><path class="cls-34" d="M3724.19,2098l288.57-42.29a535.61,535.61,0,0,1,139.76,61.94l13.66,4.41c16.16,3,31.11,21,40.93,33.32,12.25,15.37,30,35.4,30.45,54.79.47,22.81-25.59,42-43.32,51.78-102.44,56.62-258.9,18.26-368.61-42.49-37.85-21-92.05-52-101.24-96.32C3722.4,2113.62,3722.49,2105.3,3724.19,2098Z"/><path class="cls-35" d="M4234.25,2155.9c22.88-37.62-45.58-95.62-84.84-118-72.94-41.45-153.58-57.15-231.21-58.33-36.77-.57-82.5,6.71-114.91,20.19-17,7.07-30.79,16.55-44.42,28-7.8,6.53-12.77,15.14-19.18,22.89-24.86,30,17.18,79.85,26.67,86.8,33.64,24.63,70.95,47.74,110.25,61.42,94.08,32.73,182.22,37.66,271.65,14.68C4182.54,2204.81,4210.07,2195.66,4234.25,2155.9Z"/><path class="cls-36" d="M3870.8,1982.65c18.86,11.95,49.89,32.4,30.51,50.95a57.92,57.92,0,0,1-11.49,8,68.93,68.93,0,0,1-17.93,6.63c-30,6.75-65.25,7-97,6.24-11.13-.27-23.7-2.91-35.48-3.47-24.3,30,17.48,79.6,26.93,86.52,33.64,24.63,70.95,47.74,110.25,61.42,94.08,32.73,182.22,37.66,271.65,14.68,34.28-8.79,61.81-17.94,86-57.7a31.53,31.53,0,0,0,4.47-19.33c-.82.85-1.6,1.68-2.46,2.5-18.31,18-44.05,30.21-70.86,35.23-48.44,9-100.83,8-151.73,1.07-51.4-6.95-107.32-11.51-156.39-36-20.36-10.18-43.53-27.89-27.29-47.06,2.43-2.89,6.74-4.76,10.1-6.54,8.71-4.65,20.51-7.22,30.18-10.21,16.74-5.19,33.44-14.53,47.24-24.11,8.69-6,22-14.79,24.84-25.68,2.09-8-6.46-13.41-12.76-17.43-17-10.87-37.23-19.32-56.28-26l-1,.14Z"/><path class="cls-37" d="M4043.46,2004.4c16.72,2.39,32.9,9.2,49.06,14.84,25.66,9,51.35,19.36,73.28,36.65,17,13.38,38.83,40.22,9.7,46.66a56.39,56.39,0,0,1-13.36,1.68c-12.9-.33-26.62-5.82-39.11-10-35.73-12.1-71.9-30-103.17-52.22-7.41-5.27-15.83-12.41-20.38-20.17-11.36-19.47,19.81-23.23,31.46-21"/><path class="cls-37" d="M3859.9,1997.28c8.82-2.77,20.79,2.31,27.08,10.15,4.57,5.68,5.29,13.56-2.38,15-11.28,2.08-27.71-2.65-38.57-8.16-10.28-5.18-4.2-12.81,3.29-15.24,3.4-1.13,6.88-2,10.38-2.87"/><path class="cls-36" d="M3933.71,1991.79c9.3-.91,20.91,11,24.59,18.86,2.13,4.56.07,11.06-5.57,11-1.21,0-3.8-11.43-4.63-13.14-1.18-2.36-4.34-7.46-6.76-9s-6.18-2.43-8-4.64"/><path class="cls-38" d="M1019,2110.52a12.55,12.55,0,0,0,5,.49l1692.18-165a9.93,9.93,0,0,0,1.77-19.41L2657.13,1909a9.71,9.71,0,0,0-3.67-.35L967,2068.86a12.78,12.78,0,0,0-2.52,24.93Z"/><path class="cls-39" d="M1605.49,2384.16l1807.58-165.72c13.16-1.14,14.07-25.52,6.7-29.59l-358.26-198.2c-7.3-4-23.78-6.39-36.81-5.27L1222.41,2141.09c-13,1.12-10.42,26.34-3.12,30.37l349,207.39C1575.7,2382.92,1592.34,2385.29,1605.49,2384.16Z"/><path class="cls-18" d="M1638.4,2362.5,3446,2196.78c13.15-1.15,14.07-25.53,6.69-29.6L3094.43,1969c-7.3-4-23.78-6.39-36.81-5.27L1255.33,2119.43c-13,1.11-10.42,26.33-3.12,30.36l349,207.39C1608.62,2361.25,1625.26,2363.62,1638.4,2362.5Z"/><path class="cls-40" d="M1640.38,2332.27l1801.83-155.65c13.16-1.15,17.85-5.37,10.47-9.44L3094.43,1969c-7.3-4-23.78-6.39-36.81-5.27L1255.33,2119.43c-13,1.11-17.68,5.3-10.37,9.33L1603.23,2327C1610.6,2331,1627.24,2333.4,1640.38,2332.27Z"/><path class="cls-41" d="M3001.51,2017.43l68.14-5.89c6.64-.57,9-2.7,5.29-4.76l-22-12.17c-3.72-2-12.1-3.25-18.73-2.68l-68.15,5.88c-6.62.58-9,2.71-5.27,4.76l22,12.17c3.71,2.06,12.1,3.26,18.73,2.69"/><path class="cls-41" d="M2881.36,2027.82l68.15-5.88c6.63-.58,9-2.71,5.28-4.76l-22-12.17c-3.71-2.06-12.1-3.26-18.73-2.69l-68.14,5.89c-6.64.57-9,2.7-5.28,4.76l22,12.17c3.71,2,12.09,3.25,18.72,2.68"/><path class="cls-41" d="M2761.2,2038.19l68.15-5.88c6.63-.57,9-2.71,5.28-4.76l-22-12.17c-3.71-2.06-12.09-3.26-18.72-2.68l-68.15,5.88c-6.62.57-9,2.71-5.28,4.76l22,12.17c3.72,2.06,12.1,3.26,18.73,2.68"/><path class="cls-41" d="M2641,2048.57l68.14-5.89c6.64-.57,9-2.7,5.29-4.76l-22-12.17c-3.72-2-12.1-3.25-18.73-2.68l-68.15,5.88c-6.62.58-9,2.71-5.28,4.76l22,12.17c3.71,2.06,12.1,3.26,18.73,2.69"/><path class="cls-41" d="M2520.88,2059l68.14-5.88c6.64-.58,9-2.71,5.29-4.76l-22-12.18c-3.71-2.05-12.09-3.25-18.72-2.68l-68.15,5.89c-6.62.57-9,2.7-5.28,4.76l22,12.17c3.71,2,12.1,3.26,18.73,2.68"/><path class="cls-41" d="M2400.74,2069.33l68.14-5.88c6.63-.57,9-2.71,5.28-4.76l-22-12.17c-3.71-2.06-12.1-3.26-18.72-2.68l-68.15,5.88c-6.63.57-9,2.71-5.28,4.76l22,12.17c3.71,2.06,12.09,3.26,18.73,2.68"/><path class="cls-41" d="M2280.58,2079.73l68.14-5.89c6.63-.57,9-2.7,5.29-4.75l-22-12.18c-3.71-2-12.1-3.25-18.72-2.68l-68.15,5.89c-6.63.57-9,2.7-5.28,4.75l22,12.18c3.71,2,12.09,3.25,18.73,2.68"/><path class="cls-41" d="M2160.41,2090.1l68.15-5.88c6.63-.58,9-2.71,5.28-4.76l-22-12.18c-3.71-2.05-12.1-3.25-18.73-2.68l-68.14,5.89c-6.64.57-9,2.7-5.29,4.76l22,12.17c3.72,2,12.11,3.26,18.73,2.68"/><path class="cls-41" d="M2040.27,2100.47l68.15-5.88c6.63-.57,9-2.71,5.28-4.76l-22-12.17c-3.71-2.06-12.09-3.26-18.72-2.68l-68.15,5.88c-6.62.57-9,2.71-5.28,4.76l22,12.17c3.72,2.06,12.11,3.26,18.73,2.68"/><path class="cls-41" d="M1920.11,2110.87l68.15-5.89c6.63-.57,9-2.7,5.28-4.75l-22-12.18c-3.71-2.05-12.09-3.25-18.72-2.68l-68.15,5.89c-6.62.57-9,2.7-5.28,4.75l22,12.18c3.72,2,12.11,3.25,18.73,2.68"/><path class="cls-41" d="M1800,2121.24l68.15-5.88c6.63-.58,9-2.71,5.28-4.76l-22-12.18c-3.72-2.05-12.1-3.25-18.73-2.68l-68.15,5.89c-6.62.57-9,2.7-5.28,4.76l22,12.17c3.71,2.05,12.1,3.25,18.73,2.68"/><path class="cls-41" d="M1679.79,2131.62l68.15-5.89c6.62-.57,9-2.7,5.27-4.76l-22-12.17c-3.71-2.06-12.1-3.26-18.74-2.68l-68.14,5.88c-6.63.58-9,2.71-5.29,4.76l22,12.17c3.71,2.06,12.1,3.26,18.73,2.69"/><path class="cls-41" d="M1532.09,2144.37l95.7-8.25c6.63-.57,9-2.7,5.27-4.75l-22-12.18c-3.71-2.05-12.1-3.25-18.72-2.68l-95.72,8.25c-6.62.57-9,2.7-5.27,4.75l22,12.17c3.71,2.06,12.1,3.26,18.73,2.69"/><path class="cls-41" d="M1383.82,2157.19l96.25-8.34c6.63-.57,9-2.7,5.28-4.75l-22-12.18c-3.7-2.05-12.09-3.25-18.71-2.68l-96.26,8.34c-6.62.57-9,2.7-5.27,4.76l22,12.17c3.71,2,12.1,3.25,18.72,2.68"/><path class="cls-41" d="M3281.49,2172.31l68.15-5.89c6.63-.57,9-2.7,5.28-4.75l-54.33-30.06c-3.72-2.05-12.11-3.25-18.73-2.68l-68.15,5.88c-6.63.58-9,2.71-5.28,4.76l54.34,30.06c3.71,2,12.09,3.25,18.72,2.68"/><path class="cls-41" d="M3161.34,2182.7l68.14-5.88c6.64-.58,9-2.71,5.28-4.76L3180.43,2142c-3.72-2.05-12.09-3.25-18.73-2.68l-68.14,5.89c-6.64.57-9,2.7-5.29,4.76l54.34,30.05c3.71,2.05,12.09,3.26,18.73,2.68"/><path class="cls-41" d="M3041.18,2193.08l68.14-5.89c6.64-.57,9-2.7,5.29-4.76l-54.34-30c-3.71-2.06-12.09-3.26-18.73-2.68l-68.14,5.88c-6.63.58-9,2.71-5.29,4.76l54.34,30c3.71,2.06,12.1,3.26,18.73,2.69"/><path class="cls-41" d="M2921,2203.45l68.14-5.89c6.64-.57,9-2.7,5.28-4.76l-54.33-30.05c-3.72-2.06-12.09-3.25-18.73-2.68l-68.15,5.88c-6.62.58-9,2.71-5.27,4.76l54.33,30.05c3.71,2.06,12.1,3.26,18.73,2.69"/><path class="cls-41" d="M2440.39,2245,2869,2208c6.64-.57,9-2.7,5.29-4.75l-54.33-30c-3.71-2.06-12.1-3.26-18.73-2.69l-428.62,37c-6.62.57-9,2.7-5.27,4.76l54.33,30.05c3.71,2,12.1,3.26,18.72,2.68"/><path class="cls-41" d="M2320.24,2255.36l68.15-5.89c6.63-.57,9-2.7,5.28-4.76l-54.34-30.05c-3.71-2.06-12.09-3.26-18.72-2.68l-68.15,5.88c-6.63.58-9,2.71-5.28,4.76l54.33,30.05c3.72,2.06,12.11,3.26,18.73,2.69"/><path class="cls-41" d="M2200.09,2265.75l68.16-5.89c6.62-.57,9-2.7,5.27-4.76l-54.33-30c-3.72-2.06-12.1-3.25-18.73-2.68l-68.15,5.88c-6.63.58-9,2.71-5.27,4.76l54.33,30c3.71,2.06,12.1,3.26,18.72,2.69"/><path class="cls-41" d="M2079.94,2276.12l68.15-5.88c6.63-.58,9-2.71,5.28-4.76L2099,2235.43c-3.72-2.06-12.09-3.26-18.73-2.69l-68.13,5.89c-6.64.57-9,2.7-5.29,4.76l54.33,30.05c3.71,2,12.1,3.25,18.73,2.68"/><path class="cls-41" d="M1805.55,2299.82l77.35-6.68c6.63-.57,9-2.7,5.28-4.76l-12.62-7c-3.71-2.05-12.1-3.25-18.72-2.68l-77.36,6.68c-6.62.57-9,2.71-5.28,4.76l12.62,7c3.72,2.05,12.1,3.25,18.73,2.68"/><path class="cls-41" d="M1673.39,2311.24l77.35-6.68c6.63-.57,9-2.7,5.28-4.76l-12.62-7c-3.71-2.05-12.1-3.25-18.72-2.68l-77.36,6.68c-6.62.58-9,2.71-5.27,4.76l12.61,7c3.71,2.05,12.1,3.25,18.73,2.68"/><path class="cls-41" d="M1937.71,2288.4l77.35-6.68c6.63-.58,9-2.71,5.28-4.76l-12.62-7c-3.72-2.06-12.1-3.25-18.73-2.68l-77.35,6.68c-6.63.57-9,2.7-5.28,4.76l12.62,7c3.71,2.05,12.1,3.25,18.73,2.68"/><path class="cls-41" d="M1763.82,2276.76l77.36-6.68c6.63-.57,9-2.71,5.27-4.76l-12.61-7c-3.72-2.05-12.1-3.25-18.73-2.68l-77.35,6.68c-6.63.57-9,2.7-5.28,4.76l12.62,7c3.71,2.05,12.1,3.25,18.72,2.68"/><path class="cls-41" d="M3067.46,2053.92l68.15-5.89c6.63-.57,9-2.7,5.28-4.75l-38.17-21.12c-3.71-2.05-12.1-3.25-18.73-2.68l-68.14,5.89c-6.64.57-9,2.7-5.29,4.75l38.18,21.12c3.71,2.05,12.09,3.25,18.72,2.68"/><path class="cls-41" d="M2947.31,2064.29l68.14-5.89c6.64-.57,9-2.7,5.29-4.75l-38.18-21.12c-3.71-2-12.09-3.25-18.73-2.68l-68.14,5.89c-6.63.57-9,2.7-5.28,4.75l38.17,21.12c3.71,2,12.09,3.25,18.73,2.68"/><path class="cls-41" d="M2827.15,2074.69l68.14-5.89c6.63-.57,9-2.7,5.29-4.76l-38.17-21.11c-3.72-2-12.1-3.26-18.74-2.68l-68.14,5.88c-6.63.58-9,2.71-5.28,4.76l38.17,21.12c3.71,2,12.1,3.25,18.73,2.68"/><path class="cls-41" d="M2707,2085.06l68.15-5.89c6.63-.57,9-2.7,5.28-4.75l-38.17-21.12c-3.71-2.05-12.09-3.25-18.73-2.68l-68.14,5.88c-6.64.58-9,2.71-5.29,4.76l38.18,21.11c3.71,2.06,12.09,3.26,18.72,2.69"/><path class="cls-41" d="M2586.84,2095.43l68.15-5.89c6.63-.57,9-2.7,5.28-4.75l-38.17-21.12c-3.72-2.05-12.1-3.25-18.73-2.68l-68.15,5.89c-6.63.57-9,2.7-5.28,4.75l38.18,21.12c3.71,2.05,12.09,3.25,18.72,2.68"/><path class="cls-41" d="M2466.68,2105.83l68.15-5.89c6.63-.57,9-2.7,5.28-4.76l-38.18-21.11c-3.71-2.05-12.09-3.26-18.72-2.68l-68.15,5.88c-6.63.58-9,2.71-5.27,4.76l38.16,21.11c3.71,2.06,12.1,3.26,18.73,2.69"/><path class="cls-41" d="M2346.52,2116.2l68.14-5.89c6.64-.57,9-2.7,5.29-4.75l-38.18-21.12c-3.71-2.05-12.09-3.25-18.72-2.68l-68.15,5.89c-6.62.57-9,2.7-5.28,4.75l38.17,21.12c3.71,2.05,12.1,3.25,18.73,2.68"/><path class="cls-41" d="M2226.38,2126.59l68.15-5.88c6.62-.57,9-2.71,5.27-4.76l-38.17-21.11c-3.71-2.06-12.09-3.26-18.73-2.69l-68.14,5.89c-6.63.57-9,2.7-5.28,4.76l38.16,21.11c3.71,2.05,12.11,3.26,18.74,2.68"/><path class="cls-41" d="M2106.22,2137l68.14-5.89c6.63-.57,9-2.7,5.29-4.76l-38.18-21.11c-3.71-2.05-12.09-3.26-18.73-2.68l-68.14,5.88c-6.63.58-9,2.71-5.28,4.76l38.17,21.12c3.71,2.05,12.1,3.25,18.73,2.68"/><path class="cls-41" d="M1986.08,2147.34l68.14-5.89c6.63-.57,9-2.7,5.28-4.76l-38.17-21.11c-3.71-2-12.09-3.25-18.73-2.68l-68.14,5.88c-6.64.58-9,2.71-5.28,4.76l38.17,21.11c3.71,2.06,12.1,3.26,18.73,2.69"/><path class="cls-41" d="M1865.91,2157.73l68.15-5.88c6.63-.58,9-2.71,5.28-4.76L1901.17,2126c-3.71-2.06-12.1-3.26-18.73-2.69l-68.14,5.89c-6.64.57-9,2.7-5.28,4.76l38.17,21.11c3.71,2.06,12.1,3.26,18.72,2.68"/><path class="cls-41" d="M1745.75,2168.11l68.15-5.89c6.63-.57,9-2.7,5.28-4.76L1781,2136.35c-3.71-2-12.09-3.26-18.72-2.69l-68.14,5.89c-6.64.58-9,2.7-5.28,4.76l38.16,21.11c3.71,2.06,12.11,3.26,18.73,2.69"/><path class="cls-41" d="M1598,2180.84l95.71-8.25c6.63-.57,9-2.7,5.28-4.75l-38.17-21.12c-3.72-2-12.1-3.25-18.73-2.68l-95.7,8.24c-6.63.58-9,2.71-5.28,4.76l38.17,21.12c3.71,2.05,12.1,3.25,18.72,2.68"/><path class="cls-41" d="M1449.77,2193.68l96.25-8.33c6.63-.58,9-2.71,5.28-4.76l-38.17-21.12c-3.71-2-12.1-3.25-18.73-2.68l-96.24,8.34c-6.64.57-9,2.7-5.28,4.76l38.17,21.11c3.71,2.05,12.09,3.25,18.72,2.68"/><path class="cls-41" d="M3074.93,2095.51l126.63-11c6.63-.57,9-2.7,5.29-4.75l-38.17-21.12c-3.73-2.05-12.1-3.25-18.73-2.68l-126.64,11c-6.63.57-9,2.7-5.28,4.76l38.17,21.11c3.71,2.05,12.1,3.25,18.73,2.68"/><path class="cls-41" d="M2893.11,2111.18l126.78-10.91c6.62-.57,9-2.7,5.28-4.75L2987,2074.4c-3.71-2.05-12.09-3.25-18.72-2.68l-126.78,10.9c-6.63.58-9,2.71-5.28,4.76l38.17,21.11c3.71,2.06,12.1,3.26,18.73,2.69"/><path class="cls-41" d="M2773,2121.55l68.14-5.89c6.63-.57,9-2.7,5.29-4.75l-38.18-21.12c-3.71-2.05-12.09-3.25-18.73-2.68l-68.14,5.89c-6.63.57-9,2.7-5.28,4.75l38.17,21.12c3.71,2.05,12.09,3.25,18.73,2.68"/><path class="cls-41" d="M2652.8,2131.92,2721,2126c6.63-.57,9-2.7,5.28-4.75l-38.17-21.12c-3.71-2-12.1-3.25-18.73-2.68l-68.14,5.89c-6.63.57-9,2.7-5.28,4.75l38.17,21.12c3.71,2.05,12.1,3.25,18.72,2.68"/><path class="cls-41" d="M2532.64,2142.32l68.15-5.89c6.63-.57,9-2.7,5.28-4.76l-38.16-21.11c-3.72-2-12.11-3.26-18.74-2.68l-68.14,5.88c-6.63.58-9,2.71-5.28,4.76l38.17,21.12c3.71,2.05,12.1,3.25,18.72,2.68"/><path class="cls-41" d="M2412.48,2152.69l68.15-5.89c6.63-.57,9-2.7,5.28-4.75l-38.17-21.12c-3.72-2-12.1-3.25-18.73-2.68l-68.15,5.89c-6.62.57-9,2.7-5.27,4.75l38.16,21.12c3.72,2,12.11,3.25,18.73,2.68"/><path class="cls-41" d="M2292.32,2163.06l68.15-5.88c6.63-.58,9-2.71,5.28-4.76l-38.17-21.11c-3.71-2.06-12.1-3.26-18.73-2.69l-68.14,5.89c-6.63.57-9,2.7-5.29,4.76l38.17,21.11c3.71,2,12.1,3.25,18.73,2.68"/><path class="cls-41" d="M2172.18,2173.46l68.15-5.89c6.63-.57,9-2.7,5.28-4.76l-38.17-21.11c-3.72-2-12.09-3.26-18.73-2.68l-68.14,5.88c-6.63.58-9,2.71-5.29,4.76l38.17,21.11c3.71,2.06,12.1,3.26,18.73,2.69"/><path class="cls-41" d="M2052,2183.83l68.14-5.89c6.63-.57,9-2.7,5.29-4.75l-38.18-21.12c-3.71-2.05-12.09-3.25-18.73-2.68l-68.14,5.89c-6.63.57-9,2.7-5.29,4.75l38.18,21.12c3.71,2,12.09,3.25,18.73,2.68"/><path class="cls-41" d="M1931.85,2194.2l68.15-5.88c6.62-.58,9-2.71,5.28-4.76l-38.17-21.12c-3.71-2.05-12.1-3.25-18.73-2.68l-68.14,5.89c-6.64.57-9,2.7-5.28,4.76l38.16,21.11c3.72,2.05,12.1,3.26,18.73,2.68"/><path class="cls-41" d="M1811.71,2204.6l68.15-5.89c6.63-.57,9-2.7,5.28-4.76L1847,2172.84c-3.71-2.05-12.1-3.26-18.73-2.68L1760.1,2176c-6.64.58-9,2.71-5.28,4.76l38.17,21.12c3.71,2,12.1,3.25,18.72,2.68"/><path class="cls-41" d="M1694,2214.67l68.16-5.89c6.62-.57,9-2.7,5.27-4.76l-38.17-21.11c-3.71-2-12.09-3.26-18.73-2.68l-68.14,5.88c-6.63.58-9,2.71-5.28,4.76L1675.3,2212c3.71,2.05,12.1,3.25,18.72,2.68"/><path class="cls-41" d="M1515.73,2230.16l124.55-10.86c6.63-.57,9-2.7,5.28-4.76l-38.17-21.11c-3.71-2-12.1-3.25-18.73-2.68l-124.55,10.86c-6.63.57-9,2.7-5.27,4.75l38.16,21.12c3.72,2.05,12.11,3.25,18.73,2.68"/><path class="cls-41" d="M3079.22,2137.28l188.3-16.27c6.63-.57,9-2.7,5.28-4.75l-38.17-21.12c-3.71-2-12.1-3.25-18.72-2.68l-188.31,16.27c-6.63.57-9,2.7-5.28,4.75l38.17,21.12c3.71,2.05,12.1,3.25,18.73,2.68"/><path class="cls-41" d="M2959.05,2147.65l68.15-5.89c6.63-.57,9-2.7,5.28-4.76l-38.18-21.11c-3.71-2-12.09-3.26-18.72-2.68l-68.15,5.88c-6.62.58-9,2.71-5.27,4.76l38.16,21.11c3.71,2.06,12.11,3.26,18.73,2.69"/><path class="cls-41" d="M2838.91,2158l68.14-5.89c6.64-.57,9-2.7,5.29-4.75l-38.18-21.12c-3.71-2.05-12.09-3.25-18.72-2.68l-68.15,5.89c-6.62.57-9,2.7-5.28,4.75l38.17,21.12c3.71,2,12.1,3.25,18.73,2.68"/><path class="cls-41" d="M2718.75,2168.41l68.15-5.88c6.63-.57,9-2.71,5.28-4.76L2754,2136.66c-3.71-2.06-12.1-3.26-18.74-2.69l-68.14,5.89c-6.63.57-9,2.7-5.27,4.76l38.16,21.11c3.71,2.05,12.11,3.26,18.73,2.68"/><path class="cls-41" d="M2598.6,2178.78l68.15-5.88c6.63-.58,9-2.71,5.28-4.76L2633.86,2147c-3.71-2.06-12.1-3.26-18.73-2.69l-68.14,5.89c-6.64.57-9,2.7-5.28,4.76l38.17,21.11c3.71,2.06,12.09,3.26,18.72,2.68"/><path class="cls-41" d="M2478.45,2189.18l68.14-5.88c6.64-.58,9-2.71,5.28-4.76l-38.17-21.12c-3.71-2.05-12.1-3.25-18.73-2.68l-68.14,5.89c-6.64.57-9,2.7-5.28,4.75l38.17,21.12c3.71,2.05,12.1,3.25,18.73,2.68"/><path class="cls-41" d="M2358.28,2199.55l68.15-5.88c6.63-.58,9-2.71,5.28-4.76l-38.18-21.12c-3.71-2.05-12.09-3.25-18.72-2.68l-68.14,5.89c-6.64.57-9,2.7-5.28,4.76l38.16,21.11c3.72,2.05,12.11,3.25,18.73,2.68"/><path class="cls-41" d="M2238.12,2209.93l68.16-5.89c6.62-.57,9-2.7,5.27-4.76l-38.18-21.11c-3.71-2.05-12.09-3.26-18.72-2.68l-68.14,5.88c-6.64.58-9,2.71-5.28,4.76l38.16,21.11c3.71,2.06,12.11,3.26,18.73,2.69"/><path class="cls-41" d="M2118,2220.32l68.15-5.89c6.63-.57,9-2.7,5.28-4.75l-38.18-21.12c-3.71-2-12.09-3.25-18.72-2.68l-68.14,5.89c-6.64.57-9,2.7-5.29,4.75l38.17,21.12c3.72,2.05,12.1,3.25,18.73,2.68"/><path class="cls-41" d="M1997.82,2230.69l68.15-5.88c6.63-.58,9-2.71,5.28-4.76l-38.17-21.11c-3.72-2.06-12.1-3.26-18.74-2.69l-68.13,5.89c-6.64.57-9,2.7-5.28,4.76l38.16,21.11c3.71,2,12.11,3.26,18.73,2.68"/><path class="cls-41" d="M1877.65,2241.07l68.15-5.89c6.62-.57,9-2.7,5.28-4.76l-38.17-21.11c-3.71-2.06-12.1-3.26-18.74-2.68l-68.13,5.88c-6.64.58-9,2.71-5.29,4.76l38.17,21.11c3.71,2.06,12.1,3.26,18.73,2.69"/><path class="cls-41" d="M1581.7,2266.65l244-21.07c6.63-.58,9-2.71,5.28-4.76l-38.17-21.12c-3.71-2-12.1-3.25-18.72-2.68l-244,21.08c-6.63.57-9,2.7-5.28,4.75L1563,2264c3.71,2.05,12.1,3.25,18.74,2.68"/><path class="cls-42" d="M3596.46,1075.31l841.84,158.2L4515.63,1833l-8.41,10.78-833.43-169Z"/><polygon class="cls-43" points="4430.38 1244.21 3588.54 1086.01 3665.87 1685.53 4507.7 1843.72 4430.38 1244.21"/><path class="cls-44" d="M4507.84,1843.36,4409.21,1825l29.35-55.28Z"/><path class="cls-44" d="M4437.39,1759.77l-93.45-5-15.41,200.61Z"/><path class="cls-42" d="M3589,1085.05l841.84,158.2-91,707.27-12.77,5.77-829.07-164Z"/><polygon class="cls-45" points="4418.7 1248.98 3576.87 1090.79 3485.86 1798.06 4327.69 1956.26 4418.7 1248.98"/><path class="cls-42" d="M4514.93,1834l-77.88-74.61L4327,1957.47l13.14-6.88L4440.5,1776l67.26,67.8Z"/><path class="cls-46" d="M3679.38,1643.09l93.5,17.57-13.68,106.26-93.49-17.57Zm-104-19.54,93.5,17.57-13.67,106.26-93.5-17.57Zm519.84,97.69,93.5,17.57-13.67,106.26-93.5-17.57Zm-311.9-58.62,93.5,17.57-13.68,106.27-93.49-17.57Zm415.87,78.16,93.5,17.57L4279,1864.61,4185.55,1847Zm-207.93-39.08,93.49,17.57-13.67,106.27-93.5-17.57Zm-104-19.54,93.5,17.57L3967.14,1806l-93.5-17.57Zm-192.53-158.82,93.5,17.57-13.68,106.27-93.49-17.57Zm-104-19.53,93.5,17.57-13.67,106.26-93.5-17.57Zm519.84,97.69,93.5,17.57-13.68,106.26L4097,1707.76Zm-311.9-58.62,93.49,17.57-13.67,106.27-93.5-17.57ZM4214.63,1621l93.5,17.57-13.68,106.27L4201,1727.3ZM4006.7,1582l93.49,17.57-13.67,106.26-93.5-17.57Zm-104-19.54,93.49,17.57-13.67,106.27-93.5-17.57ZM3710.2,1403.6l93.5,17.57L3790,1527.44l-93.5-17.57Zm-104-19.54,93.5,17.57-13.68,106.27-93.49-17.57Zm519.84,97.69,93.5,17.57-13.68,106.27L4112.4,1588Zm-311.9-58.61,93.49,17.57L3894,1547l-93.5-17.57ZM4230,1501.29l93.49,17.57-13.67,106.27-93.49-17.57Zm-207.94-39.07,93.5,17.57-13.68,106.26-93.49-17.57Zm-104-19.54,93.49,17.57L3998,1566.51l-93.5-17.57Zm327.31-61.13,93.49,17.57-13.67,106.26-93.5-17.57Zm-519.84-97.69,93.49,17.57-13.67,106.26-93.5-17.57Zm-104-19.54,93.5,17.57-13.68,106.26L3608,1370.58ZM4141.48,1362l93.5,17.57-13.68,106.26-93.49-17.57Zm-311.9-58.62,93.49,17.57-13.67,106.27-93.5-17.57Zm207.93,39.08L4131,1360l-13.68,106.27-93.49-17.57Zm-104-19.54,93.5,17.57-13.67,106.27-93.5-17.57Z"/><path class="cls-43" d="M4199.22,1740.78l93.5,17.57L4279,1864.61,4185.55,1847ZM4214.63,1621l93.5,17.57-13.68,106.27L4201,1727.3ZM4230,1501.29l93.49,17.57-13.67,106.27-93.49-17.57Zm15.41-119.74,93.49,17.57-13.67,106.26-93.5-17.57Zm-623.81-117.23,93.5,17.57Z"/><path class="cls-47" d="M3557.91,1755.42c.48-3.7,3.5-6.2,6.75-5.59l130.51,24.53c3.24.61,5.5,4.1,5,7.8s-3.51,6.19-6.76,5.58l-130.51-24.52C3559.68,1762.61,3557.43,1759.11,3557.91,1755.42Z"/><path class="cls-46" d="M3948,1267.57c1.74-13.48,12.77-22.61,24.63-20.38l357.43,67.17c11.86,2.22,20.08,15,18.35,28.45s-12.77,22.61-24.63,20.38L3966.39,1296C3954.53,1293.8,3946.31,1281,3948,1267.57Z"/><ellipse class="cls-48" cx="3903.92" cy="1262.03" rx="13.56" ry="15.48" transform="matrix(1, -0.07, 0.07, 1, -79.19, 278.09)"/><ellipse class="cls-48" cx="3849.31" cy="1251.77" rx="13.56" ry="15.48" transform="translate(-78.6 274.22) rotate(-4.04)"/><ellipse class="cls-48" cx="3794.71" cy="1241.51" rx="13.56" ry="15.48" transform="translate(-78.02 270.35) rotate(-4.04)"/><ellipse class="cls-49" cx="4355.09" cy="1283.32" rx="9.14" ry="6.25" transform="translate(2460.04 5409.16) rotate(-81.75)"/><path class="cls-31" d="M4373.61,1240.41l-9.06-1.58-10.4,35.64c5.27-.43,6.62,3,7.22,7.16Z"/><path class="cls-16" d="M4406.22,1228.57c.47-2,.89-4,1.26-6,3.59-19.35,1.63-34.85-3.75-43.07-4.49-6.87-11.19-9.41-19.39-6.73-7,2.29-14.45,8.64-21.1,17.93-9,12.54-16.69,30.53-20.15,49.12-3.6,19.35-1.63,34.86,3.75,43.07a16.45,16.45,0,0,0,8.92,7.15c4.63-3.87,5.86-7.91,2.44-12.19a13.19,13.19,0,0,1-3.84-5.8c-2.81-7.29-3.15-18.51-.67-31.86,3.07-16.52,9.82-32.52,17.79-43.65,4.64-6.5,9.57-11.34,14.45-12.94s8.24,1.45,10.28,6.74c2.81,7.3,3.15,18.52.67,31.87-.27,1.47-.58,2.94-.91,4.4Z"/><path class="cls-50" d="M4354.76,1235.1c-1.08,3.73-2,7.55-2.71,11.39-2.48,13.35-2.14,24.56.68,31.87a13.11,13.11,0,0,0,3.84,5.78,9.07,9.07,0,0,1,1.76,3.35c2.38-3.07,2.53-6.26-.13-9.59a13.19,13.19,0,0,1-3.84-5.8c-2.81-7.29-3.16-18.52-.67-31.87C4354,1238.52,4354.37,1236.8,4354.76,1235.1Zm51.15-6.59.31.06c.47-2,.89-4,1.26-6,3.59-19.35,1.63-34.85-3.75-43.07-4.49-6.87-11.19-9.41-19.39-6.73-7,2.29-14.45,8.64-21.1,17.93-8,11.2-15,26.73-18.89,43.17,4-14.09,10.27-27.15,17.25-36.92,6.65-9.29,14.12-15.64,21.11-17.93,8.19-2.68,14.89-.14,19.38,6.73C4407.44,1194,4409.41,1209.33,4405.91,1228.51Z"/><ellipse class="cls-49" cx="4272.55" cy="1267.24" rx="9.14" ry="6.25" transform="translate(2405.26 5313.7) rotate(-81.75)"/><path class="cls-31" d="M4291.07,1224.33l-9.06-1.58-10.4,35.64c5.27-.43,6.62,3,7.22,7.15Z"/><path class="cls-16" d="M4323.68,1212.49c.46-2,.88-4,1.26-6,3.59-19.35,1.63-34.85-3.75-43.07-4.49-6.87-11.19-9.41-19.39-6.73-7,2.29-14.45,8.64-21.1,17.93-9,12.54-16.69,30.53-20.15,49.12-3.6,19.35-1.63,34.85,3.75,43.07a16.41,16.41,0,0,0,8.92,7.15c4.63-3.87,5.86-7.91,2.44-12.19a13.25,13.25,0,0,1-3.84-5.8c-2.81-7.29-3.16-18.51-.67-31.86,3.07-16.52,9.82-32.52,17.79-43.65,4.64-6.5,9.57-11.34,14.45-12.94s8.24,1.45,10.28,6.74c2.81,7.3,3.15,18.52.67,31.86-.27,1.48-.58,2.95-.91,4.41Z"/><path class="cls-51" d="M4272.22,1219c-1.08,3.73-2,7.55-2.71,11.39-2.48,13.35-2.14,24.56.68,31.87a13.11,13.11,0,0,0,3.84,5.78,9.07,9.07,0,0,1,1.76,3.35c2.38-3.07,2.53-6.26-.13-9.59a13.19,13.19,0,0,1-3.84-5.8c-2.81-7.29-3.16-18.52-.67-31.87C4271.47,1222.44,4271.82,1220.72,4272.22,1219Zm51.15-6.59.31.06q.69-3,1.26-6c3.59-19.35,1.63-34.85-3.75-43.08-4.5-6.86-11.19-9.4-19.39-6.72-7,2.29-14.45,8.64-21.1,17.93-8,11.2-15,26.73-18.9,43.17,4.05-14.09,10.28-27.15,17.26-36.92,6.65-9.29,14.12-15.64,21.11-17.93,8.19-2.68,14.89-.14,19.38,6.73C4324.9,1177.89,4326.87,1193.25,4323.37,1212.43Z"/><ellipse class="cls-49" cx="4190.01" cy="1251.16" rx="9.14" ry="6.25" transform="translate(2350.48 5218.24) rotate(-81.75)"/><path class="cls-31" d="M4208.53,1208.25l-9.06-1.58-10.4,35.64c5.27-.43,6.62,3,7.22,7.15Z"/><path class="cls-16" d="M4241.14,1196.41c.46-2,.88-4,1.25-6,3.6-19.35,1.64-34.85-3.74-43.08-4.5-6.86-11.19-9.4-19.39-6.72-7,2.29-14.46,8.64-21.1,17.93-9,12.54-16.69,30.53-20.15,49.12-3.6,19.35-1.63,34.85,3.75,43.07a16.38,16.38,0,0,0,8.92,7.15c4.63-3.87,5.86-7.91,2.44-12.19a13.25,13.25,0,0,1-3.84-5.8c-2.82-7.3-3.16-18.51-.68-31.86,3.08-16.52,9.83-32.52,17.8-43.65,4.64-6.5,9.57-11.34,14.45-12.94s8.24,1.45,10.28,6.74c2.81,7.3,3.15,18.52.67,31.86-.28,1.48-.58,3-.91,4.41Z"/><path class="cls-52" d="M4189.68,1202.94c-1.08,3.73-2,7.54-2.71,11.39-2.48,13.35-2.14,24.56.67,31.87a13.34,13.34,0,0,0,3.84,5.78,9,9,0,0,1,1.77,3.35c2.38-3.07,2.53-6.26-.13-9.59a13.19,13.19,0,0,1-3.84-5.8c-2.82-7.29-3.16-18.52-.67-31.87C4188.92,1206.36,4189.28,1204.64,4189.68,1202.94Zm51.15-6.59.31.06q.69-3,1.25-6c3.6-19.35,1.64-34.85-3.74-43.08-4.5-6.86-11.2-9.4-19.39-6.72-7,2.29-14.46,8.64-21.1,17.93-8,11.2-15,26.73-18.9,43.17,4.05-14.09,10.28-27.15,17.26-36.92,6.65-9.29,14.12-15.64,21.11-17.93,8.19-2.68,14.89-.14,19.38,6.73C4242.36,1161.81,4244.33,1177.17,4240.83,1196.35Z"/><ellipse class="cls-49" cx="4106.39" cy="1235.9" rx="9.14" ry="6.25" transform="translate(2293.97 5122.41) rotate(-81.75)"/><path class="cls-31" d="M4124.91,1193l-9.06-1.58-10.4,35.64c5.27-.42,6.62,3,7.22,7.16Z"/><path class="cls-16" d="M4157.52,1181.14c.47-2,.89-4,1.26-6,3.6-19.35,1.63-34.85-3.75-43.07-4.49-6.87-11.19-9.41-19.38-6.73-7,2.29-14.46,8.64-21.11,17.93-9,12.54-16.69,30.53-20.15,49.13-3.59,19.35-1.63,34.85,3.75,43.07a16.54,16.54,0,0,0,8.92,7.15c4.63-3.88,5.86-7.92,2.44-12.2a13.38,13.38,0,0,1-3.84-5.79c-2.81-7.3-3.15-18.52-.67-31.87,3.07-16.51,9.82-32.52,17.79-43.65,4.65-6.5,9.57-11.34,14.46-12.94s8.23,1.45,10.27,6.74c2.81,7.3,3.15,18.52.67,31.87-.27,1.47-.58,2.94-.91,4.41Z"/><path class="cls-53" d="M4106.06,1187.67c-1.08,3.74-2,7.55-2.7,11.39-2.49,13.35-2.15,24.56.67,31.87a13.15,13.15,0,0,0,3.84,5.79,9,9,0,0,1,1.76,3.34c2.38-3.07,2.53-6.26-.13-9.59a13.38,13.38,0,0,1-3.84-5.79c-2.81-7.3-3.15-18.52-.67-31.87C4105.31,1191.09,4105.67,1189.37,4106.06,1187.67Zm51.15-6.58.31.05q.7-3,1.26-6c3.6-19.35,1.63-34.85-3.75-43.07-4.49-6.87-11.19-9.41-19.38-6.73-7,2.29-14.46,8.64-21.11,17.93-8,11.2-15,26.74-18.89,43.17,4-14.08,10.27-27.15,17.26-36.92,6.65-9.29,14.11-15.64,21.1-17.93,8.19-2.68,14.89-.14,19.39,6.73C4158.74,1146.54,4160.72,1161.9,4157.21,1181.09Z"/><ellipse class="cls-49" cx="4022.95" cy="1220.64" rx="9.14" ry="6.25" transform="translate(2237.61 5026.78) rotate(-81.75)"/><path class="cls-31" d="M4041.48,1177.73l-9.07-1.58L4022,1211.78c5.27-.42,6.61,3,7.22,7.16Z"/><path class="cls-16" d="M4074.09,1165.89c.46-2,.88-4,1.25-6,3.6-19.35,1.64-34.85-3.75-43.08-4.49-6.86-11.19-9.4-19.38-6.72-7,2.29-14.46,8.64-21.11,17.93-9,12.54-16.68,30.53-20.14,49.12-3.6,19.35-1.63,34.85,3.75,43.07a16.42,16.42,0,0,0,8.92,7.15c4.63-3.87,5.86-7.91,2.44-12.19a13.25,13.25,0,0,1-3.84-5.8c-2.82-7.3-3.16-18.52-.68-31.86,3.07-16.52,9.83-32.52,17.79-43.66,4.65-6.49,9.58-11.33,14.46-12.94s8.24,1.46,10.27,6.74c2.82,7.3,3.16,18.53.68,31.87-.28,1.48-.58,3-.91,4.41Z"/><path class="cls-54" d="M4022.63,1172.42c-1.08,3.73-2,7.54-2.71,11.39-2.48,13.35-2.14,24.56.67,31.87a13.34,13.34,0,0,0,3.84,5.78,8.78,8.78,0,0,1,1.76,3.35c2.38-3.07,2.54-6.26-.12-9.59a13.19,13.19,0,0,1-3.84-5.8c-2.82-7.3-3.16-18.52-.68-31.87C4021.87,1175.84,4022.23,1174.12,4022.63,1172.42Zm51.15-6.59.31.06q.69-3,1.25-6c3.6-19.35,1.64-34.85-3.75-43.08-4.49-6.86-11.19-9.4-19.38-6.72-7,2.29-14.46,8.64-21.1,17.93-8,11.19-15,26.73-18.9,43.17,4.05-14.09,10.27-27.15,17.26-36.92,6.65-9.29,14.12-15.64,21.11-17.93,8.19-2.68,14.89-.14,19.38,6.72C4075.31,1131.29,4077.28,1146.65,4073.78,1165.83Z"/><ellipse class="cls-49" cx="3941.71" cy="1204.64" rx="9.14" ry="6.25" transform="translate(2183.86 4932.67) rotate(-81.75)"/><path class="cls-31" d="M3960.24,1161.73l-9.07-1.58-10.4,35.63c5.28-.42,6.62,3,7.23,7.16Z"/><path class="cls-16" d="M3992.85,1149.89c.46-2,.88-4,1.25-6,3.6-19.35,1.63-34.85-3.75-43.07-4.49-6.87-11.19-9.41-19.38-6.72-7,2.29-14.46,8.64-21.11,17.93-9,12.53-16.69,30.52-20.14,49.12-3.6,19.35-1.64,34.85,3.75,43.07a16.42,16.42,0,0,0,8.92,7.15c4.63-3.87,5.86-7.92,2.44-12.2a13.15,13.15,0,0,1-3.84-5.79c-2.82-7.3-3.16-18.52-.68-31.87,3.07-16.51,9.83-32.51,17.79-43.65,4.65-6.49,9.58-11.34,14.46-12.94s8.24,1.45,10.27,6.74c2.82,7.3,3.16,18.52.68,31.87-.28,1.47-.58,2.94-.91,4.41Z"/><path class="cls-55" d="M3941.39,1156.41c-1.08,3.74-2,7.55-2.71,11.39-2.48,13.35-2.14,24.57.67,31.87a13.32,13.32,0,0,0,3.84,5.79,8.71,8.71,0,0,1,1.76,3.35c2.38-3.08,2.54-6.27-.12-9.6a13.15,13.15,0,0,1-3.84-5.79c-2.82-7.3-3.16-18.52-.68-31.87C3940.63,1159.84,3941,1158.12,3941.39,1156.41Zm51.14-6.58.32.05q.69-3,1.25-6c3.6-19.35,1.64-34.85-3.75-43.07-4.49-6.87-11.19-9.41-19.38-6.73-7,2.29-14.46,8.65-21.11,17.94-8,11.19-15,26.73-18.89,43.17,4.05-14.09,10.27-27.16,17.26-36.92,6.65-9.29,14.12-15.64,21.11-17.93,8.19-2.69,14.89-.14,19.38,6.72C3994.07,1115.28,3996,1130.64,3992.53,1149.83Z"/><ellipse class="cls-49" cx="3858.92" cy="1189.14" rx="9.14" ry="6.25" transform="matrix(0.14, -0.99, 0.99, 0.14, 2128.29, 4837.45)"/><path class="cls-31" d="M3877.44,1146.22l-9.06-1.58-10.4,35.64c5.27-.42,6.62,3,7.22,7.16Z"/><path class="cls-16" d="M3910.05,1134.39q.7-3,1.26-6c3.59-19.35,1.63-34.85-3.75-43.07-4.49-6.87-11.19-9.41-19.39-6.73-7,2.29-14.45,8.64-21.1,17.93-9,12.54-16.69,30.53-20.15,49.13-3.6,19.35-1.63,34.85,3.75,43.07a16.54,16.54,0,0,0,8.92,7.15c4.63-3.87,5.86-7.92,2.44-12.2a13.15,13.15,0,0,1-3.84-5.79c-2.81-7.3-3.16-18.52-.67-31.87,3.07-16.51,9.82-32.52,17.79-43.65,4.64-6.5,9.57-11.34,14.45-12.94s8.24,1.45,10.28,6.74c2.81,7.3,3.15,18.52.67,31.87-.27,1.47-.58,2.94-.91,4.41Z"/><path class="cls-56" d="M3858.59,1140.91c-1.08,3.74-2,7.55-2.71,11.39-2.48,13.35-2.14,24.57.68,31.87a13.15,13.15,0,0,0,3.84,5.79,9,9,0,0,1,1.76,3.34c2.38-3.07,2.53-6.26-.13-9.59a13.21,13.21,0,0,1-3.84-5.79c-2.81-7.3-3.16-18.52-.67-31.87C3857.84,1144.33,3858.2,1142.61,3858.59,1140.91Zm51.15-6.58.31.05q.7-3,1.26-6c3.59-19.35,1.63-34.85-3.75-43.07-4.49-6.87-11.19-9.41-19.39-6.73-7,2.29-14.45,8.64-21.1,17.93-8,11.2-15,26.74-18.89,43.18,4-14.09,10.27-27.16,17.25-36.93,6.65-9.29,14.12-15.64,21.11-17.93,8.19-2.68,14.89-.14,19.38,6.73C3911.27,1099.78,3913.24,1115.14,3909.74,1134.33Z"/><ellipse class="cls-49" cx="3777.04" cy="1174.02" rx="9.14" ry="6.25" transform="translate(2073.13 4743.47) rotate(-81.75)"/><path class="cls-31" d="M3795.56,1131.1l-9.06-1.58-10.4,35.64c5.27-.42,6.62,3,7.22,7.16Z"/><path class="cls-16" d="M3828.17,1119.26c.47-2,.89-4,1.26-6,3.59-19.35,1.63-34.85-3.75-43.07-4.49-6.87-11.19-9.41-19.38-6.73-7,2.29-14.46,8.64-21.11,17.93-9,12.54-16.69,30.53-20.15,49.13-3.59,19.35-1.63,34.85,3.75,43.07a16.54,16.54,0,0,0,8.92,7.15c4.63-3.88,5.86-7.92,2.44-12.2a13.27,13.27,0,0,1-3.84-5.8c-2.81-7.29-3.15-18.51-.67-31.86,3.07-16.52,9.82-32.52,17.79-43.65,4.65-6.5,9.57-11.34,14.46-12.94s8.23,1.45,10.27,6.74c2.81,7.3,3.15,18.52.67,31.87-.27,1.47-.58,2.94-.91,4.41Z"/><path class="cls-57" d="M3776.71,1125.79c-1.08,3.73-2,7.55-2.71,11.39-2.48,13.35-2.14,24.56.68,31.87a13.11,13.11,0,0,0,3.84,5.78,9.07,9.07,0,0,1,1.76,3.35c2.38-3.07,2.53-6.26-.13-9.59a13.36,13.36,0,0,1-3.84-5.8c-2.81-7.29-3.15-18.51-.67-31.86C3776,1129.21,3776.32,1127.49,3776.71,1125.79Zm51.15-6.58.31,0q.7-3,1.26-6c3.59-19.35,1.63-34.85-3.75-43.07-4.49-6.87-11.19-9.41-19.38-6.73-7,2.29-14.46,8.64-21.11,17.93-8,11.2-15,26.74-18.89,43.17,4-14.08,10.27-27.15,17.26-36.92,6.64-9.29,14.11-15.64,21.1-17.93,8.19-2.68,14.89-.14,19.39,6.73C3829.39,1084.66,3831.37,1100,3827.86,1119.21Z"/><ellipse class="cls-49" cx="3693.71" cy="1158.64" rx="9.14" ry="6.25" transform="translate(2016.97 4647.84) rotate(-81.75)"/><path class="cls-31" d="M3712.23,1115.73l-9.06-1.58-10.4,35.63c5.27-.42,6.62,3,7.22,7.16Z"/><path class="cls-16" d="M3744.84,1103.89c.47-2,.89-4,1.26-6,3.6-19.35,1.63-34.85-3.75-43.08-4.49-6.86-11.19-9.4-19.38-6.72-7,2.29-14.46,8.64-21.11,17.93-9,12.54-16.69,30.53-20.15,49.12-3.59,19.35-1.63,34.85,3.75,43.07a16.49,16.49,0,0,0,8.92,7.15c4.63-3.87,5.86-7.91,2.44-12.19a13.42,13.42,0,0,1-3.84-5.8c-2.81-7.3-3.15-18.52-.67-31.86,3.07-16.52,9.82-32.52,17.79-43.65,4.65-6.5,9.57-11.34,14.46-13s8.23,1.46,10.27,6.74c2.81,7.3,3.15,18.53.67,31.87-.27,1.48-.57,3-.91,4.41Z"/><path class="cls-58" d="M3693.38,1110.42c-1.08,3.73-2,7.54-2.7,11.39-2.49,13.35-2.15,24.56.67,31.87a13.17,13.17,0,0,0,3.84,5.78,9.07,9.07,0,0,1,1.76,3.35c2.38-3.07,2.53-6.26-.13-9.59a13.36,13.36,0,0,1-3.84-5.8c-2.81-7.29-3.15-18.52-.67-31.87C3692.63,1113.84,3693,1112.12,3693.38,1110.42Zm51.15-6.59.31.06q.7-3,1.26-6c3.6-19.35,1.63-34.85-3.75-43.08-4.49-6.86-11.19-9.4-19.38-6.72-7,2.29-14.46,8.64-21.11,17.93-8,11.19-15,26.73-18.89,43.17,4-14.09,10.27-27.15,17.26-36.92,6.65-9.29,14.11-15.64,21.1-17.93,8.19-2.68,14.9-.14,19.39,6.72C3746.06,1069.29,3748,1084.65,3744.53,1103.83Z"/><ellipse class="cls-49" cx="3610.95" cy="1142.47" rx="9.14" ry="6.25" transform="translate(1962.09 4552.09) rotate(-81.75)"/><path class="cls-31" d="M3629.48,1099.56l-9.07-1.58-10.4,35.64c5.28-.43,6.62,3,7.23,7.15Z"/><path class="cls-16" d="M3662.09,1087.72c.46-2,.88-4,1.25-6,3.6-19.35,1.63-34.85-3.75-43.08-4.49-6.86-11.19-9.4-19.38-6.72-7,2.29-14.46,8.64-21.11,17.93-9,12.54-16.69,30.53-20.14,49.12-3.6,19.35-1.64,34.85,3.74,43.07a16.43,16.43,0,0,0,8.93,7.15c4.63-3.87,5.86-7.91,2.43-12.19a13.42,13.42,0,0,1-3.84-5.8c-2.81-7.3-3.15-18.51-.67-31.86,3.07-16.52,9.82-32.52,17.79-43.65,4.65-6.5,9.57-11.34,14.46-12.94s8.23,1.45,10.27,6.74c2.82,7.3,3.16,18.52.68,31.86-.28,1.48-.58,2.95-.91,4.41Z"/><path class="cls-59" d="M3610.63,1094.25c-1.08,3.73-2,7.54-2.71,11.39-2.48,13.35-2.14,24.56.67,31.87a13.34,13.34,0,0,0,3.84,5.78,9.07,9.07,0,0,1,1.76,3.35c2.38-3.07,2.54-6.26-.13-9.59a13.36,13.36,0,0,1-3.84-5.8c-2.81-7.29-3.15-18.52-.67-31.87C3609.87,1097.67,3610.23,1096,3610.63,1094.25Zm51.14-6.59.32.06q.69-3,1.25-6c3.6-19.35,1.63-34.85-3.75-43.08-4.49-6.86-11.19-9.4-19.38-6.72-7,2.29-14.46,8.64-21.11,17.93-8,11.2-15,26.73-18.89,43.17,4.05-14.09,10.27-27.15,17.26-36.92,6.65-9.29,14.12-15.64,21.11-17.93,8.19-2.68,14.89-.14,19.38,6.72C3663.31,1053.12,3665.28,1068.48,3661.77,1087.66Z"/><path class="cls-31" d="M-17.15,2219.26-24.37,2265l657.06,417.42,455.75-147.85Z"/><g id="path2608"><path class="cls-60" d="M-15.08,2039.4c.12-3,.26-4.64.42-4.72l436.45,13.9,964.6,431.14L969,2665.63-14.66,2229.18c-.28-.13-.51-5.3-.69-13.88,4.77-.53,2.69-2-.07-3.4,0-1.51-.05-3.11-.08-4.78,2.15-.15,4.32-.14,4.89-.86.1-.14-.69-.68-.78-.74-1.32-1-2.73-1.9-4.17-2.78,0-1.58,0-3.23-.06-4.92a15.65,15.65,0,0,1,1.58.25c1.16.28,4.54.81,3.64.19a28.79,28.79,0,0,0-5.25-2.59c0-1,0-2,0-3,2-.25,4.42-.2,5.64-.32s4.34-.44,3.24-.6a37.75,37.75,0,0,0-8.89,0c0-1.94,0-3.92-.05-5.95a3,3,0,0,0,.69-.61c.48-.6.08-1.25-.71-1.91,0-2.3,0-4.66-.05-7.06,2.77-.38,5.62-.72,6.35-2.54.54-1.36-3-1.84-6.38-2.74-.05-9.34-.08-19.25-.09-29.31,1.23-.11,2.4-.18,3.41-.26a12.14,12.14,0,0,0,1.74,0c.29-1-2.53-.44-3.65-.92l-1.5-.67v-4.45c.43,0,.83,0,1.17,0a23.09,23.09,0,0,0,5.19-.14c.14,0,.52,0,.41-.12a40.71,40.71,0,0,0-6.77-3.53c0-15.93,0-31.86.14-46.06,2.1-.44,4-1,4.75-2.09.07-.11-.8-.59-.9-.65a27.82,27.82,0,0,0-3.82-1.47q0-4.48.07-8.69a13.42,13.42,0,0,1,1.57-1.53c.67-.55,3.88-1.34,3.95-2.23s-2.61-1.8-5.45-2.72c0-4,.09-7.73.15-11.12,1.22-.66,4.46-.76,5.44-1.41,1.6-1.05-2-2.44-5.35-3.44l0-1.15c0-.42,0-.82,0-1.23v-.34a34.44,34.44,0,0,1,4.78-.63c.2,0,1,0,1.13-.22.19-.42-.77-.67-1.11-1A25.34,25.34,0,0,1-15.08,2039.4Z"/></g><g id="path26081"><path class="cls-61" d="M-15.08,2039.4c.12-3,.26-4.64.42-4.72l436.45,13.9,964.6,431.14L969,2665.63-14.66,2229.18c-.28-.13-.51-5.3-.69-13.88,4.77-.53,2.69-2-.07-3.4,0-1.51-.05-3.11-.08-4.78,2.15-.15,4.32-.14,4.89-.86.1-.14-.69-.68-.78-.74-1.32-1-2.73-1.9-4.17-2.78,0-1.58,0-3.23-.06-4.92a15.65,15.65,0,0,1,1.58.25c1.16.28,4.54.81,3.64.19a28.79,28.79,0,0,0-5.25-2.59c0-1,0-2,0-3,2-.25,4.42-.2,5.64-.32s4.34-.44,3.24-.6a37.75,37.75,0,0,0-8.89,0c0-1.94,0-3.92-.05-5.95a3,3,0,0,0,.69-.61c.48-.6.08-1.25-.71-1.91,0-2.3,0-4.66-.05-7.06,2.77-.38,5.62-.72,6.35-2.54.54-1.36-3-1.84-6.38-2.74-.05-9.34-.08-19.25-.09-29.31,1.23-.11,2.4-.18,3.41-.26a12.14,12.14,0,0,0,1.74,0c.29-1-2.53-.44-3.65-.92l-1.5-.67v-4.45c.43,0,.83,0,1.17,0a23.09,23.09,0,0,0,5.19-.14c.14,0,.52,0,.41-.12a40.71,40.71,0,0,0-6.77-3.53c0-15.93,0-31.86.14-46.06,2.1-.44,4-1,4.75-2.09.07-.11-.8-.59-.9-.65a27.82,27.82,0,0,0-3.82-1.47q0-4.48.07-8.69a13.42,13.42,0,0,1,1.57-1.53c.67-.55,3.88-1.34,3.95-2.23s-2.61-1.8-5.45-2.72c0-4,.09-7.73.15-11.12,1.22-.66,4.46-.76,5.44-1.41,1.6-1.05-2-2.44-5.35-3.44l0-1.15c0-.42,0-.82,0-1.23v-.34a34.44,34.44,0,0,1,4.78-.63c.2,0,1,0,1.13-.22.19-.42-.77-.67-1.11-1A25.34,25.34,0,0,1-15.08,2039.4Z"/></g><g id="path2612"><path class="cls-62" d="M968.05,2474.1-13.48,2038.51c-2.5-1.11-2.5-3.89,0-5l412-182.83,987.15,438.09L968.05,2474.1"/></g><g id="path2616"><path class="cls-9" d="M972.88,2453.5,27.26,2033.85l366.41-162.61,945.62,419.65L972.88,2453.5"/></g><ellipse class="cls-62" cx="167.57" cy="2058.62" rx="18.2" ry="62.55" transform="translate(-1825.16 1515.49) rotate(-70.1)"/><ellipse class="cls-62" cx="903" cy="2383.09" rx="18.2" ry="62.55" transform="translate(-1645.16 2421.03) rotate(-70.1)"/><g id="path2620"><path class="cls-62" d="M1093,2261.74c-32.78-14.58-48-34.06-45.77-53.23l-486-215.7c-45.55,2-92.76-4.74-127.46-20.14L329,1926.18,149,2006l104.8,46.51c33.74,15,48.86,35.19,45.59,54.88L789,2324.7c42-.5,84.31,6.25,116.17,20.39l126.46,56.13,187.84-83.37L1093,2261.74"/></g><g id="path2624"><path class="cls-9" d="M810.35,2218.76c-84.34,37.42-209.6,42.52-279.77,11.37s-58.67-86.72,25.63-124.14,209.55-42.49,279.72-11.37,58.71,86.73-25.58,124.14"/></g><g id="path2628"><path class="cls-9" d="M462.09,2066.7c-41.42,18.4-108.63,18.4-150.06,0s-41.48-48.2,0-66.61,108.64-18.37,150.06,0,41.43,48.21,0,66.61"/></g><path class="cls-62" d="M444.88,2010.1a21.32,21.32,0,0,1,3.77,2.54c2.29,1.94,3.47,4,3.56,6.08s-.85,4.24-2.83,6.4a27.83,27.83,0,0,1-8.91,6L420.42,2024q4.79-2.37,4-4.65c-.5-1.53-2.14-2.78-4.92-3.77a26.21,26.21,0,0,0-10.7-1.36,27.56,27.56,0,0,0-9.51,2.16,8.85,8.85,0,0,0-3.81,2.94q-1.12,1.71,2.82,4.81l7.93,6.54q7.69,6.15,4.9,11.08t-11.41,8.89A63.66,63.66,0,0,1,386,2055a102.14,102.14,0,0,1-15.87,1.95,96,96,0,0,1-16.35-.64q-3.59-.43-6.93-1.16l-11,5L321.2,2055l10.88-5q-6.7-3.63-7.63-8.24c-.49-2.15.17-4.38,2-6.69s5.1-4.61,9.81-6.89l20.05,7.09a10.51,10.51,0,0,0-4.45,4.5c-.7,1.62,1,3.15,5,4.57a33.25,33.25,0,0,0,11,1.64,27,27,0,0,0,11.41-2.27c2.68-1.24,4.21-2.56,4.6-4s-.74-3.16-3.37-5.24l-6.78-5.2q-6.58-5.11-5.52-10.28t10.83-9.64A61.8,61.8,0,0,1,393,2005a94.41,94.41,0,0,1,16-1.75,90.07,90.07,0,0,1,15.65.78q2.79.39,5.42.94l13.7-6.3,14.64,5.18Z"/><g id="path26281"><path class="cls-9" d="M1017.92,2304.24c-41.43,18.4-108.63,18.4-150.06,0s-41.48-48.2,0-66.6,108.63-18.37,150.06,0,41.43,48.2,0,66.6"/></g><path class="cls-62" d="M1000.71,2247.64a22.27,22.27,0,0,1,3.77,2.54q3.42,2.93,3.56,6.09t-2.84,6.39a27.67,27.67,0,0,1-8.91,6l-20-7.09q4.77-2.36,4-4.65c-.49-1.52-2.14-2.78-4.92-3.76a26.18,26.18,0,0,0-10.69-1.37,27.67,27.67,0,0,0-9.52,2.17,8.77,8.77,0,0,0-3.81,2.94c-.75,1.13.2,2.74,2.83,4.81l7.93,6.54q7.68,6.15,4.89,11.07t-11.41,8.9a63.48,63.48,0,0,1-13.8,4.39,101.84,101.84,0,0,1-15.87,2,98.07,98.07,0,0,1-16.34-.64q-3.6-.45-6.94-1.17l-11,5L877,2292.58l10.89-5q-6.72-3.63-7.63-8.24-.75-3.23,2-6.69t9.82-6.89l20,7.08a10.44,10.44,0,0,0-4.44,4.51q-1.05,2.43,5,4.57a33.55,33.55,0,0,0,11,1.64,26.82,26.82,0,0,0,11.41-2.28q4-1.84,4.6-4t-3.37-5.24l-6.78-5.2q-6.57-5.13-5.52-10.28t10.83-9.65a62.93,62.93,0,0,1,13.91-4.35,96.26,96.26,0,0,1,16-1.75,90.13,90.13,0,0,1,15.66.79c1.85.26,3.66.57,5.41.94l13.7-6.3,14.64,5.18Z"/><g id="path2636"><path class="cls-63" d="M968.05,2474.1l417.6-185.34v192.31l-417.6,185.34V2474.1"/></g><g id="path26361"><path class="cls-64" d="M968.05,2474.1l417.6-185.34v192.31l-417.6,185.34V2474.1"/></g><g id="path2640"><path class="cls-65" d="M275.16,2166.6,487.76,2261l418.31-185.5L693.43,1981,275.16,2166.6"/></g><g id="path2644"><path class="cls-66" d="M275.06,2166.54l29.47,13.32,418.61-185.72-29.48-13.32-418.6,185.72"/></g><g id="path2648"><path class="cls-66" d="M458.3,2248.11l30.12,13.13,417.65-185.83-29.13-12.77L458.3,2248.11"/></g><g id="path2652"><path class="cls-67" d="M275.07,2166.54v192.73l213.53,95.56-.78-193.89-212.75-94.4"/></g><g id="path2656"><path class="cls-68" d="M275.07,2166.54v192.73l30.2,14.51-.38-194.2-29.82-13"/></g><g id="path2660"><path class="cls-68" d="M458.72,2247.87l-.31,193.05,30.19,14.51-.12-194.24-29.76-13.32"/></g><g id="path2664"><path class="cls-69" d="M583.91,2383.91,967.4,2549.4l-2.38,0,26.25-11.16,26.3-11.08,52.69-21.94c17.55-7.34,35.22-14.55,52.86-21.79s35.35-14.32,53-21.5l.22.32c-17.33,7.65-34.58,15.42-52,23s-34.7,15.18-52.2,22.67l-52.3,22.48-26.26,11.16-26.25,11.07-1.22.51-1.12-.53L583.7,2384.23l.21-.32"/></g><path class="cls-70" d="M514.23,2405.84l345.62,146.24S684,2477,659.21,2470.53,514.23,2405.84,514.23,2405.84Z"/><path class="cls-70" d="M968,2511.33l.42-3.76-108.68-44.23Z"/><path class="cls-71" d="M488.73,2454.53l5.86-190.24-6.3-2.81Z"/><path class="cls-71" d="M488.29,2261.48l6.3,2.81,412.59-187.82-1.63-1Z"/><g id="path2668"><path class="cls-72" d="M-16.15,2199l144.42,63.48-144.38-59.11Z"/></g><path class="cls-73" d="M-1.47,2146.62l257,98.46S146.05,2197,126,2189.73-1.47,2146.62-1.47,2146.62Z"/><path class="cls-73" d="M-16.24,2086.52l114.45,41.75-114.27-46.42a19.31,19.31,0,0,1,3.44,2.51C-11.87,2085.28-16.24,2086.52-16.24,2086.52Z"/><path class="cls-73" d="M116.14,2132.55,225,2170.9S149.88,2150.25,116.14,2132.55Z"/></g></g></svg>