<svg id="Layer_6" data-name="Layer 6" xmlns="http://www.w3.org/2000/svg" viewBox="0 0 4800 2700"><defs><style>.cls-1{fill:#7fcffa;}.cls-2{fill:#b4caed;}.cls-3{fill:#fff;}.cls-4{fill:#bbd8f9;}.cls-5{fill:#f1f2f2;}.cls-37,.cls-39,.cls-40,.cls-6,.cls-8,.cls-9{fill:#1f398e;}.cls-7{fill:#dae5f8;}.cls-8{font-size:170.19px;}.cls-8,.cls-9{font-family:OpenSans-ExtraBold, Open Sans;font-weight:800;}.cls-9{font-size:128.84px;}.cls-10{fill:#1651da;}.cls-11{fill:#f1f1f1;}.cls-12{fill:#4f2a01;}.cls-13{fill:#176537;}.cls-14{fill:#02966a;}.cls-15{fill:#34ce94;}.cls-16{fill:#10b480;}.cls-17{fill:#dae6ea;}.cls-18{fill:#c3d4d8;}.cls-19{fill:#026a9d;}.cls-20{fill:#f5fbfb;}.cls-21{fill:#28b3ea;}.cls-22,.cls-23,.cls-38,.cls-42,.cls-43,.cls-44,.cls-45{fill:none;}.cls-22{stroke:#bcbdbe;stroke-width:3.06px;}.cls-22,.cls-38,.cls-42,.cls-43,.cls-44,.cls-45{stroke-miterlimit:10;}.cls-24{fill:#303033;}.cls-25{fill:#fff6bf;}.cls-26{fill:#f57319;}.cls-27{fill:#ff9d26;}.cls-28{fill:#a7a9ac;}.cls-29{fill:#bcbec0;}.cls-30{fill:#939598;}.cls-31{fill:#d62821;}.cls-32{fill:#92201a;}.cls-33{fill:#cbecf5;}.cls-34{fill:#d7e9ff;}.cls-35,.cls-36,.cls-46{fill:#edf4ff;}.cls-36{font-size:42.14px;}.cls-36,.cls-37,.cls-39,.cls-40,.cls-46{font-family:OpenSans-Bold, Open Sans;font-weight:700;}.cls-37{font-size:17.98px;}.cls-38{stroke:#1f398e;stroke-width:2.24px;}.cls-39{font-size:53.57px;}.cls-40{font-size:33.56px;}.cls-41{fill:#2664e4;}.cls-42{stroke:#2664e4;}.cls-42,.cls-43,.cls-44{stroke-width:5.53px;}.cls-43{stroke:#bbd8f9;}.cls-44{stroke:#f57319;}.cls-45{stroke:#edf4ff;stroke-width:3.02px;}.cls-46{font-size:73.44px;}.cls-47{font-size:46.37px;}.cls-48{fill:#f7eae6;}.cls-49{isolation:isolate;}.cls-50{fill:#f9960d;}.cls-51{fill:#ffe590;}.cls-52{fill:#703e03;}</style></defs><rect class="cls-1" width="4800" height="2700"/><path d="M4193,2015.51,3008.32,2705.89,2681.75,2700,1431.47,1980.79,1010.53,2186a116.77,116.77,0,0,1-125.12-14.6L0,1446.7V1373l18-10.57L1943,1095.69l302.48,240.67,569.87-95Z"/><polygon class="cls-2" points="102.99 1339.55 62.46 1358.33 72.8 1372.24 998.03 2022.42 1009.9 2030 1020.66 2027.45 1058.82 1981.18 164.14 1345.05 102.99 1339.55"/><polygon class="cls-2" points="90.52 1318.94 18.95 1352.09 29.32 1366.02 1018.93 2060.95 1035.1 2062.4 1046.49 2053.14 1048.84 2026.99 1038.24 1994.4 1024.66 1978.1 120.64 1338.81 90.52 1318.94"/><polygon class="cls-2" points="1018.77 2034.01 1023.47 2021.69 1012.75 1993.1 82.91 1338.13 65.74 1321.86 148.65 1283.47 1125.68 1984.46 1018.77 2034.01"/><path class="cls-3" d="M2336.36,1361.13,1341.12,660.62,26.36,1269.77,37,1283.54l987.51,694.8,22.08,34.75,2.06,31.84-10.14,20.21L2353.26,1456c8.58-4,14-13.14,15.09-25.8C2370.56,1405.63,2356.5,1375.31,2336.36,1361.13Z"/><polygon class="cls-4" points="1335.88 1824.68 1094.88 1936.34 617.93 1600.63 858.93 1488.97 1335.88 1824.68"/><polygon class="cls-4" points="1599.77 1702.41 1358.75 1814.08 881.81 1478.36 1122.79 1366.69 1599.77 1702.41"/><polygon class="cls-4" points="1711.81 1473.3 1386.68 1244.44 1145.68 1356.11 1470.81 1584.96 1711.81 1473.3"/><polygon class="cls-4" points="1863.48 1580.22 1750.59 1500.77 1509.59 1612.44 1622.5 1691.89 1863.48 1580.22"/><polygon class="cls-5" points="2273.4 1390.3 1924.46 1551.97 1448.41 1216.89 1797.35 1055.21 2273.4 1390.3"/><polygon class="cls-6" points="1584.81 832.15 270.07 1441.3 282.57 1450.12 1597.33 840.95 1584.81 832.15"/><path class="cls-6" d="M1264.17,1079.6c-17.8-12.55-48.26-15.29-68-6.13L431.57,1427.73c-19.75,9.15-21.33,26.72-3.53,39.25s48.26,15.26,68,6.12l764.59-354.26C1280.37,1109.69,1282,1092.11,1264.17,1079.6Z"/><path class="cls-6" d="M1727,1005.69c-17.8-12.54-48.25-15.28-68-6.13l-1106.94,513c-19.73,9.16-21.31,26.74-3.53,39.27s48.26,15.26,68,6.12l1106.91-513C1743.21,1035.79,1744.79,1018.22,1727,1005.69Z"/><path class="cls-6" d="M1318,717.8c-5.25-3.7-14.27-4.51-20.09-1.81l-188,87.1c-5.83,2.71-6.3,7.9-1,11.58s14.27,4.51,20.1,1.81l188-87.08C1322.77,726.68,1323.24,721.51,1318,717.8Z"/><path class="cls-6" d="M1063.83,835.54c-5.26-3.68-14.24-4.49-20.07-1.8l-55.64,25.78c-5.83,2.71-6.3,7.9-1,11.58s14.24,4.52,20.09,1.81l55.62-25.77C1068.6,844.43,1069.06,839.25,1063.83,835.54Z"/><path class="cls-7" d="M1011.67,1987.67,65.74,1321.86l-.94,10.38L1006.5,1995c7,4.89,12.2,16.21,11.44,24.67-.29,3.16-1.37,5.39-2.94,6.14s-4,.1-6.61-1.73L62.46,1358.33l-.94,10.36,941.7,662.79a18.66,18.66,0,0,0,9,3.63,12.49,12.49,0,0,0,6.5-1.1c4.65-2.16,7.54-7,8.13-13.49C1028,2008.84,1021.25,1994.41,1011.67,1987.67Z"/><path class="cls-7" d="M1021.62,1970.29,26.36,1269.77l-.93,10.35,991,697.53c17.46,12.29,30.11,39.6,28.2,60.87-.84,9.33-4.36,15.88-9.91,18.46s-12.84,1-20.5-4.37L19,1352.09,18,1362.44,1009,2060c6,4.21,12,6.61,17.68,7.12a22.81,22.81,0,0,0,11.79-2c8.61-4,14-13.15,15.1-25.81C1055.8,2014.8,1041.76,1984.46,1021.62,1970.29Z"/><text class="cls-8" transform="matrix(0.91, -0.42, 0.82, 0.58, 304.32, 1390.28)">FINANCE NEWS</text><polygon class="cls-4" points="1899.6 1188.66 1668.03 1295.96 1645.67 1280.22 1877.24 1172.93 1899.6 1188.66"/><polygon class="cls-4" points="1992.02 1253.72 1760.44 1361.01 1738.09 1345.28 1969.66 1237.98 1992.02 1253.72"/><polygon class="cls-4" points="2084.44 1318.77 1852.87 1426.06 1830.51 1410.33 2062.08 1303.03 2084.44 1318.77"/><polygon class="cls-4" points="2176.86 1383.82 1945.29 1491.11 1922.92 1475.38 2154.5 1368.08 2176.86 1383.82"/><text class="cls-9" transform="matrix(0.91, -0.42, 0.82, 0.58, 1584.86, 1268.14)">JOBS</text><path d="M3726,1339.1h0c74.91,29.16,146.11,58.06,232.48,23.29a177.53,177.53,0,0,0,93.13-85.58c14.12-11.6,25.67-24.51,32.94-38.71q13.2-3.48,26.6-7.73c17.06,28,32.34,60.59,34.86,90.08,6.53,76.26-62.58,123.55-62.58,123.55s50.36,1.13,113.08-56.65c21.15-19.49,34.25-37.11,35.08-73.67l2.25,0c20.42,31.86,41.85,67.92,62.3,93.4,31.13,38.81,64.22,74.81,64.22,74.81s60.82-70,24.09-153.77c-14.08-32.1-47-67.5-85.78-101.18,31.91,12.54,64.34,21.13,94.57,22.11,44.26,1.45,79.52-2.52,100.88-19.94,30.37,7.45,66.89,13.22,104.07,11.65,101.43-4.31,140.25-60.17,140.25-60.17l-55.47,3.91c-49.48,2.33-124.08,3-190.08-7.83-39-6.42-97-21.11-155.6-37.43,77.73,7.12,158.53,9.41,221.21-.81,127.74-20.82,220-99,220-99s-39.91,9.14-88.68,18.74c-45.81,8.24-103.43,16.43-158.07,18.07-20.21.61-44.22.39-70.09-.39,63.77-18,121.31-49.46,153.91-81.18,56.35-54.83,23-119.29,23-119.32h0l0,0c-.43.45-27,27.74-66,60.35-29.72,24.82-66.68,52.69-104.9,74.17-8.53-24.09-38.46-45.49-38.46-45.49h0s-19.54,19-41.77,38.6c-10.75,9.48-22.11,19.07-32.23,26.75-1.86-15.37-10.79-28.51-27.49-38.15a94,94,0,0,0-14.22-6.6l-42.61-19.79a72.05,72.05,0,0,0-2.07-7.62s-1.36,1.85-3.75,4.91l-209.42-97.26c-54.24-31.31-181.48-8.63-284.2,50.68s-142,132.77-87.77,164.08L3891.1,1229a67.65,67.65,0,0,0,11.45,8.21c18.54,10.71,44.54,15.89,75,16.08-7,10.19-17.51,20.06-33,28.83-42.19,23.84-84.85,37.66-121.22,45.76a487.45,487.45,0,0,1-65.78,10q-15.43.92-31.53,1.24Z"/><path class="cls-10" d="M3611.59,659.6l37.46,348.18c0,76.93,117.26,139.31,261.91,139.31s261.9-62.38,261.9-139.31l37.47-348.18Z"/><path class="cls-11" d="M3911,500.36c-165.34,0-299.37,71.29-299.37,159.24s134,159.24,299.37,159.24,299.37-71.29,299.37-159.24S4076.29,500.36,3911,500.36Z"/><path class="cls-10" d="M3911,557.06c139.92,0,255.71,53.76,275.5,123.79a78,78,0,0,0,3-21.31c0-80.13-124.7-145.09-278.52-145.09s-278.52,65-278.52,145.09a78.35,78.35,0,0,0,3,21.31C3655.24,610.82,3771,557.06,3911,557.06Z"/><path class="cls-12" d="M3911,804.63c139.92,0,255.71-53.76,275.5-123.78-19.79-70-135.58-123.79-275.5-123.79s-255.72,53.76-275.51,123.79C3655.24,750.87,3771,804.63,3911,804.63Z"/><path class="cls-13" d="M3879.36,296.93c-35.4-39.92-71.16-61-118.42-39.83-23.83,10.68-40,41.29-40,41.29s55.72,112.51,77.17,168.28,60.24,214.18,60.24,214.18l52.62,3.93S3964.51,393,3879.36,296.93Z"/><path class="cls-13" d="M3945.7,373.09c-24.64,35.76-64.59,286.51-64.59,286.51l88.78-8.82,112.94-303.24S4031.44,248.66,3945.7,373.09Z"/><path class="cls-14" d="M3352.49,281.11s139.58,60.75,201.19,106C3697,492.22,3832.73,714.23,3832.73,714.23l90.26-4.14s-137.8-305.92-294.9-394.48C3512.76,250.6,3352.49,281.11,3352.49,281.11Z"/><path class="cls-13" d="M3352.49,281.11s137.8,5.93,261.82,111.35S3842.05,685.7,3842.05,685.7L3799,690.8s-141.51-201.53-227.85-279.91S3352.49,281.11,3352.49,281.11Z"/><path class="cls-13" d="M3895.47,721.89S3923,510,4005.72,407.09c87-108.28,125.85-127.75,180.74-140.45,114.63-26.5,148.71,10.61,148.71,10.61s-106.33,9.08-194.73,107.38c-82.72,92-134.72,258.93-134.72,258.93l-19.3,84.9L3911,742.35Z"/><path class="cls-15" d="M3250.94,581.93s55.12-102.88,161.69-130.28,264.58-.82,323.37,94.29l58.8,95.12S3638,514.37,3565.75,511.57,3250.94,581.93,3250.94,581.93Z"/><path class="cls-16" d="M3422.2,524s-51.15-9.52-82.16-17.43c34.55-12.45,40.59-10.28,68.26-6.18,36.36,5.39,55.3,6.52,55.3,6.52s-27.42-24.81-38.45-49.5c26.54,6.61,79,41.21,79,41.21s-10.72-24.8-11.23-46.5c14,7.68,38.35,54.87,38.35,54.87Z"/><path class="cls-14" d="M3599.66,514.45c93.71,24.64,159.48,100.87,206.7,166.4,17.07,23.69,35.45,46.37,52,65.75a244.08,244.08,0,0,0,52.62-4.25s-87.82-180.74-249.51-239.12-410.51,78.7-410.51,78.7,52.3-14.86,120.11-27.33C3433.57,530.82,3537.32,498.05,3599.66,514.45Z"/><path class="cls-13" d="M3565.75,539.35c125.5,11.26,167.12,149,229.05,190.33,18.28,12.2,42.17,16.25,63.54,16.92-16.53-19.38-25.33-49.7-42.4-73.39-47.22-65.53-122.57-134.12-216.28-158.76-62.34-16.4-166.09,16.37-228.61,40.15C3432.3,543.33,3506.2,534,3565.75,539.35Z"/><path class="cls-15" d="M4109.26,533.54s111.14-86,214.36-67.42,118.1,104.54,135.28,193.48C4305.2,514.45,4109.26,533.54,4109.26,533.54Z"/><path class="cls-14" d="M4458.9,659.6s-49-117.71-153.7-145.15c-84.05-22-216.37-30.19-293.11,79.4-38.84,55.47-79.74,136.46-79.74,136.46a190.62,190.62,0,0,0,42.3,5.94c3.8-11.06,8.28-23.47,13.61-37.31,27.56-71.66,106.83-122.68,198.2-141.88,104.28-21.9,162.85,18.34,190.21,47.35C4431.53,628.91,4458.9,659.6,4458.9,659.6Z"/><path class="cls-13" d="M4186.46,557.06c-91.37,19.2-170.64,70.22-198.2,141.88-5.33,13.84-9.81,26.25-13.61,37.31,30.26.92,70.07-5.15,96.11-37.31,0,0,54.31-125.47,164.75-124.28,58.78.63,105.67,13.91,141.16,29.75C4349.31,575.4,4290.74,535.16,4186.46,557.06Z"/><path class="cls-14" d="M3982,206c-95.45,161.36-92.88,508.19-92.88,508.19s25.19,12.07,33.9,6.75c.4-2.92.85-5.82,1.26-8.74,32.18-223.78,105.61-418.26,147.18-489.73,69-118.67,115-188.28,115-188.28S4058.23,77.13,3982,206Z"/><path class="cls-13" d="M4108,102.14s-28.13,57.67-25.18,100.85-5.48,54.11-5.48,54.11l-28.64,24s-23.59-50.11,0-102.36S4108,102.14,4108,102.14Z"/><path class="cls-13" d="M4017.79,199s-21.68,58.13-12.07,111.31c8.63,47.78,26.38,65,26.38,65l-26.38,31.82s-31.07-32.91-31.07-96.56C3974.65,236.05,4017.79,199,4017.79,199Z"/><path class="cls-13" d="M3945.7,373.09s-22.11,68.8,0,116.71S3982,549.49,3982,549.49l9.37-39.46S3945.86,457.44,3945.7,373.09Z"/><path class="cls-15" d="M4071.43,222.51c-41.57,71.47-115,266-147.18,489.73l16.45,2s81.08-262.53,97.3-307.14c23.32-64.12,77-165.65,102.44-235.41s46-137.45,46-137.45S4140.44,103.84,4071.43,222.51Z"/><path class="cls-14" d="M3774.33,729.4s-20-16.42-57.37-15.17-105.37,28.92-105.37,28.92,45.95-69.94,93.72-71.77,91,42.85,91,42.85Z"/><path class="cls-13" d="M3611.59,743.15S3663.7,698.2,3717,699.07s90.19,37.27,90.19,37.27l-21.35,6.45s-29.21-23.76-64.87-25.87C3675.41,714.23,3611.59,743.15,3611.59,743.15Z"/><path class="cls-16" d="M4132.32,705.15c-60.41-23.88-136.21,30.21-136.21,30.21l6.14,6.36c19.74-14.72,62.84-25.35,106.68-13.21,57,15.77,79.15,58.73,79.15,58.73S4203.46,733.28,4132.32,705.15Z"/><path class="cls-15" d="M4115.32,748.59a64.94,64.94,0,0,1,37.24-5.44c11,1.59,23.1,8,23.1,8s-9.83-25.77-34.47-20.78-31.93,12.81-31.93,12.81Z"/><path class="cls-15" d="M4089.71,740.05s13-16.1,25.61-18.95a182.81,182.81,0,0,1,23.34-3.69s-23.39-7.69-38.55-.26-22.76,22.9-22.76,22.9Z"/><path class="cls-15" d="M4108.93,728.51c-43.84-12.14-86.94-1.51-106.68,13.21-5.9,4.4-9.81,9.16-10.91,13.79,26.45,4.28,47.9-13.24,91.87-3.26,45.3,10.28,104.87,35,104.87,35S4165.89,744.28,4108.93,728.51Z"/><path class="cls-15" d="M3565.41,508.38C3515.91,536.47,3507,621,3507,621s75.84-56.25,118.28-77.13,105.79-8.5,105.79-8.5S3645,463.22,3565.41,508.38Z"/><path class="cls-15" d="M3559.13,538s33.48-19.6,59.87-11.14a148.32,148.32,0,0,1,44.12,22.89l-25.38,7.52S3625,537.1,3559.13,538Z"/><path class="cls-15" d="M3632.44,510s45.2,30.62,68.1,36.31,30.49-5.09,30.49-5.09S3675.41,504.67,3632.44,510Z"/><path class="cls-16" d="M3710.59,579.52c63.41,18.87,111.87,47.81,131.46,127.72a62.74,62.74,0,0,1,1.87,17.55l30,3.66s-7.62-127.19-63.51-168.28-101.05-36.31-109.54-35.75c-77,5.1-153.29,55-193.88,96.62,0,0,36.93-9.48,76.48-17.79C3607,590.42,3662.22,565.12,3710.59,579.52Z"/><path class="cls-15" d="M3785.82,643.56c23.39,23.65,49.48,80.18,49.48,80.18l8.62,1a62.74,62.74,0,0,0-1.87-17.55c-19.59-79.91-68.05-108.85-131.46-127.72-48.37-14.4-103.61,10.9-127.15,23.73,20.27-4.26,41.22-8.21,58.27-10.41C3647.13,592.14,3725.23,582.28,3785.82,643.56Z"/><path class="cls-15" d="M3552.81,136.22s95.46-41.1,172.13,25.55c69.86,60.74,81.47,174.29,81.47,174.29Z"/><path class="cls-16" d="M3552.81,136.22s112.41,78.09,168.12,179,137.41,391.11,137.41,391.11l22.77,15.6s-15.88-139.44-22.77-222.17-41.2-213.19-101.85-279.83C3671.32,126.3,3552.81,136.22,3552.81,136.22Z"/><path class="cls-16" d="M3858.34,706.29c47.32,2.34,126.25-21.13,146.67,35,3.57,9.79-7.54,41-7.54,41l-240.93-13.4S3751.24,701,3858.34,706.29Z"/><path class="cls-15" d="M4005,741.25c-65.38,18.48-192.22,11-230.68-11.85-8.79,3.11-15.68,21.7-17.79,39.42-6.63,55.54,27.75,165.24,154.42,218.58,74.82-84.06,99.5-111,105.78-176.39C4021.77,758.65,4007.17,746.71,4005,741.25Z"/><path class="cls-16" d="M3881.11,721.89s-54.21,22.42-70.87,45.87-24.44,51.08-24.44,51.08,11.76-12.56,30.14-36.62c12.79-16.73,42.4-35.62,42.4-35.62s-17.34,70.53-16.29,117,16.29,79.43,16.29,79.43,5.43-53.12,8.35-99.48S3886.77,761,3886.77,761s37.09,61.54,45.58,88.48,22.82,69.09,22.82,69.09,4.21-48.88-9.27-92.69S3911,762.36,3911,762.36s29,9.84,49.27,18,45.49,22.53,45.49,22.53-14.38-21-41.28-40.57C3947.62,750.15,3881.11,721.89,3881.11,721.89Z"/><path d="M2546,833l-919,530.24c-10.24,5.91-26.83,5.91-37.06,0L931.69,983.39c-10.23-5.9-10.23-15.48,0-21.38l919-530.25c10.23-5.91,26.83-5.91,37.06,0L2546,811.56C2556.25,817.47,2556.25,827,2546,833Z"/><path class="cls-17" d="M2528.21,803.26V758L1882.37,430.62c-11.55-6.66-30.27-6.66-41.81,0L971.65,893.79s0,40.88,0,45.25,2.89,8.73,8.66,12.06l645.84,372.63Z"/><path class="cls-18" d="M971.64,939c0-4.37,0-45.25,0-45.25l156.6-83.48h497.89v513.42L980.3,951.1C974.53,947.77,971.64,943.4,971.64,939Z"/><path class="cls-19" d="M971.12,888.46c-11.55-6.66-11.55-17.46,0-24.11l27.49-15.83,666.75,384.7-48.4,27.87Z"/><path class="cls-17" d="M2528.21,735.36V690.11L1882.37,362.73c-11.55-6.67-30.27-6.67-41.81,0L971.65,825.89s0,40.88,0,45.25,2.89,8.73,8.66,12.06l645.84,372.64Z"/><path class="cls-18" d="M971.64,871.14c0-4.37,0-45.25,0-45.25l156.6-83.48h497.89v513.43L980.3,883.2C974.53,879.87,971.64,875.51,971.64,871.14Z"/><path class="cls-20" d="M2528.21,690.11,1882.37,317.48c-11.55-6.66-30.27-6.66-41.81,0L980.3,813.83c-11.55,6.66-11.55,17.46,0,24.12l645.84,372.64Z"/><path class="cls-19" d="M2446.56,689.93c-10.83-6.24-28.39-6.24-39.22,0s-10.83,16.38,0,22.63,28.4,6.25,39.23,0S2457.39,696.18,2446.56,689.93Z"/><path class="cls-19" d="M2348.51,746.51c-10.83-6.25-28.39-6.25-39.22,0s-10.83,16.38,0,22.63,28.39,6.24,39.22,0S2359.34,752.75,2348.51,746.51Z"/><path class="cls-19" d="M2250.46,803.08c-10.83-6.25-28.39-6.25-39.22,0s-10.83,16.38,0,22.63,28.39,6.25,39.22,0S2261.29,809.33,2250.46,803.08Z"/><path class="cls-19" d="M2152.41,859.65c-10.83-6.24-28.39-6.24-39.22,0s-10.83,16.38,0,22.63,28.39,6.25,39.22,0S2163.24,865.9,2152.41,859.65Z"/><path class="cls-19" d="M2054.36,916.23c-10.83-6.25-28.39-6.25-39.22,0s-10.83,16.38,0,22.63,28.39,6.24,39.22,0S2065.19,922.48,2054.36,916.23Z"/><path class="cls-19" d="M1956.31,972.8c-10.83-6.25-28.39-6.25-39.22,0s-10.83,16.38,0,22.63,28.39,6.25,39.22,0S1967.14,979.05,1956.31,972.8Z"/><path class="cls-19" d="M1858.26,1029.38c-10.83-6.25-28.39-6.25-39.23,0s-10.82,16.37,0,22.62,28.39,6.25,39.22,0S1869.09,1035.62,1858.26,1029.38Z"/><path class="cls-19" d="M1760.2,1086c-10.83-6.25-28.39-6.25-39.22,0s-10.83,16.38,0,22.63,28.39,6.25,39.22,0S1771,1092.2,1760.2,1086Z"/><path class="cls-19" d="M1662.15,1142.52c-10.83-6.25-28.39-6.25-39.22,0s-10.83,16.38,0,22.63,28.39,6.25,39.22,0S1673,1148.77,1662.15,1142.52Z"/><polygon class="cls-19" points="2537.39 730.12 1616.96 1261.09 1616.96 1283.72 2537.39 752.75 2537.39 730.12"/><path class="cls-21" d="M970.82,910.78c-4.62-2.66-8.36-9.14-8.36-14.47V876.38c0,4.77,3.3,8.73,8.66,12.08L1617,1261.08v22.64Z"/><polygon class="cls-19" points="2528.21 735.41 2528.21 724.83 2537.39 730.17 2528.21 735.41"/><path class="cls-22" d="M2357.76,657.71,1881.35,382.83c-9.24-5.33-24.21-5.33-33.45,0l-45,26c-9.24,5.33-9.24,14,0,19.3L2279.33,703c9.23,5.33,24.21,5.33,33.44,0l45-26C2367,671.68,2367,663,2357.76,657.71Z"/><line class="cls-22" x1="2335.26" y1="689.99" x2="1825.41" y2="395.81"/><path class="cls-22" d="M2240.11,744.9,1606.4,1110.51c-9.24,5.33-24.21,5.33-33.44,0L1096.88,835.44c-9.23-5.34-9.23-14,0-19.31l633.37-365.42c9.24-5.32,24.21-5.32,33.45,0L2240.11,725.6C2249.34,730.93,2249.34,739.57,2240.11,744.9Z"/><line class="cls-22" x1="2217.68" y1="757.91" x2="1707.74" y2="463.7"/><line class="cls-22" x1="2178.39" y1="780.54" x2="1668.46" y2="486.32"/><line class="cls-22" x1="2139.1" y1="803.16" x2="1629.17" y2="508.95"/><line class="cls-22" x1="2099.81" y1="825.79" x2="1589.88" y2="531.57"/><line class="cls-22" x1="2060.53" y1="848.41" x2="1550.59" y2="554.2"/><line class="cls-22" x1="2021.24" y1="871.03" x2="1511.3" y2="576.82"/><line class="cls-22" x1="1981.95" y1="893.66" x2="1472.01" y2="599.44"/><line class="cls-22" x1="1942.66" y1="916.28" x2="1432.73" y2="622.07"/><line class="cls-22" x1="1903.37" y1="938.91" x2="1393.44" y2="644.69"/><line class="cls-22" x1="1864.09" y1="961.53" x2="1354.15" y2="667.31"/><line class="cls-22" x1="1824.8" y1="984.15" x2="1314.86" y2="689.94"/><line class="cls-22" x1="1746.22" y1="1029.4" x2="1236.29" y2="735.19"/><line class="cls-22" x1="1706.93" y1="1052.03" x2="1197" y2="757.81"/><line class="cls-22" x1="1667.65" y1="1074.65" x2="1157.71" y2="780.43"/><line class="cls-22" x1="1628.36" y1="1097.27" x2="1118.42" y2="803.06"/><line class="cls-22" x1="1785.51" y1="1006.78" x2="1275.58" y2="712.56"/><path class="cls-23" d="M1725.1,1278.38c-5.48,3.17-12.68,3.19-20.81.26l31.43-18.13C1734.19,1269,1730.57,1275.22,1725.1,1278.38Z"/><path class="cls-6" d="M1725.1,1278.38c5.47-3.16,9.09-9.38,10.62-17.87a54.85,54.85,0,0,0,.85-9.77c0-10.22-2.43-21.32-6.62-32.2a125.39,125.39,0,0,0-8.46-17.72l16.87-9.74a143,143,0,0,1,8.59,17.66c5.39,13.28,8.58,27.07,8.85,40.18,0,.61.08,1.22.08,1.82,0,20.74-7.5,36.5-21.12,44.36a38.19,38.19,0,0,1-19.31,5c-9.3,0-19.41-3-29.69-8.93-.52-.3-1-.66-1.54-1l20.07-11.58C1712.42,1281.57,1719.62,1281.55,1725.1,1278.38Z"/><path class="cls-6" d="M1646.42,1142.2a37.69,37.69,0,0,1,7.07-3c12.34-4,26.91-1.72,41.93,6.93a102.06,102.06,0,0,1,18.47,13.87,136.15,136.15,0,0,1,24.46,31.1l-16.87,9.73a115,115,0,0,0-25.27-30.63,76,76,0,0,0-10.45-7.35,45.69,45.69,0,0,0-16-6c-5.22-.77-9.89-.13-13.7,2.08s-6.65,5.82-8.59,10.64a45.17,45.17,0,0,1-19.6-2.18C1631.15,1156.11,1637.41,1147.4,1646.42,1142.2Z"/><path class="cls-6" d="M1721.48,1200.79l16.87-9.73v0l-16.87,9.74Z"/><path class="cls-23" d="M1823.11,1221.68c-5.48,3.17-12.68,3.19-20.81.26l31.43-18.13C1832.2,1212.3,1828.58,1218.52,1823.11,1221.68Z"/><path class="cls-6" d="M1823.1,1221.86c5.47-3.16,9.1-9.38,10.63-17.87a55.84,55.84,0,0,0,.84-9.77c0-10.22-2.43-21.32-6.61-32.2a125.39,125.39,0,0,0-8.46-17.72l16.87-9.74a143.55,143.55,0,0,1,8.58,17.65c5.4,13.29,8.59,27.08,8.85,40.19,0,.6.08,1.22.08,1.82,0,20.74-7.5,36.5-21.12,44.35a38.06,38.06,0,0,1-19.3,5c-9.31,0-19.41-3-29.69-8.93-.53-.3-1-.66-1.55-1l20.08-11.58C1810.42,1225.05,1817.63,1225,1823.1,1221.86Z"/><path class="cls-6" d="M1744.47,1085.63a37,37,0,0,1,7.06-3c12.34-4,26.92-1.72,41.93,6.93a101.71,101.71,0,0,1,18.47,13.87,135.88,135.88,0,0,1,24.46,31.1l-16.87,9.73a114.6,114.6,0,0,0-25.27-30.63,75.31,75.31,0,0,0-10.44-7.35,45.86,45.86,0,0,0-16-6c-5.21-.77-9.88-.13-13.7,2.08s-6.64,5.82-8.59,10.64a45.12,45.12,0,0,1-19.59-2.18C1729.19,1099.54,1735.46,1090.83,1744.47,1085.63Z"/><path class="cls-6" d="M1819.49,1144.09l16.87-9.73v0l-16.87,9.73Z"/><path class="cls-23" d="M1921.12,1165c-5.48,3.17-12.68,3.19-20.81.26l31.43-18.13C1930.21,1155.6,1926.59,1161.82,1921.12,1165Z"/><path class="cls-6" d="M1921.11,1165.34c5.47-3.16,9.09-9.38,10.62-17.88a54.78,54.78,0,0,0,.84-9.76c0-10.22-2.43-21.32-6.61-32.21a125.8,125.8,0,0,0-8.46-17.71l16.87-9.74a142.85,142.85,0,0,1,8.58,17.65c5.4,13.29,8.59,27.08,8.86,40.19,0,.6.07,1.22.07,1.82,0,20.74-7.5,36.49-21.12,44.35a38,38,0,0,1-19.3,5c-9.3,0-19.41-3-29.69-8.92-.52-.3-1-.66-1.55-1l20.08-11.58C1908.43,1168.52,1915.63,1168.51,1921.11,1165.34Z"/><path class="cls-6" d="M1842.52,1029.06a37.32,37.32,0,0,1,7.06-3c12.34-4,26.91-1.72,41.93,6.93a101.71,101.71,0,0,1,18.47,13.87,135.88,135.88,0,0,1,24.46,31.1l-16.87,9.73A115,115,0,0,0,1892.3,1057a76,76,0,0,0-10.45-7.35,45.69,45.69,0,0,0-16-6c-5.22-.77-9.89-.13-13.7,2.08s-6.65,5.82-8.59,10.65a45.47,45.47,0,0,1-19.6-2.18C1827.24,1043,1833.5,1034.26,1842.52,1029.06Z"/><path class="cls-6" d="M1917.5,1087.4l16.86-9.74,0,0-16.87,9.73Z"/><path class="cls-23" d="M2019.13,1108.28c-5.48,3.17-12.69,3.19-20.81.26l31.43-18.13C2028.22,1098.9,2024.59,1105.12,2019.13,1108.28Z"/><path class="cls-6" d="M2019.11,1108.81c5.47-3.15,9.09-9.37,10.62-17.87a54.74,54.74,0,0,0,.85-9.76c0-10.23-2.43-21.32-6.62-32.21a124.25,124.25,0,0,0-8.46-17.72l16.87-9.73a142.23,142.23,0,0,1,8.59,17.65c5.39,13.29,8.58,27.08,8.85,40.19,0,.6.08,1.22.08,1.82,0,20.74-7.5,36.49-21.12,44.35a38.18,38.18,0,0,1-19.3,5c-9.31,0-19.41-3-29.7-8.92-.52-.3-1-.67-1.54-1l20.08-11.59C2006.43,1112,2013.63,1112,2019.11,1108.81Z"/><path class="cls-6" d="M1940.56,972.49a37.88,37.88,0,0,1,7.06-3c12.34-4,26.92-1.72,41.93,6.93A101.71,101.71,0,0,1,2008,990.25a136.09,136.09,0,0,1,24.46,31.1l-16.87,9.74a114.49,114.49,0,0,0-25.27-30.64,75.31,75.31,0,0,0-10.44-7.35,45.88,45.88,0,0,0-16-6c-5.22-.77-9.89-.13-13.7,2.08s-6.65,5.82-8.6,10.65a45.43,45.43,0,0,1-19.59-2.18C1925.28,986.4,1931.55,977.69,1940.56,972.49Z"/><path class="cls-6" d="M2015.5,1030.7l16.87-9.74,0,0-16.87,9.73Z"/><path class="cls-23" d="M2117.13,1051.58c-5.47,3.18-12.68,3.19-20.8.26l31.43-18.13C2126.23,1042.21,2122.6,1048.43,2117.13,1051.58Z"/><path class="cls-6" d="M2117.11,1052.29c5.47-3.16,9.1-9.38,10.63-17.87a54.81,54.81,0,0,0,.84-9.77c0-10.22-2.43-21.31-6.61-32.2a126.45,126.45,0,0,0-8.46-17.72l16.87-9.73a142.16,142.16,0,0,1,8.58,17.65c5.4,13.29,8.59,27.07,8.86,40.18,0,.61.07,1.22.07,1.82,0,20.74-7.5,36.5-21.12,44.36a38.16,38.16,0,0,1-19.3,5c-9.31,0-19.41-3-29.69-8.92-.52-.3-1-.67-1.55-1l20.08-11.59C2104.43,1055.48,2111.64,1055.46,2117.11,1052.29Z"/><path class="cls-6" d="M2038.61,915.92a37.32,37.32,0,0,1,7.06-3c12.34-4,26.91-1.72,41.93,6.93a102.18,102.18,0,0,1,18.47,13.87,135.88,135.88,0,0,1,24.46,31.1l-16.87,9.73c-6.86-11.85-15.6-22.61-25.27-30.63a75.91,75.91,0,0,0-10.44-7.35,46.13,46.13,0,0,0-16-6c-5.22-.77-9.89-.13-13.7,2.08s-6.65,5.83-8.59,10.65a45.47,45.47,0,0,1-19.6-2.18C2023.33,929.84,2029.59,921.12,2038.61,915.92Z"/><path class="cls-6" d="M2113.51,974l16.87-9.73,0,0L2113.53,974Z"/><path class="cls-23" d="M2215.14,994.88c-5.48,3.18-12.68,3.19-20.8.26L2225.76,977C2224.23,985.51,2220.61,991.73,2215.14,994.88Z"/><path class="cls-6" d="M2215.12,995.77c5.47-3.16,9.09-9.38,10.62-17.87a54.89,54.89,0,0,0,.84-9.77c0-10.22-2.42-21.32-6.61-32.2a125.91,125.91,0,0,0-8.46-17.72l16.87-9.73a140.77,140.77,0,0,1,8.58,17.65c5.4,13.29,8.59,27.07,8.86,40.18,0,.61.08,1.22.08,1.82,0,20.74-7.51,36.5-21.13,44.36a38.13,38.13,0,0,1-19.3,5c-9.3,0-19.41-3-29.69-8.93-.52-.3-1-.66-1.54-1L2194.31,996C2202.44,999,2209.64,998.94,2215.12,995.77Z"/><path class="cls-6" d="M2136.65,859.35a37.88,37.88,0,0,1,7.06-3c12.34-4,26.92-1.72,41.94,6.93a102.11,102.11,0,0,1,18.46,13.87,136.13,136.13,0,0,1,24.47,31.1L2211.71,918a114.87,114.87,0,0,0-25.27-30.64A76,76,0,0,0,2176,880a46.09,46.09,0,0,0-16-6c-5.22-.77-9.89-.13-13.7,2.08s-6.65,5.82-8.6,10.65a45.44,45.44,0,0,1-19.59-2.18C2121.37,873.27,2127.64,864.55,2136.65,859.35Z"/><path class="cls-6" d="M2211.52,917.3l16.87-9.73,0,0-16.87,9.73Z"/><path class="cls-23" d="M2313.15,938.19c-5.48,3.17-12.68,3.18-20.8.26l31.42-18.14C2322.24,928.81,2318.62,935,2313.15,938.19Z"/><path class="cls-6" d="M2313.12,939.25c5.47-3.16,9.09-9.38,10.63-17.87a55.84,55.84,0,0,0,.84-9.77c0-10.22-2.43-21.32-6.61-32.2a125.39,125.39,0,0,0-8.46-17.72l16.87-9.74a143,143,0,0,1,8.58,17.66c5.39,13.28,8.59,27.07,8.85,40.18,0,.6.08,1.22.08,1.82,0,20.74-7.5,36.5-21.12,44.35a38.06,38.06,0,0,1-19.3,5c-9.31,0-19.41-3-29.7-8.93-.52-.3-1-.66-1.54-1l20.08-11.58C2300.44,942.44,2307.64,942.42,2313.12,939.25Z"/><path class="cls-6" d="M2234.7,802.78a37.32,37.32,0,0,1,7.06-3c12.34-4,26.91-1.72,41.93,6.93a102.18,102.18,0,0,1,18.47,13.87,136.09,136.09,0,0,1,24.46,31.1l-16.87,9.74c-6.86-11.86-15.6-22.62-25.27-30.64a76.17,76.17,0,0,0-10.44-7.35,46.13,46.13,0,0,0-16-6c-5.22-.77-9.89-.13-13.7,2.08s-6.65,5.83-8.59,10.65a45.41,45.41,0,0,1-19.59-2.18C2219.42,816.7,2225.68,808,2234.7,802.78Z"/><path class="cls-6" d="M2309.53,860.6l16.87-9.73v0l-16.87,9.74Z"/><path class="cls-23" d="M2411.16,881.49c-5.48,3.17-12.68,3.19-20.81.26l31.43-18.14C2420.25,872.11,2416.63,878.33,2411.16,881.49Z"/><path class="cls-6" d="M2411.13,882.73c5.46-3.16,9.09-9.38,10.62-17.88a54.78,54.78,0,0,0,.84-9.76c0-10.22-2.43-21.32-6.61-32.2a125.39,125.39,0,0,0-8.46-17.72l16.87-9.74a143.55,143.55,0,0,1,8.58,17.65c5.4,13.29,8.59,27.08,8.86,40.19,0,.6.07,1.22.07,1.82,0,20.74-7.5,36.49-21.12,44.35a38,38,0,0,1-19.3,5c-9.31,0-19.41-3-29.69-8.93-.52-.3-1-.66-1.55-1L2390.32,883C2398.45,885.91,2405.65,885.9,2411.13,882.73Z"/><path class="cls-6" d="M2332.74,746.21a37.69,37.69,0,0,1,7.07-3c12.34-4,26.91-1.71,41.93,6.93A102.52,102.52,0,0,1,2400.21,764a136.37,136.37,0,0,1,24.46,31.1l-16.87,9.74a115,115,0,0,0-25.27-30.64,76,76,0,0,0-10.45-7.35,46.09,46.09,0,0,0-16-6c-5.22-.77-9.89-.13-13.7,2.08s-6.65,5.83-8.59,10.65a45.47,45.47,0,0,1-19.6-2.18C2317.46,760.13,2323.73,751.41,2332.74,746.21Z"/><path class="cls-6" d="M2407.54,803.9l16.87-9.73v0l-16.87,9.74Z"/><path class="cls-23" d="M2509.17,824.79c-5.48,3.17-12.68,3.19-20.81.26l31.43-18.13C2518.26,815.41,2514.64,821.63,2509.17,824.79Z"/><path class="cls-6" d="M2509.13,826.21c5.47-3.16,9.09-9.38,10.62-17.88a54.74,54.74,0,0,0,.85-9.76c0-10.22-2.43-21.32-6.62-32.21a124.25,124.25,0,0,0-8.46-17.72l16.87-9.73a142.92,142.92,0,0,1,8.59,17.65c5.39,13.29,8.58,27.08,8.85,40.19,0,.6.08,1.22.08,1.82,0,20.74-7.5,36.49-21.12,44.35a38.09,38.09,0,0,1-19.31,5c-9.3,0-19.41-3-29.69-8.92-.52-.3-1-.67-1.54-1l20.07-11.58C2496.45,829.39,2503.65,829.38,2509.13,826.21Z"/><path class="cls-6" d="M2430.79,689.64a36.92,36.92,0,0,1,7.06-3c12.34-4,26.92-1.73,41.93,6.92a102.18,102.18,0,0,1,18.47,13.87,136.09,136.09,0,0,1,24.46,31.1l-16.87,9.74a114.65,114.65,0,0,0-25.27-30.64,76.17,76.17,0,0,0-10.44-7.35,46.13,46.13,0,0,0-16-6c-5.21-.77-9.88-.13-13.7,2.08s-6.65,5.83-8.59,10.65a45.43,45.43,0,0,1-19.59-2.18C2415.51,703.56,2421.78,694.84,2430.79,689.64Z"/><path class="cls-6" d="M2505.55,747.2l16.87-9.73v0l-16.87,9.74Z"/><path d="M1289.63,945.24h0l47.06-26.8c.92-4.09,2.77-7.07,5.68-8.6L1384,886l1.41-.79h0l8.14-4.59h0l1.06-.67,12.37-7c2.81-1.61,6.35-1.89,10.24-.5l558.12-317.82a8.47,8.47,0,0,1,1.72-.61l0-.12,81.54-24.74,25.71-7.8-19.79,18.15-62.82,57.63-.07-.1c-.41.37-.88.8-1.31,1.16L1442.23,916c-1,4-2.94,7.08-5.72,8.64l-6.64,3.78-.09.08-6.68,3.78h0l-8.14,4.65h0l-6.72,3.89h0l-36.34,20.68h0c-2.81,1.64-6.41,1.86-10.39.49l-47,26.86h0c-3.27,1.79-7.63,1.48-12.54-1.31-9.77-5.69-17.64-19.52-17.61-30.76C1284.42,951.1,1286.37,947.13,1289.63,945.24Z"/><polygon class="cls-24" points="2059.23 523.79 2079.03 505.58 2053.3 513.38 2059.23 523.79"/><path class="cls-25" d="M1971.77,538.15l24.59,43.28,62.87-57.64h0a3.25,3.25,0,0,0,.88-2.51A9,9,0,0,0,2056,514a3.26,3.26,0,0,0-2.65-.58h0Z"/><path class="cls-26" d="M1402.11,862.36,1427,906,1995,582.46c3.16-1.86,5.07-5.79,5.18-11.47,0-11.24-7.88-25.12-17.56-30.82-5-2.8-9.32-3.11-12.63-1.28Z"/><polygon class="cls-6" points="1732.72 727.1 1732.7 718.92 1535.49 831.48 1535.46 839.6 1732.72 727.1"/><polygon class="cls-6" points="1526.88 844.51 1527 836.3 1478.68 863.95 1478.68 872.09 1526.88 844.51"/><path class="cls-27" d="M1414.64,863.68c9.74,5.67,17.59,19.5,17.51,30.77s-7.93,15.85-17.72,10.18-17.62-19.46-17.55-30.83S1404.86,857.93,1414.64,863.68Z"/><path class="cls-24" d="M1414.54,877.8a12.4,12.4,0,0,1,5.5,9.58c0,3.52-2.51,4.84-5.55,3.14s-5.35-6.14-5.4-9.62S1411.45,876.06,1414.54,877.8Z"/><path class="cls-28" d="M1337.06,894.12l29.58,51.69,64.55-36.93c3.84-2.13,6.21-6.92,6.24-13.57.1-13.47-9.21-29.84-20.89-36.5-5.78-3.46-11-3.75-14.83-1.6Z"/><path class="cls-29" d="M1351.88,895.6c11.65,6.8,21,23.1,20.9,36.52s-9.51,18.91-21.11,12.11-21-23.14-20.86-36.6S1340.32,888.82,1351.88,895.6Z"/><path class="cls-30" d="M1358.56,891.79c11.56,6.77,21,23.2,21,36.55,0,6.77-2.41,11.43-6.2,13.56l6.73-3.83c3.78-2.16,6.22-6.85,6.24-13.53,0-13.46-9.21-29.84-20.9-36.59-5.72-3.4-11-3.66-14.82-1.55l-6.83,3.82C1347.57,888.05,1352.79,888.43,1358.56,891.79Z"/><path class="cls-30" d="M1373.39,883.32c11.56,6.82,21,23.13,20.94,36.59,0,6.71-2.46,11.37-6.29,13.58l6.83-3.87c3.82-2.2,6.22-6.89,6.23-13.62.1-13.39-9.25-29.76-20.9-36.59-5.78-3.31-11-3.68-14.82-1.48l-6.86,3.87C1362.39,879.67,1367.6,879.94,1373.39,883.32Z"/><path class="cls-30" d="M1388.26,874.89c11.64,6.76,21,23.09,20.89,36.53-.07,6.73-2.47,11.38-6.19,13.6l6.73-3.86c3.92-2.16,6.21-6.88,6.24-13.53.09-13.51-9.34-29.87-20.86-36.63-5.82-3.37-11.13-3.69-14.91-1.53l-6.83,3.89C1377.17,871.22,1382.47,871.53,1388.26,874.89Z"/><path class="cls-30" d="M1403,866.47c11.69,6.7,21.12,23,21,36.5,0,6.7-2.41,11.42-6.18,13.62l6.72-3.9c3.87-2.21,6.22-6.87,6.24-13.58,0-13.45-9.25-29.79-20.85-36.52-5.84-3.42-11.05-3.73-14.92-1.55l-6.68,3.84C1392,862.67,1397.25,863.05,1403,866.47Z"/><path class="cls-31" d="M1284.4,929.44l24.88,43.65L1363.73,942c3.21-1.85,5.3-5.84,5.27-11.51.08-11.27-7.82-25.09-17.56-30.79-4.92-2.85-9.38-3.16-12.63-1.3Z"/><path class="cls-32" d="M1297,930.81c9.74,5.69,17.54,19.51,17.52,30.77s-8,15.87-17.82,10.18-17.63-19.45-17.57-30.81S1287.13,925.17,1297,930.81Z"/><path class="cls-6" d="M2775.24,2631.1c1.37.65,2.77,1.28,4.19,1.87C2778,2632.39,2776.61,2631.76,2775.24,2631.1Z"/><path class="cls-6" d="M2779.44,2633c1.86.78,3.76,1.5,5.7,2.18Q2782.23,2634.16,2779.44,2633Z"/><path class="cls-6" d="M2785.14,2635.16q1.59.54,3.21,1.05Q2786.73,2635.7,2785.14,2635.16Z"/><path class="cls-6" d="M3780.36,2120.36l-857.22,494.76V2441.34H2760.62V2623l-1268.2-732.21c-17.05-9.84-24.94-23.15-24.24-37h-.11v-59.9l105.58,13.94,798.61-460.91c41.73-24.1,104.84-26.71,141-5.85L2888,1557.37,2968,1603.6l672.23,388.11,174.59,23V2073C3815.54,2089.35,3803.84,2106.81,3780.36,2120.36Z"/><path class="cls-6" d="M2968,1603.6l-101.35,837.74H2760.62V2623l-1268.2-732.21c-17.05-9.84-24.94-23.15-24.24-37h-.11v-59.9l105.58,13.94,434-250.4H2888Z"/><path class="cls-33" d="M2866.68,2441.34l-24.25,200.47q-5.85.38-11.66.38c-1,0-2,0-3,0s-2,0-3-.08h-.28c-.85,0-1.71-.07-2.55-.12s-1.56-.08-2.35-.14-1.57-.1-2.35-.17l-.58,0-2-.19c-.37,0-.75-.07-1.11-.12-.55,0-1.09-.1-1.63-.17-.36,0-.72-.08-1.07-.13l-1.53-.2c-.79-.1-1.59-.21-2.36-.34h0l-2.5-.4-.52-.09-2.4-.44-.32-.06-2.74-.57q-3.28-.71-6.47-1.59l-1.58-.45-.09,0-.24-.07c-.8-.24-1.6-.48-2.38-.74l-2.59-.85c-1.45-.52-2.89-1-4.29-1.61l-1.41-.57h0c-1.42-.59-2.82-1.22-4.19-1.87s-2.71-1.35-4-2c-.52-.29-1-.58-1.55-.88l-9.06-5.22V2441.34Z"/><path class="cls-33" d="M2775.24,2631.1c1.37.65,2.77,1.28,4.19,1.87C2778,2632.39,2776.61,2631.76,2775.24,2631.1Z"/><path class="cls-33" d="M2779.44,2633c1.86.78,3.76,1.5,5.7,2.18Q2782.23,2634.16,2779.44,2633Z"/><path class="cls-33" d="M2795.13,2638.1l.23.06Z"/><path class="cls-33" d="M2792.39,2637.39l2.74.71Z"/><path class="cls-33" d="M2797.91,2638.75c1.21.27,2.44.52,3.67.76h0l-.32-.06c-.91-.18-1.84-.37-2.74-.57l-1-.23a1.9,1.9,0,0,1-.36-.09Z"/><path class="cls-33" d="M2801.58,2639.51q1.05.21,2.13.39Q2802.63,2639.72,2801.58,2639.51Z"/><path class="cls-33" d="M2803.71,2639.9l1.17.2-.41-.06-.52-.09Z"/><path class="cls-33" d="M2923.14,2441.34v173.78l-12.49,7.21A136.06,136.06,0,0,1,2887,2633a172.62,172.62,0,0,1-48.16,9.08,160.49,160.49,0,0,1-34-2l2.09.34h0c.78.13,1.57.24,2.36.34l1.53.2c.35.05.71.1,1.07.13.54.07,1.08.13,1.63.17.36,0,.74.09,1.11.12l2,.19.58,0c.78.07,1.56.13,2.35.17s1.56.1,2.35.14,1.7.09,2.55.12h.28c1,0,2,.06,3,.08s2,0,3,0c2.69,0,5.4-.06,8.1-.19,1.19-.05,2.37-.12,3.56-.19l17.7-146.3,6.55-54.17Z"/><path class="cls-33" d="M2790.44,2636.84l1.95.55-.37-.1Z"/><path class="cls-33" d="M2785.14,2635.16q1.59.54,3.21,1.05Q2786.73,2635.7,2785.14,2635.16Z"/><path class="cls-6" d="M2887,2495.51V2633a172.62,172.62,0,0,1-48.16,9.08V2495.51Z"/><path class="cls-34" d="M3769,1970.33,2530.36,1254.8c-48-27.69-86.83-102-86.83-165.9V117.24c0-63.94,38.88-93.33,86.83-65.64L3769,767.13c48,27.69,86.83,102,86.83,165.9v971.66C3855.8,1968.63,3816.92,1998,3769,1970.33Z"/><path class="cls-10" d="M3780.15,1920.39,2554.76,1212.58c-38.59-24.53-62.46-73.53-62.46-123.68V112.52a15.39,15.39,0,0,1,23.18-13.25l2.72,1.58,1226.38,708.5C3790.52,835.83,3807,882.89,3807,933v974.1a16.61,16.61,0,0,1-24.85,14.42Z"/><path class="cls-6" d="M3744.57,809.35,2518.2,100.85l-2.72-1.58a15.39,15.39,0,0,0-23.18,13.25V1088.9c0,50.15,23.87,99.15,62.46,123.68l1225.39,707.81,2,1.16a16.61,16.61,0,0,0,24.85-14.42V933C3807,882.89,3790.52,835.83,3744.57,809.35Zm52.71,1097.78a6.9,6.9,0,0,1-6.89,6.88,6.73,6.73,0,0,1-3.38-.93L2559.64,1204.13c-34.85-22.15-57.59-67.47-57.59-115.23V112.52a5.67,5.67,0,0,1,5.68-5.63,5.5,5.5,0,0,1,2.82.79L3739.69,817.79c47.6,27.44,57.59,77.81,57.59,115.24Z"/><path class="cls-6" d="M3793.58,754.06,2555,38.53c-19-11-36.52-13-50.81-7.46-1.81.7-26,13.56-27.73,14.51l-.08.05c14.79-7.18,33.56-5.84,54,6L3769,767.13c48,27.69,86.83,102,86.83,165.9v971.66c0,39.9-15.15,66.34-38.19,73.86,1.88.1,4.22-.63,7.61-2.59,1.1-.63,27.37-15.46,28.42-16.19,16.5-11.55,26.77-35.29,26.77-68.15V920C3880.41,856,3841.53,781.74,3793.58,754.06Z"/><path class="cls-6" d="M3793.58,754.06,2555,38.53c-19-11-36.52-13-50.81-7.46-1.81.7-26,13.56-27.73,14.51l-.08.05c14.79-7.18,33.56-5.84,54,6L3769,767.13Z"/><path class="cls-33" d="M3773.14,765.05,2534.53,49.52c-19.67-11.36-37.74-13-52.3-6.69,12.42-2,26.69,1,41.88,9.81L3762.72,768.17c48,27.69,86.83,102,86.83,165.9v971.66c0,37.72-13.59,63.28-34.53,72.33,26.79-4.25,44.94-31.77,44.94-75.45V931C3860,867,3821.09,792.73,3773.14,765.05Z"/><path class="cls-35" d="M2769.68,2568.34,1492.42,1830.91c-36.13-20.86-31.6-57.3,10.12-81.39l869.72-502c41.72-24.09,104.83-26.71,141-5.85l1277.26,737.43c36.13,20.86,31.6,57.3-10.12,81.39l-869.72,502C2868.92,2586.58,2805.81,2589.2,2769.68,2568.34Z"/><path class="cls-33" d="M3780.37,2038.65l-869.72,502c-41.73,24.09-104.84,26.71-141,5.85L1492.42,1809c-11.85-6.84-19.24-15.36-22.47-24.57-5.65,17.09,1.56,34.38,23.9,47.28l1277.26,737.42c34.7,20,97.81,17.42,139.54-6.66l869.72-502c28-16.19,39.19-38,32.58-56.82C3808.84,2016.16,3798,2028.5,3780.37,2038.65Z"/><path class="cls-6" d="M1966.2,1614.67l-57.79-33.36c-4.64-2.68-4.06-7.36,1.3-10.46l68.21-39.38c5.36-3.09,13.46-3.43,18.1-.75l57.79,33.37c4.65,2.68,4.06,7.36-1.3,10.45l-68.21,39.38C1978.94,1617,1970.84,1617.35,1966.2,1614.67Z"/><path class="cls-6" d="M2055.44,1666.2l-57.79-33.37c-4.64-2.68-4.06-7.36,1.3-10.45l68.22-39.38c5.36-3.1,13.46-3.43,18.1-.75l57.79,33.36c4.64,2.68,4.06,7.36-1.3,10.46l-68.21,39.38C2068.19,1668.54,2060.08,1668.88,2055.44,1666.2Z"/><path class="cls-6" d="M2144.69,1717.73l-57.79-33.37c-4.64-2.68-4.06-7.36,1.3-10.45l68.21-39.39c5.36-3.09,13.47-3.42,18.11-.74l57.79,33.36c4.64,2.68,4.06,7.36-1.3,10.45L2162.79,1717C2157.44,1720.07,2149.33,1720.41,2144.69,1717.73Z"/><path class="cls-6" d="M2268.12,1675.17l-57.79-33.36c-4.64-2.68-4-7.36,1.3-10.46l57.26-33c5.36-3.1,13.47-3.43,18.11-.75l57.79,33.36c4.64,2.68,4.06,7.36-1.3,10.45l-57.26,33.06C2280.87,1677.52,2272.77,1677.85,2268.12,1675.17Z"/><path class="cls-6" d="M2357.37,1726.7l-57.79-33.37c-4.64-2.68-4.06-7.36,1.3-10.45l57.26-33.06c5.36-3.09,13.47-3.43,18.1-.75l57.79,33.37c4.65,2.68,4.06,7.36-1.29,10.45L2375.47,1726C2370.12,1729,2362,1729.38,2357.37,1726.7Z"/><path class="cls-6" d="M2446.62,1778.23l-57.79-33.37c-4.64-2.68-4.06-7.36,1.3-10.45l57.26-33.06c5.36-3.09,13.46-3.43,18.1-.75l57.79,33.36c4.64,2.68,4.06,7.36-1.3,10.45l-57.26,33.07C2459.36,1780.57,2451.26,1780.9,2446.62,1778.23Z"/><path class="cls-6" d="M2535.87,1829.75l-57.8-33.36c-4.64-2.68-4.05-7.36,1.3-10.46l57.27-33c5.35-3.1,13.46-3.43,18.1-.76l57.79,33.37c4.64,2.68,4.06,7.36-1.3,10.45L2554,1829C2548.61,1832.1,2540.51,1832.43,2535.87,1829.75Z"/><path class="cls-6" d="M2625.11,1881.28l-57.79-33.37c-4.64-2.68-4.06-7.35,1.3-10.45l57.26-33.06c5.36-3.09,13.46-3.43,18.1-.75l57.8,33.37c4.64,2.68,4,7.35-1.3,10.45l-57.27,33.06C2637.86,1883.62,2629.75,1884,2625.11,1881.28Z"/><path class="cls-6" d="M2714.36,1932.81l-57.79-33.37c-4.64-2.68-4.06-7.36,1.3-10.45l57.26-33.06c5.36-3.09,13.46-3.43,18.1-.75l57.79,33.36c4.64,2.68,4.06,7.36-1.3,10.45l-57.26,33.06C2727.1,1935.15,2719,1935.49,2714.36,1932.81Z"/><path class="cls-6" d="M2803.6,1984.33,2745.81,1951c-4.64-2.68-4.06-7.36,1.3-10.45l57.27-33.06c5.35-3.1,13.46-3.44,18.1-.76l57.79,33.37c4.64,2.68,4.06,7.36-1.3,10.45l-57.26,33.06C2816.35,1986.67,2808.24,1987,2803.6,1984.33Z"/><path class="cls-6" d="M2892.85,2035.86l-57.79-33.37c-4.64-2.68-4.06-7.35,1.3-10.45l57.26-33.06c5.36-3.09,13.46-3.43,18.1-.75l57.8,33.37c4.64,2.68,4.05,7.35-1.3,10.45L2911,2035.11C2905.6,2038.2,2897.49,2038.54,2892.85,2035.86Z"/><path class="cls-6" d="M2982.1,2087.39,2924.31,2054c-4.64-2.68-4.06-7.36,1.3-10.45l57.26-33.06c5.36-3.09,13.46-3.43,18.1-.75l57.79,33.36c4.64,2.68,4.06,7.36-1.3,10.46l-57.26,33.05C2994.84,2089.73,2986.74,2090.06,2982.1,2087.39Z"/><path class="cls-6" d="M3071.35,2138.91l-57.8-33.36c-4.64-2.68-4.06-7.36,1.3-10.45l57.26-33.07c5.36-3.09,13.47-3.42,18.11-.75l57.79,33.37c4.64,2.68,4.06,7.36-1.3,10.45l-57.26,33.06C3084.09,2141.25,3076,2141.59,3071.35,2138.91Z"/><path class="cls-6" d="M2399.62,1650.78l-57.79-33.37c-4.64-2.68-4.06-7.36,1.3-10.45l57.26-33.06c5.36-3.09,13.47-3.43,18.11-.75l57.79,33.37c4.64,2.67,4.06,7.35-1.3,10.45L2417.73,1650C2412.37,1653.12,2404.26,1653.46,2399.62,1650.78Z"/><path class="cls-6" d="M2309,1598.48l-57.79-33.36c-4.63-2.68-4.05-7.36,1.3-10.46l57.26-33.05c5.36-3.1,13.47-3.43,18.11-.76l57.79,33.37c4.64,2.68,4.06,7.36-1.3,10.45l-57.26,33.06C2321.79,1600.83,2313.69,1601.16,2309,1598.48Z"/><path class="cls-6" d="M2218.32,1546.1l-124.47-71.86c-4.64-2.68-4.06-7.36,1.3-10.45l57.26-33.06c5.36-3.09,13.46-3.43,18.1-.75L2295,1501.84c4.64,2.68,4.06,7.36-1.3,10.45l-57.26,33.06C2231.06,1548.44,2223,1548.78,2218.32,1546.1Z"/><path class="cls-6" d="M2281.74,1482.4l-101-58.32c-4.64-2.68-4.06-7.36,1.3-10.45l57.26-33.06c5.36-3.09,13.46-3.43,18.1-.75l101,58.32c4.64,2.68,4.06,7.36-1.3,10.45l-57.26,33.06C2294.48,1484.74,2286.38,1485.08,2281.74,1482.4Z"/><path class="cls-6" d="M2488.87,1702.3l-57.79-33.36c-4.64-2.68-4.06-7.36,1.3-10.45l57.26-33.06c5.36-3.1,13.46-3.43,18.1-.75l57.8,33.36c4.64,2.68,4.05,7.36-1.31,10.45L2507,1701.56C2501.61,1704.65,2493.51,1705,2488.87,1702.3Z"/><path class="cls-6" d="M2578.12,1753.83l-57.79-33.37c-4.64-2.67-4.06-7.35,1.3-10.45l57.26-33.06c5.36-3.09,13.46-3.43,18.1-.75l57.79,33.37c4.64,2.68,4.06,7.36-1.3,10.45l-57.26,33.06C2590.86,1756.17,2582.76,1756.51,2578.12,1753.83Z"/><path class="cls-6" d="M2667.36,1805.36,2609.57,1772c-4.64-2.68-4.06-7.36,1.3-10.45l57.26-33.06c5.36-3.09,13.47-3.43,18.11-.75l57.79,33.36c4.64,2.68,4.06,7.36-1.3,10.46l-57.26,33.06C2680.11,1807.7,2672,1808,2667.36,1805.36Z"/><path class="cls-6" d="M2756.61,1856.88l-57.79-33.36c-4.64-2.68-4.06-7.36,1.3-10.45l57.26-33.06c5.36-3.1,13.46-3.43,18.1-.75l57.8,33.36c4.63,2.68,4,7.36-1.31,10.45l-57.26,33.06C2769.36,1859.23,2761.25,1859.56,2756.61,1856.88Z"/><path class="cls-6" d="M2845.86,1908.41l-57.79-33.36c-4.64-2.68-4.06-7.36,1.3-10.46l57.26-33.06c5.36-3.09,13.46-3.43,18.1-.75l57.79,33.37c4.64,2.68,4.06,7.36-1.3,10.45L2864,1907.66C2858.6,1910.75,2850.5,1911.09,2845.86,1908.41Z"/><path class="cls-6" d="M2935.1,1959.94l-57.79-33.37c-4.64-2.68-4.06-7.36,1.3-10.45l57.26-33.06c5.36-3.09,13.47-3.43,18.11-.75l57.79,33.37c4.64,2.67,4.06,7.35-1.3,10.45l-57.26,33.06C2947.85,1962.28,2939.74,1962.62,2935.1,1959.94Z"/><path class="cls-6" d="M3024.35,2011.47l-57.79-33.37c-4.64-2.68-4.06-7.36,1.3-10.45l57.26-33.06c5.36-3.1,13.46-3.43,18.1-.75L3101,1967.2c4.64,2.68,4.06,7.36-1.3,10.45l-57.26,33.06C3037.1,2013.81,3029,2014.14,3024.35,2011.47Z"/><path class="cls-6" d="M3113.6,2063l-57.79-33.36c-4.64-2.68-4.06-7.36,1.3-10.46l57.26-33.06c5.35-3.09,13.46-3.43,18.1-.75l57.79,33.37c4.64,2.68,4.06,7.36-1.3,10.45l-57.26,33.06C3126.34,2065.33,3118.24,2065.67,3113.6,2063Z"/><path class="cls-6" d="M3202.84,2114.52l-57.79-33.37c-4.64-2.68-4.05-7.36,1.3-10.45l57.26-33.06c5.36-3.09,13.47-3.43,18.11-.75l57.79,33.37c4.64,2.67,4.06,7.35-1.3,10.45L3221,2113.77C3215.59,2116.86,3207.48,2117.2,3202.84,2114.52Z"/><path class="cls-6" d="M3361.51,2206.12l-126.1-72.8c-4.64-2.68-4.06-7.36,1.3-10.45l57.26-33.06c5.36-3.09,13.46-3.43,18.1-.75l126.1,72.8c4.64,2.68,4.06,7.36-1.3,10.45l-57.26,33.06C3374.25,2208.46,3366.14,2208.8,3361.51,2206.12Z"/><path class="cls-6" d="M3535.26,2105.8l-106.43-61.44c-4.64-2.68-4.06-7.36,1.3-10.46l57.26-33.05c5.36-3.1,13.46-3.43,18.1-.75l106.43,61.44c4.64,2.68,4.06,7.36-1.3,10.45l-57.26,33.06C3548,2108.15,3539.9,2108.48,3535.26,2105.8Z"/><path class="cls-6" d="M2645.16,1692.22l-57.79-33.36c-4.64-2.68-4.06-7.36,1.3-10.45l57.26-33.06c5.36-3.1,13.46-3.43,18.1-.76l57.79,33.37c4.64,2.68,4.06,7.36-1.3,10.45l-57.26,33.06C2657.91,1694.57,2649.8,1694.9,2645.16,1692.22Z"/><path class="cls-6" d="M2553.69,1639.41l-57.79-33.36c-4.64-2.68-4.06-7.36,1.3-10.45l57.27-33.06c5.35-3.1,13.46-3.43,18.1-.75l57.79,33.36c4.64,2.68,4.06,7.36-1.3,10.46l-57.26,33.05C2566.44,1641.76,2558.33,1642.09,2553.69,1639.41Z"/><path class="cls-6" d="M2462.23,1586.61l-57.79-33.37c-4.64-2.68-4.06-7.36,1.3-10.45l57.26-33.06c5.35-3.09,13.46-3.43,18.1-.75l57.79,33.36c4.64,2.68,4.06,7.36-1.3,10.45l-57.26,33.07C2475,1589,2466.87,1589.29,2462.23,1586.61Z"/><path class="cls-6" d="M2370.76,1533.8,2313,1500.43c-4.64-2.68-4.06-7.36,1.3-10.45l57.26-33.06c5.36-3.09,13.46-3.43,18.1-.75l57.79,33.37c4.65,2.68,4.06,7.35-1.29,10.45l-57.27,33.06C2383.5,1536.14,2375.4,1536.48,2370.76,1533.8Z"/><path class="cls-6" d="M2734.41,1743.75l-57.79-33.37c-4.64-2.67-4.06-7.35,1.3-10.45l57.26-33.06c5.36-3.09,13.46-3.43,18.1-.75l57.79,33.37c4.64,2.68,4.06,7.36-1.3,10.45L2752.51,1743C2747.15,1746.09,2739.05,1746.43,2734.41,1743.75Z"/><path class="cls-6" d="M2823.65,1795.28l-57.79-33.37c-4.64-2.68-4.05-7.36,1.3-10.45l57.26-33.06c5.36-3.1,13.47-3.43,18.11-.75l57.79,33.36c4.64,2.68,4.06,7.36-1.3,10.46l-57.26,33.06C2836.4,1797.62,2828.29,1798,2823.65,1795.28Z"/><path class="cls-6" d="M2912.9,1846.8l-57.79-33.36c-4.64-2.68-4.06-7.36,1.3-10.45l57.26-33.07c5.36-3.09,13.46-3.42,18.1-.74l57.79,33.36c4.64,2.68,4.06,7.36-1.29,10.45L2931,1846.05C2925.65,1849.15,2917.54,1849.48,2912.9,1846.8Z"/><path class="cls-6" d="M3002.15,1898.33,2944.36,1865c-4.64-2.68-4.06-7.36,1.3-10.45l57.26-33.06c5.35-3.09,13.46-3.43,18.1-.75l57.79,33.37c4.64,2.68,4.06,7.36-1.3,10.45l-57.26,33.06C3014.89,1900.67,3006.79,1901,3002.15,1898.33Z"/><path class="cls-6" d="M3091.39,1949.85l-57.79-33.36c-4.64-2.68-4-7.36,1.3-10.45l57.26-33.06c5.36-3.1,13.47-3.43,18.11-.75l57.79,33.36c4.64,2.68,4.06,7.36-1.3,10.46l-57.26,33.06C3104.14,1952.2,3096,1952.53,3091.39,1949.85Z"/><path class="cls-6" d="M3180.64,2001.38,3122.85,1968c-4.64-2.68-4.06-7.36,1.3-10.46l57.26-33.06c5.36-3.09,13.46-3.42,18.1-.74l57.79,33.36c4.64,2.68,4.06,7.36-1.29,10.45l-57.26,33.06C3193.39,2003.73,3185.28,2004.06,3180.64,2001.38Z"/><path class="cls-6" d="M3269.89,2052.91l-57.79-33.37c-4.64-2.68-4.06-7.36,1.3-10.45l57.26-33.06c5.36-3.09,13.46-3.43,18.1-.75l57.79,33.37c4.64,2.68,4.06,7.36-1.3,10.45L3288,2052.16C3282.63,2055.25,3274.53,2055.59,3269.89,2052.91Z"/><path class="cls-6" d="M3359.14,2104.44l-57.8-33.37c-4.64-2.68-4.05-7.36,1.3-10.45l57.27-33.06c5.35-3.1,13.46-3.43,18.1-.75l57.79,33.36c4.64,2.68,4.06,7.36-1.3,10.46l-57.26,33.06C3371.88,2106.78,3363.78,2107.11,3359.14,2104.44Z"/><path class="cls-6" d="M3448.38,2156l-57.79-33.36c-4.64-2.68-4.06-7.36,1.3-10.46l57.26-33c5.36-3.1,13.46-3.43,18.1-.76l57.8,33.37c4.64,2.68,4,7.36-1.3,10.45l-57.27,33.06C3461.13,2158.31,3453,2158.64,3448.38,2156Z"/><path class="cls-6" d="M2598.17,1564.78l-57.79-33.37c-4.64-2.68-4.06-7.36,1.3-10.45l57.26-33.06c5.35-3.09,13.46-3.43,18.1-.75l57.79,33.36c4.64,2.68,4.06,7.36-1.3,10.45L2616.27,1564C2610.91,1567.12,2602.81,1567.46,2598.17,1564.78Z"/><path class="cls-6" d="M2509.36,1513.51l-57.79-33.37c-4.64-2.68-4.06-7.36,1.3-10.45l57.26-33.06c5.36-3.1,13.47-3.43,18.11-.75l57.79,33.36c4.64,2.68,4.06,7.36-1.3,10.45l-57.26,33.06C2522.11,1515.85,2514,1516.18,2509.36,1513.51Z"/><path class="cls-6" d="M2420.56,1462.23l-57.79-33.36c-4.64-2.68-4.06-7.36,1.3-10.45l57.26-33.06c5.36-3.1,13.46-3.43,18.1-.75l57.8,33.36c4.64,2.68,4.05,7.36-1.3,10.45l-57.27,33.06C2433.31,1464.58,2425.2,1464.91,2420.56,1462.23Z"/><path class="cls-6" d="M2331.76,1411,2274,1377.6c-4.64-2.68-4.06-7.36,1.3-10.45l57.26-33.06c5.36-3.1,13.46-3.43,18.1-.75l57.79,33.36c4.64,2.68,4.06,7.36-1.3,10.45l-57.26,33.06C2344.5,1413.31,2336.4,1413.64,2331.76,1411Z"/><path class="cls-6" d="M2423.07,1358.24l-57.79-33.36c-4.64-2.68-4.05-7.36,1.3-10.45l18.93-10.93c5.36-3.1,13.47-3.43,18.11-.75l57.79,33.36c4.64,2.68,4.06,7.36-1.3,10.45l-18.93,10.93C2435.82,1360.59,2427.71,1360.92,2423.07,1358.24Z"/><path class="cls-6" d="M2539,1425.15l-57.79-33.37c-4.64-2.67-4.06-7.35,1.3-10.45l18.93-10.93c5.36-3.09,13.46-3.42,18.1-.75l57.8,33.37c4.64,2.68,4,7.36-1.31,10.45l-18.92,10.93C2551.71,1427.49,2543.6,1427.83,2539,1425.15Z"/><path class="cls-6" d="M2627.39,1476.21l-57.79-33.37c-4.64-2.68-4-7.36,1.3-10.45l18.93-10.93c5.36-3.09,13.47-3.43,18.11-.75l57.79,33.37c4.64,2.68,4.06,7.35-1.3,10.45l-18.93,10.93C2640.14,1478.55,2632,1478.89,2627.39,1476.21Z"/><path class="cls-6" d="M2715.83,1527.26,2658,1493.9c-4.64-2.68-4.06-7.36,1.3-10.45l18.92-10.93c5.36-3.1,13.47-3.43,18.11-.75l57.79,33.36c4.64,2.68,4.06,7.36-1.3,10.45l-18.93,10.93C2728.57,1529.61,2720.47,1529.94,2715.83,1527.26Z"/><path class="cls-6" d="M2804.26,1578.32,2746.47,1545c-4.64-2.68-4.06-7.36,1.3-10.46l18.93-10.93c5.36-3.09,13.46-3.43,18.1-.75l57.79,33.37c4.64,2.68,4.06,7.36-1.3,10.45l-18.93,10.93C2817,1580.66,2808.9,1581,2804.26,1578.32Z"/><path class="cls-6" d="M3298,1863.36l-57.8-33.36c-4.64-2.68-4.05-7.36,1.31-10.46l18.92-10.92c5.36-3.1,13.47-3.43,18.11-.76l57.79,33.37c4.64,2.68,4.06,7.36-1.3,10.45l-18.93,10.93C3310.71,1865.7,3302.61,1866,3298,1863.36Z"/><path class="cls-6" d="M3386.4,1914.42l-57.79-33.37c-4.64-2.68-4.06-7.36,1.3-10.45l18.93-10.93c5.35-3.09,13.46-3.43,18.1-.75l57.79,33.37c4.64,2.68,4.06,7.36-1.3,10.45l-18.93,10.93C3399.14,1916.76,3391,1917.1,3386.4,1914.42Z"/><path class="cls-6" d="M3474.83,1965.48,3417,1932.11c-4.64-2.68-4.06-7.36,1.3-10.45l18.93-10.93c5.36-3.09,13.46-3.43,18.1-.75l57.79,33.36c4.64,2.68,4.06,7.36-1.3,10.46l-18.93,10.92C3487.58,1967.82,3479.47,1968.15,3474.83,1965.48Z"/><path class="cls-6" d="M3563.26,2016.53l-57.79-33.36c-4.64-2.68-4-7.36,1.3-10.46l18.93-10.93c5.36-3.09,13.47-3.42,18.11-.74l57.79,33.36c4.64,2.68,4.06,7.36-1.3,10.45l-18.93,10.93C3576,2018.87,3567.9,2019.21,3563.26,2016.53Z"/><path class="cls-6" d="M2687.41,1616.3l-57.79-33.36c-4.64-2.68-4-7.36,1.3-10.46l57.26-33.06c5.36-3.09,13.47-3.43,18.11-.75l57.79,33.37c4.64,2.68,4.06,7.36-1.3,10.45l-57.26,33.06C2700.16,1618.64,2692.05,1619,2687.41,1616.3Z"/><path class="cls-6" d="M2776.66,1667.83l-57.79-33.37c-4.64-2.68-4.06-7.36,1.3-10.45l57.26-33.06c5.36-3.09,13.46-3.43,18.1-.75l57.79,33.37c4.64,2.68,4.06,7.35-1.29,10.45l-57.27,33.06C2789.41,1670.17,2781.3,1670.51,2776.66,1667.83Z"/><path class="cls-6" d="M2865.91,1719.35,2808.12,1686c-4.64-2.68-4.06-7.36,1.3-10.45l57.26-33.06c5.35-3.1,13.46-3.43,18.1-.75l57.79,33.36c4.64,2.68,4.06,7.36-1.3,10.45L2884,1718.6C2878.65,1721.7,2870.55,1722,2865.91,1719.35Z"/><path class="cls-6" d="M2955.15,1770.88l-57.79-33.36c-4.64-2.68-4.06-7.36,1.3-10.46l57.26-33.06c5.36-3.09,13.47-3.43,18.11-.75l57.79,33.37c4.64,2.68,4.06,7.36-1.3,10.45l-57.26,33.06C2967.9,1773.22,2959.79,1773.56,2955.15,1770.88Z"/><path class="cls-6" d="M3044.4,1822.41,2986.61,1789c-4.64-2.68-4.06-7.36,1.3-10.45l57.26-33.06c5.36-3.09,13.46-3.43,18.1-.75l57.79,33.37c4.64,2.68,4.06,7.35-1.29,10.45l-57.27,33.06C3057.15,1824.75,3049,1825.09,3044.4,1822.41Z"/><path class="cls-6" d="M3133.65,1873.93l-57.79-33.36c-4.64-2.68-4.06-7.36,1.3-10.45l57.26-33.06c5.36-3.1,13.46-3.43,18.1-.75l57.79,33.36c4.64,2.68,4.06,7.36-1.3,10.46l-57.26,33C3146.39,1876.28,3138.29,1876.61,3133.65,1873.93Z"/><path class="cls-6" d="M3222.89,1925.46l-57.79-33.36c-4.64-2.68-4-7.36,1.3-10.46l57.26-33.06c5.36-3.09,13.47-3.42,18.11-.75l57.79,33.37c4.64,2.68,4.06,7.36-1.3,10.45L3241,1924.71C3235.64,1927.8,3227.53,1928.14,3222.89,1925.46Z"/><path class="cls-6" d="M3312.14,1977l-57.79-33.37c-4.64-2.68-4.06-7.36,1.3-10.45l57.26-33.06c5.36-3.09,13.46-3.43,18.1-.75l57.8,33.37c4.64,2.67,4.05,7.35-1.31,10.45l-57.26,33.06C3324.88,1979.33,3316.78,1979.67,3312.14,1977Z"/><path class="cls-6" d="M3401.39,2028.51l-57.79-33.36c-4.65-2.68-4.06-7.36,1.3-10.45l57.26-33.06c5.36-3.1,13.46-3.43,18.1-.75l57.79,33.36c4.64,2.68,4.06,7.36-1.3,10.45l-57.26,33.06C3414.13,2030.86,3406,2031.19,3401.39,2028.51Z"/><path class="cls-6" d="M2177.18,1622.66,2007,1524.4c-4.64-2.68-4.06-7.36,1.3-10.45l57.26-33.06c5.35-3.1,13.46-3.43,18.1-.75l170.2,98.26c4.64,2.68,4.06,7.36-1.3,10.45l-57.26,33.06C2189.92,1625,2181.82,1625.34,2177.18,1622.66Z"/><path class="cls-6" d="M3273.59,2255.68l-170.2-98.27c-4.64-2.67-4.06-7.35,1.3-10.45L3162,2113.9c5.36-3.09,13.47-3.43,18.11-.75l170.2,98.27c4.64,2.68,4.06,7.36-1.3,10.45l-57.27,33.06C3286.34,2258,3278.23,2258.36,3273.59,2255.68Z"/><path class="cls-6" d="M2916.68,2163.44l-57.79-33.37c-4.64-2.68-4.06-7.36,1.3-10.45l68.21-39.39c5.36-3.09,13.47-3.42,18.11-.75l57.79,33.37c4.64,2.68,4.06,7.36-1.3,10.45l-68.21,39.38C2929.43,2165.78,2921.32,2166.11,2916.68,2163.44Z"/><path class="cls-6" d="M2268.57,1789.25l-92.42-53.36c-4.64-2.68-4.06-7.36,1.3-10.45l68.21-39.39c5.36-3.09,13.46-3.43,18.1-.75l92.43,53.36c4.64,2.68,4.06,7.36-1.3,10.45l-68.22,39.39C2281.32,1791.59,2273.21,1791.93,2268.57,1789.25Z"/><path class="cls-6" d="M2830.69,2113.79l-92.42-53.36c-4.64-2.68-4.06-7.36,1.3-10.45l68.21-39.39c5.36-3.09,13.46-3.43,18.1-.75l92.43,53.36c4.64,2.68,4.06,7.36-1.3,10.45L2848.79,2113C2843.44,2116.13,2835.33,2116.47,2830.69,2113.79Z"/><path class="cls-6" d="M2397.34,1863.59l-92.43-53.36c-4.64-2.68-4.06-7.36,1.3-10.45l68.21-39.39c5.36-3.09,13.47-3.43,18.11-.75L2485,1813c4.64,2.68,4.06,7.36-1.3,10.46l-68.21,39.38C2410.08,1865.93,2402,1866.27,2397.34,1863.59Z"/><path class="cls-6" d="M2393.15,1760,2795,1992c5,2.88,5,7.55,0,10.43l-69.56,40.16c-5,2.88-13.07,2.88-18.06,0l-401.83-232Z"/><path class="cls-6" d="M3166.11,2256.86l64.38,37.16c3.8,2.2,3.32,6-1.07,8.57l-27.9,16.11c-4.4,2.54-11,2.81-14.84.62l-64.37-37.17c-3.81-2.2-3.33-6,1.06-8.57l27.9-16.11C3155.67,2254.94,3162.31,2254.66,3166.11,2256.86Z"/><path class="cls-6" d="M3076.13,2204.9l64.37,37.17c3.8,2.19,3.33,6-1.07,8.57l-27.9,16.11c-4.39,2.53-11,2.81-14.84.61l-64.37-37.16c-3.81-2.2-3.33-6,1.06-8.57l27.91-16.11C3065.68,2203,3072.32,2202.71,3076.13,2204.9Z"/><path class="cls-6" d="M2986.88,2153.38l64.37,37.16c3.81,2.2,3.33,6-1.06,8.57l-27.91,16.11c-4.39,2.54-11,2.81-14.83.62l-64.38-37.17c-3.8-2.2-3.32-6,1.07-8.57L2972,2154C2976.43,2151.46,2983.08,2151.18,2986.88,2153.38Z"/><path class="cls-6" d="M3125.41,2176.45l64.37,37.17c3.81,2.19,3.33,6-1.06,8.56l-27.91,16.11c-4.39,2.54-11,2.81-14.83.62l-64.38-37.17c-3.8-2.19-3.32-6,1.07-8.56l27.9-16.12C3115,2174.53,3121.61,2174.25,3125.41,2176.45Z"/><path class="cls-6" d="M1973.1,2009.74l234.21-135.19a53.16,53.16,0,0,1,53.31.11l402.58,234.56a21.86,21.86,0,0,1-.2,37.89l-234.72,133.6a55,55,0,0,1-55.08-.39L1973,2045A20.38,20.38,0,0,1,1973.1,2009.74Z"/><path class="cls-6" d="M3494.36,1806.06,2654.9,1321.78l-14.25,9.32a18.36,18.36,0,0,0,.86,31.27l791,456.72a41.19,41.19,0,0,0,42.65-.87Z"/><path class="cls-6" d="M2880.14,402.05v66.1L2539.3,271.37v-66.1c0-20.28,14.34-28.44,32-18.23l276.78,159.8C2865.8,357.05,2880.14,381.77,2880.14,402.05Z"/><path class="cls-35" d="M2880.14,468.15v356c0,20.29-14.34,28.45-32,18.23l-276.78-159.8c-17.69-10.21-32-34.93-32-55.21v-356Z"/><text class="cls-36" transform="matrix(0.88, 0.51, 0, 1, 2558.49, 257.53)">INVESTMENT</text><ellipse class="cls-35" cx="2855.79" cy="372.82" rx="5.21" ry="9.03" transform="translate(203.2 1494.56) rotate(-30.36)"/><ellipse class="cls-35" cx="2838.28" cy="362.71" rx="5.21" ry="9.03" transform="translate(205.91 1484.32) rotate(-30.36)"/><ellipse class="cls-35" cx="2820.77" cy="352.6" rx="5.21" ry="9.03" transform="matrix(0.86, -0.51, 0.51, 0.86, 208.62, 1474.08)"/><text class="cls-37" transform="matrix(0.88, 0.51, 0, 1, 2577.21, 338.88)">Starting Amount</text><text class="cls-37" transform="matrix(0.88, 0.51, 0, 1, 2577.21, 462.27)">Return Rate</text><text class="cls-37" transform="matrix(0.88, 0.51, 0, 1, 2740.8, 556.72)">Compound</text><text class="cls-37" transform="matrix(0.88, 0.51, 0, 1, 2785.01, 458.85)">After</text><path class="cls-38" d="M2836,561.62,2575.8,411.42c-13.08-7.55-23.69-27.81-23.69-45.26h0c0-17.44,10.61-25.45,23.69-17.9L2836,498.46c13.08,7.55,23.69,27.81,23.69,45.26h0C2859.64,561.16,2849,569.17,2836,561.62Z"/><text class="cls-37" transform="matrix(0.88, 0.51, 0, 1, 2577.21, 576.84)">Additional Contribution</text><path class="cls-38" d="M2836,799.58,2575.8,649.38c-13.08-7.55-23.69-27.81-23.69-45.26h0c0-17.44,10.61-25.46,23.69-17.9L2836,736.42c13.08,7.55,23.69,27.81,23.69,45.25h0C2859.64,799.12,2849,807.13,2836,799.58Z"/><path class="cls-38" d="M2836,684,2575.8,533.83c-13.08-7.56-23.69-27.82-23.69-45.26h0c0-17.44,10.61-25.46,23.69-17.9L2836,620.87c13.08,7.55,23.69,27.81,23.69,45.25h0C2859.64,683.56,2849,691.58,2836,684Z"/><line class="cls-38" x1="2705.87" y1="547.72" x2="2705.87" y2="608.44"/><line class="cls-38" x1="2731.5" y1="438.15" x2="2731.5" y2="501.07"/><text class="cls-39" transform="matrix(0.88, 0.51, 0, 1, 2577.31, 399.65)">$5000</text><text class="cls-39" transform="matrix(0.88, 0.51, 0, 1, 2577.31, 637.61)">$200</text><text class="cls-39" transform="matrix(0.88, 0.51, 0, 1, 2597.81, 536.34)">6%</text><text class="cls-40" transform="matrix(0.88, 0.51, 0, 1, 2719.54, 599.27)">Monthly</text><text class="cls-39" transform="matrix(0.88, 0.51, 0, 1, 2781.04, 517.27)">35</text><path class="cls-6" d="M2818.22,963.16l-217-125.28c-20.28-11.71-36.72-43.13-36.72-70.17h0c0-27,16.44-39.47,36.72-27.76l217,125.28c20.28,11.71,36.72,43.13,36.72,70.17h0C2854.94,962.44,2838.5,974.87,2818.22,963.16Z"/><text class="cls-36" transform="matrix(0.88, 0.51, 0, 1, 2619.17, 809.07)">Calculate</text><path class="cls-26" d="M2770,1123.4c0,69.29-49,97.17-109.44,62.27-50.68-29.25-93.31-93.35-105.77-154.14l52.39,11.77c5.52,31.14,27.32,64.6,53.38,79.64,30.22,17.45,54.72,3.51,54.72-31.13,0-32.42-21.46-71.49-49-90.67v-62.9C2724.05,975,2770,1056.32,2770,1123.4Z"/><path class="cls-41" d="M2666.28,938.24v62.9q-2.84-2-5.74-3.66c-30.22-17.45-54.73-3.51-54.73,31.14q0,2,.12,4.11l-54.17-21.4c-.44-4.82-.67-9.6-.67-14.3,0-69.29,49-97.18,109.45-62.28C2662.46,935.86,2664.38,937,2666.28,938.24Z"/><path class="cls-4" d="M2607.16,1043.3l-52.39-11.77a184.93,184.93,0,0,1-3-20.2l54.17,21.4A86.3,86.3,0,0,0,2607.16,1043.3Z"/><path class="cls-26" d="M2844.82,1122.34l-33.91-19.58c-4.54-2.62-8.21-9.64-8.21-15.69v-15.22c0-6,3.67-8.82,8.21-6.21l33.91,19.59c4.54,2.61,8.21,9.64,8.21,15.68v15.23C2853,1122.18,2849.36,1125,2844.82,1122.34Z"/><path class="cls-41" d="M2844.82,1183.53l-33.91-19.59c-4.54-2.61-8.21-9.64-8.21-15.68V1133c0-6,3.67-8.82,8.21-6.2l33.91,19.58c4.54,2.62,8.21,9.64,8.21,15.69v15.22C2853,1183.37,2849.36,1186.15,2844.82,1183.53Z"/><path class="cls-4" d="M2844.82,1244.71l-33.91-19.58c-4.54-2.62-8.21-9.64-8.21-15.69v-15.22c0-6,3.67-8.83,8.21-6.21l33.91,19.59c4.54,2.61,8.21,9.64,8.21,15.68v15.23C2853,1244.55,2849.36,1247.33,2844.82,1244.71Z"/><path class="cls-6" d="M3719.49,1845.66l-768.3-443.58c-24.09-13.91-43.62-51.22-43.62-83.33V894.51c0-32.12,19.53-46.88,43.62-33l768.3,443.57c24.08,13.91,43.61,51.22,43.61,83.34v424.23C3763.1,1844.8,3743.57,1859.56,3719.49,1845.66Z"/><path class="cls-42" d="M2947.51,1322s246.62,106.09,419.93,101.08,274.94-87.67,274.94-87.67"/><line class="cls-43" x1="2947.51" y1="1329.66" x2="3643.22" y2="1630.08"/><path class="cls-44" d="M2948.35,1335.87s300.73,155.33,451.58,159.48c184.13,5.07,244.12-54.85,244.12-54.85"/><polyline class="cls-45" points="2949.36 914.19 2949.36 1347.33 3723.16 1794.08"/><text class="cls-46" transform="matrix(0.88, 0.51, 0, 1, 2927.99, 502.38)">End Balance: $325,559.82<tspan class="cls-47"><tspan x="0" y="111.29">Total Principal: $89,000.00</tspan><tspan x="0" y="166.93">Total Interest: $236,559.82</tspan></tspan></text><path d="M4598.06,2213.63c151,87.19,151.8,228.54,1.77,315.73s-394.06,87.19-545.08,0-151.73-228.5-1.7-315.69S4447.11,2126.48,4598.06,2213.63Z"/><path class="cls-48" d="M4345,1878.7c1.91,1.1,1.92,2.89,0,4a7.65,7.65,0,0,1-6.91,0c-1.92-1.11-1.92-2.9,0-4A7.59,7.59,0,0,1,4345,1878.7Z"/><g class="cls-49"><path class="cls-26" d="M4551,1910.45c-9,1.76-18.33,4.81-25.79,10.27-5,3.65-8.25,9.14-13.81,12.35,13.63-7.4,28.73-13.64,44.41-14.43,14.65-.75,22.38,3.43,28.85,16.67,14,28.67,12.17,64.27,6.79,94.87-8.33,47.41-28.84,92.89-55.74,132.57-21.43,31.59-48.69,59.38-81.09,79.76,2.43-1.22,23.2,13.57,24.65,14.41q18.91,11,37.91,21.91c1.3.75,3.35,2.58,4.76,2.73,8.48.85,25.46-16.66,31.71-22.27,22.92-20.6,42-45.47,58-71.75,33.12-54.57,57.77-122,50.73-186.74-3.15-28.91-14-58.79-37.49-77.31C4603.87,1907,4576.36,1903.52,4551,1910.45Z"/></g><path class="cls-50" d="M4521.75,1900.82c81.43-47,160.42-2,160.71,109.12s-78.13,247-159.57,294c0-1.45-.06-20.42-.07-21.88,71-41,140.87-162,140.61-261.13s-70.63-139.2-141.62-98.23C4521.8,1921.24,4521.75,1902.27,4521.75,1900.82Z"/><path class="cls-51" d="M4684.7,1977.19c-5.15-34.5-16.8-67.17-41.95-92.28-16.53-16.5-39.64-30.72-60.39-37.93a148.47,148.47,0,0,0-26.58-6.86c-4.29-.67-8.61-1.2-12.94-1.48-1.42-.09-9.09-.26-4.83-.26-30.43-.57-57.78,8.74-84.47,22.88,1.37-.82,16.67,9.78,17.68,10.37q20.28,11.79,40.6,23.5c2,1.12,3.93,2.68,6,3.45,6.26,2.32,8.5-.53,14.86-3.51,14.35-6.7,30-11.42,45.89-12.36,71.39-4.26,103.69,66,103.88,127.23.19,57.94-19.29,115.63-46.49,166.22-15.58,29-34.33,56.45-56.54,80.74a280.61,280.61,0,0,1-32.51,30.58c-5.4,4.27-11,8.32-16.79,12-6.72,4.32-10.78,10.83-17.65,14.8,87-51.75,146.49-151.49,167.09-249C4685.57,2036.91,4689,2006.1,4684.7,1977.19Z"/><path class="cls-26" d="M4527.78,1868.86l-1.39,488.21c-.12,43.27-28.56,86.47-85.36,119.48-114.35,66.45-300.35,66.45-415.45,0-57.88-33.42-86.79-77.3-86.67-121.11l1.39-488.21c-.13,43.82,28.78,87.7,86.67,121.12,115.1,66.45,301.09,66.45,415.44,0C4499.22,1955.33,4527.65,1912.13,4527.78,1868.86Z"/><path class="cls-50" d="M4441.06,1747.7c115.09,66.46,115.7,174.19,1.35,240.65s-300.34,66.45-415.44,0-115.65-174.16-1.3-240.61S4326,1681.28,4441.06,1747.7Z"/><path class="cls-52" d="M4442.41,1988.35a237.77,237.77,0,0,0,36.52-25.87c13.92-45-9.25-93.15-69.51-127.94-97.46-56.27-255-56.27-351.91,0-59.49,34.57-82.19,82.33-68.33,127.07a239.05,239.05,0,0,0,37.79,26.71C4142.07,2054.8,4328.06,2054.8,4442.41,1988.35Z"/><path class="cls-50" d="M4443.55,1986c-27.26,15.84-58.66,27.79-92.13,36.08v487.83c32.94-8.27,63.87-20.08,90.75-35.7,56.8-33,85.24-76.21,85.36-119.48l1.39-488.21C4528.79,1909.82,4500.36,1953,4443.55,1986Z"/><path class="cls-51" d="M4234.24,1733.33h0c72.33,0,139.88,16,190.21,45.06,44.45,25.67,68.95,57.67,69,90.1.05,32.12-24,63.81-67.74,89.22-50,29-117.33,45-189.63,45s-139.93-16-190.29-45.09c-44.42-25.65-68.91-57.63-68.95-90.06-.05-32.12,24-63.81,67.74-89.23,50-29,117.34-45,189.66-45m0-35.44c-75.18,0-150.28,16.62-207.46,49.85-114.35,66.45-113.75,174.19,1.3,240.61,57.54,33.22,132.82,49.83,208,49.83s150.26-16.61,207.44-49.83c114.35-66.46,113.74-174.19-1.36-240.64-57.51-33.21-132.76-49.82-207.92-49.82Z"/></svg>